# This file uses centimeters as units for non-parametric coordinates.

v 0.369023 1.082119 -0.000000
v 0.369023 0.957728 -0.224472
v 0.369023 0.615233 -0.360587
v 0.369023 0.267721 -0.382090
v 0.369023 -0.129130 -0.376639
v 0.369023 -0.621168 -0.311359
v 0.369023 -1.058267 -0.119658
v 0.369023 -1.058267 0.119658
v 0.369023 -0.621168 0.311360
v 0.369023 -0.129130 0.376639
v 0.369023 0.267721 0.382090
v 0.369023 0.615234 0.360587
v 0.369023 0.957728 0.224472
v -0.369023 1.082119 0.000000
v -0.369023 0.957728 -0.224472
v -0.369023 0.615233 -0.360587
v -0.369023 0.267721 -0.382090
v -0.369023 -0.129130 -0.376639
v -0.369023 -0.621168 -0.311359
v -0.369023 -1.058267 -0.119658
v -0.369023 -1.058267 0.119658
v -0.369023 -0.621168 0.311360
v -0.369023 -0.129130 0.376639
v -0.369023 0.267721 0.382090
v -0.369023 0.615234 0.360587
v -0.369023 0.957728 0.224472
v -0.369023 1.641668 0.000000
v -0.369023 1.453624 -0.464723
v -0.369023 0.932573 -0.719998
v -0.369023 0.359823 -0.762284
v -0.369023 -0.420202 -0.771333
v -0.369023 -1.333632 -0.545796
v -0.369023 -1.593964 -0.239315
v -0.369023 -1.593964 0.239316
v -0.369023 -1.333632 0.545796
v -0.369023 -0.420201 0.771333
v -0.369023 0.359824 0.762284
v -0.369023 0.932574 0.719998
v -0.369023 1.453625 0.464723
v 0.369023 1.641668 -0.000000
v 0.369023 1.453624 -0.464723
v 0.369023 0.932573 -0.719998
v 0.369023 0.359823 -0.762284
v 0.369023 -0.420202 -0.771333
v 0.369023 -1.333632 -0.545796
v 0.369023 -1.593964 -0.239315
v 0.369023 -1.593964 0.239316
v 0.369023 -1.333632 0.545796
v 0.369023 -0.420201 0.771333
v 0.369023 0.359824 0.762284
v 0.369023 0.932574 0.719998
v 0.369023 1.453625 0.464723
vt 0.113234 0.886766
vt 0.172737 0.886766
vt 0.232239 0.886766
vt 0.291742 0.886766
vt 0.351244 0.886766
vt 0.410746 0.886766
vt 0.470249 0.886766
vt 0.529751 0.886766
vt 0.589254 0.886766
vt 0.648756 0.886766
vt 0.708259 0.886766
vt 0.767761 0.886766
vt 0.827263 0.886766
vt 0.886766 0.886766
vt 0.113234 0.693383
vt 0.172737 0.693383
vt 0.232239 0.693383
vt 0.291742 0.693383
vt 0.351244 0.693383
vt 0.410746 0.693383
vt 0.470249 0.693383
vt 0.529751 0.693383
vt 0.589254 0.693383
vt 0.648756 0.693383
vt 0.708259 0.693383
vt 0.767761 0.693383
vt 0.827263 0.693383
vt 0.886766 0.693383
vt 0.113234 0.500000
vt 0.172737 0.500000
vt 0.232239 0.500000
vt 0.291742 0.500000
vt 0.351244 0.500000
vt 0.410746 0.500000
vt 0.470249 0.500000
vt 0.529751 0.500000
vt 0.589254 0.500000
vt 0.648756 0.500000
vt 0.708259 0.500000
vt 0.767761 0.500000
vt 0.827263 0.500000
vt 0.886766 0.500000
vt 0.113234 0.306617
vt 0.172737 0.306617
vt 0.232239 0.306617
vt 0.291742 0.306617
vt 0.351244 0.306617
vt 0.410746 0.306617
vt 0.470249 0.306617
vt 0.529751 0.306617
vt 0.589254 0.306617
vt 0.648756 0.306617
vt 0.708259 0.306617
vt 0.767761 0.306617
vt 0.827263 0.306617
vt 0.886766 0.306617
vt 0.113234 0.113234
vt 0.172737 0.113234
vt 0.232239 0.113234
vt 0.291742 0.113234
vt 0.351244 0.113234
vt 0.410746 0.113234
vt 0.470249 0.113234
vt 0.529751 0.113234
vt 0.589254 0.113234
vt 0.648756 0.113234
vt 0.708259 0.113234
vt 0.767761 0.113234
vt 0.827263 0.113234
vt 0.886766 0.113234
vn -0.000000 -0.611248 0.791439
vn -0.000000 -1.000000 0.000000
vn -0.000000 -1.000000 0.000000
vn -0.000000 -0.611248 0.791439
vn -0.000000 -0.222693 0.974889
vn -0.000000 -0.222693 0.974889
vn -0.000000 -0.021559 0.999768
vn -0.000000 -0.021559 0.999768
vn 0.000000 0.079321 0.996849
vn 0.000000 0.079321 0.996849
vn 0.000000 0.266573 0.963815
vn 0.000000 0.266573 0.963815
vn 0.000000 0.702136 0.712043
vn 0.000000 0.702136 0.712043
vn 0.000000 0.702136 -0.712043
vn 0.000000 0.702136 -0.712043
vn 0.000000 0.266573 -0.963815
vn 0.000000 0.266573 -0.963815
vn 0.000000 0.079321 -0.996849
vn 0.000000 0.079321 -0.996849
vn -0.000000 -0.021560 -0.999768
vn -0.000000 -0.021560 -0.999768
vn -0.000000 -0.222693 -0.974889
vn -0.000000 -0.222693 -0.974889
vn -0.000000 -0.611248 -0.791439
vn -0.000000 -0.611248 -0.791439
vn -1.000000 0.000000 0.000000
vn -1.000000 0.000000 0.000000
vn -1.000000 0.000000 0.000000
vn -1.000000 0.000000 0.000000
vn -1.000000 0.000000 0.000000
vn -1.000000 0.000000 0.000000
vn -1.000000 0.000000 -0.000000
vn -1.000000 0.000000 -0.000000
vn -1.000000 0.000000 -0.000000
vn -1.000000 0.000000 -0.000000
vn -1.000000 0.000000 0.000000
vn -1.000000 0.000000 0.000000
vn -1.000000 0.000000 0.000000
vn -1.000000 0.000000 0.000000
vn -1.000000 0.000000 -0.000000
vn -1.000000 0.000000 -0.000000
vn -1.000000 0.000000 0.000000
vn -1.000000 0.000000 -0.000000
vn -1.000000 0.000000 0.000000
vn -1.000000 0.000000 0.000000
vn -1.000000 0.000000 0.000000
vn -1.000000 0.000000 -0.000000
vn -1.000000 0.000000 -0.000000
vn -1.000000 0.000000 -0.000000
vn -1.000000 0.000000 0.000000
vn -1.000000 0.000000 0.000000
vn 0.000000 0.712481 -0.701691
vn 0.000000 1.000000 -0.000000
vn 0.000000 1.000000 -0.000000
vn 0.000000 0.712481 -0.701691
vn 0.000000 0.262502 -0.964931
vn 0.000000 0.262502 -0.964931
vn 0.000000 0.037921 -0.999281
vn 0.000000 0.037921 -0.999281
vn -0.000000 -0.126806 -0.991928
vn -0.000000 -0.126806 -0.991928
vn -0.000000 -0.412831 -0.910808
vn -0.000000 -0.412831 -0.910808
vn -0.000000 -0.949180 -0.314734
vn -0.000000 -0.949180 -0.314734
vn -0.000000 -0.949180 0.314735
vn -0.000000 -0.949180 0.314735
vn -0.000000 -0.412831 0.910808
vn -0.000000 -0.412831 0.910808
vn -0.000000 -0.126806 0.991928
vn -0.000000 -0.126806 0.991928
vn 0.000000 0.037921 0.999281
vn 0.000000 0.037921 0.999281
vn 0.000000 0.262503 0.964931
vn 0.000000 0.262503 0.964931
vn 0.000000 0.712481 0.701691
vn 0.000000 0.712481 0.701691
vn 1.000000 -0.000000 0.000000
vn 1.000000 -0.000000 0.000000
vn 1.000000 -0.000000 0.000000
vn 1.000000 -0.000000 0.000000
vn 1.000000 -0.000000 0.000000
vn 1.000000 -0.000000 0.000000
vn 1.000000 -0.000000 -0.000000
vn 1.000000 -0.000000 -0.000000
vn 1.000000 -0.000000 -0.000000
vn 1.000000 -0.000000 -0.000000
vn 1.000000 -0.000000 0.000000
vn 1.000000 -0.000000 -0.000000
vn 1.000000 -0.000000 0.000000
vn 1.000000 -0.000000 0.000000
vn 1.000000 -0.000000 0.000000
vn 1.000000 -0.000000 0.000000
vn 1.000000 -0.000000 0.000000
vn 1.000000 -0.000000 0.000000
vn 1.000000 -0.000000 0.000000
vn 1.000000 -0.000000 0.000000
vn 1.000000 -0.000000 0.000000
vn 1.000000 -0.000000 0.000000
vn 1.000000 -0.000000 0.000000
vn 1.000000 -0.000000 0.000000
vn 1.000000 -0.000000 0.000000
vn 1.000000 -0.000000 0.000000
f 2/2/1 1/1/2 14/15/3 15/16/4
f 3/3/5 2/2/1 15/16/4 16/17/6
f 4/4/7 3/3/5 16/17/6 17/18/8
f 5/5/9 4/4/7 17/18/8 18/19/10
f 6/6/11 5/5/9 18/19/10 19/20/12
f 7/7/13 6/6/11 19/20/12 20/21/14
f 8/8/15 7/7/13 20/21/14 21/22/16
f 9/9/17 8/8/15 21/22/16 22/23/18
f 10/10/19 9/9/17 22/23/18 23/24/20
f 11/11/21 10/10/19 23/24/20 24/25/22
f 12/12/23 11/11/21 24/25/22 25/26/24
f 13/13/25 12/12/23 25/26/24 26/27/26
f 1/14/2 13/13/25 26/27/26 14/28/3
f 15/16/27 14/15/28 27/29/29 28/30/30
f 16/17/31 15/16/27 28/30/30 29/31/32
f 17/18/33 16/17/31 29/31/32 30/32/34
f 18/19/35 17/18/33 30/32/34 31/33/36
f 19/20/37 18/19/35 31/33/36 32/34/38
f 20/21/39 19/20/37 32/34/38 33/35/40
f 21/22/41 20/21/39 33/35/40 34/36/42
f 22/23/43 21/22/41 34/36/42 35/37/44
f 23/24/45 22/23/43 35/37/44 36/38/46
f 24/25/47 23/24/45 36/38/46 37/39/48
f 25/26/49 24/25/47 37/39/48 38/40/50
f 26/27/51 25/26/49 38/40/50 39/41/52
f 14/28/28 26/27/51 39/41/52 27/42/29
f 28/30/53 27/29/54 40/43/55 41/44/56
f 29/31/57 28/30/53 41/44/56 42/45/58
f 30/32/59 29/31/57 42/45/58 43/46/60
f 31/33/61 30/32/59 43/46/60 44/47/62
f 32/34/63 31/33/61 44/47/62 45/48/64
f 33/35/65 32/34/63 45/48/64 46/49/66
f 34/36/67 33/35/65 46/49/66 47/50/68
f 35/37/69 34/36/67 47/50/68 48/51/70
f 36/38/71 35/37/69 48/51/70 49/52/72
f 37/39/73 36/38/71 49/52/72 50/53/74
f 38/40/75 37/39/73 50/53/74 51/54/76
f 39/41/77 38/40/75 51/54/76 52/55/78
f 27/42/54 39/41/77 52/55/78 40/56/55
f 41/44/79 40/43/80 1/57/81 2/58/82
f 42/45/83 41/44/79 2/58/82 3/59/84
f 43/46/85 42/45/83 3/59/84 4/60/86
f 44/47/87 43/46/85 4/60/86 5/61/88
f 45/48/89 44/47/87 5/61/88 6/62/90
f 46/49/91 45/48/89 6/62/90 7/63/92
f 47/50/93 46/49/91 7/63/92 8/64/94
f 48/51/95 47/50/93 8/64/94 9/65/96
f 49/52/97 48/51/95 9/65/96 10/66/98
f 50/53/99 49/52/97 10/66/98 11/67/100
f 51/54/101 50/53/99 11/67/100 12/68/102
f 52/55/103 51/54/101 12/68/102 13/69/104
f 40/56/80 52/55/103 13/69/104 1/70/81
v 0.369023 1.082119 -0.000000
v 0.369023 0.957728 -0.224472
v 0.369023 0.615233 -0.360587
v 0.369023 0.267721 -0.382090
v 0.369023 -0.129130 -0.376639
v 0.369023 -0.621168 -0.311359
v 0.369023 -1.058267 -0.119658
v 0.369023 -1.058267 0.119658
v 0.369023 -0.621168 0.311360
v 0.369023 -0.129130 0.376639
v 0.369023 0.267721 0.382090
v 0.369023 0.615234 0.360587
v 0.369023 0.957728 0.224472
v -0.369023 1.082119 0.000000
v -0.369023 0.957728 -0.224472
v -0.369023 0.615233 -0.360587
v -0.369023 0.267721 -0.382090
v -0.369023 -0.129130 -0.376639
v -0.369023 -0.621168 -0.311359
v -0.369023 -1.058267 -0.119658
v -0.369023 -1.058267 0.119658
v -0.369023 -0.621168 0.311360
v -0.369023 -0.129130 0.376639
v -0.369023 0.267721 0.382090
v -0.369023 0.615234 0.360587
v -0.369023 0.957728 0.224472
v -0.369023 1.641668 0.000000
v -0.369023 1.453624 -0.464723
v -0.369023 0.932573 -0.719998
v -0.369023 0.359823 -0.762284
v -0.369023 -0.420202 -0.771333
v -0.369023 -1.333632 -0.545796
v -0.369023 -1.593964 -0.239315
v -0.369023 -1.593964 0.239316
v -0.369023 -1.333632 0.545796
v -0.369023 -0.420201 0.771333
v -0.369023 0.359824 0.762284
v -0.369023 0.932574 0.719998
v -0.369023 1.453625 0.464723
v 0.369023 1.641668 -0.000000
v 0.369023 1.453624 -0.464723
v 0.369023 0.932573 -0.719998
v 0.369023 0.359823 -0.762284
v 0.369023 -0.420202 -0.771333
v 0.369023 -1.333632 -0.545796
v 0.369023 -1.593964 -0.239315
v 0.369023 -1.593964 0.239316
v 0.369023 -1.333632 0.545796
v 0.369023 -0.420201 0.771333
v 0.369023 0.359824 0.762284
v 0.369023 0.932574 0.719998
v 0.369023 1.453625 0.464723
vt 0.113234 0.886766
vt 0.172737 0.886766
vt 0.232239 0.886766
vt 0.291742 0.886766
vt 0.351244 0.886766
vt 0.410746 0.886766
vt 0.470249 0.886766
vt 0.529751 0.886766
vt 0.589254 0.886766
vt 0.648756 0.886766
vt 0.708259 0.886766
vt 0.767761 0.886766
vt 0.827263 0.886766
vt 0.886766 0.886766
vt 0.113234 0.693383
vt 0.172737 0.693383
vt 0.232239 0.693383
vt 0.291742 0.693383
vt 0.351244 0.693383
vt 0.410746 0.693383
vt 0.470249 0.693383
vt 0.529751 0.693383
vt 0.589254 0.693383
vt 0.648756 0.693383
vt 0.708259 0.693383
vt 0.767761 0.693383
vt 0.827263 0.693383
vt 0.886766 0.693383
vt 0.113234 0.500000
vt 0.172737 0.500000
vt 0.232239 0.500000
vt 0.291742 0.500000
vt 0.351244 0.500000
vt 0.410746 0.500000
vt 0.470249 0.500000
vt 0.529751 0.500000
vt 0.589254 0.500000
vt 0.648756 0.500000
vt 0.708259 0.500000
vt 0.767761 0.500000
vt 0.827263 0.500000
vt 0.886766 0.500000
vt 0.113234 0.306617
vt 0.172737 0.306617
vt 0.232239 0.306617
vt 0.291742 0.306617
vt 0.351244 0.306617
vt 0.410746 0.306617
vt 0.470249 0.306617
vt 0.529751 0.306617
vt 0.589254 0.306617
vt 0.648756 0.306617
vt 0.708259 0.306617
vt 0.767761 0.306617
vt 0.827263 0.306617
vt 0.886766 0.306617
vt 0.113234 0.113234
vt 0.172737 0.113234
vt 0.232239 0.113234
vt 0.291742 0.113234
vt 0.351244 0.113234
vt 0.410746 0.113234
vt 0.470249 0.113234
vt 0.529751 0.113234
vt 0.589254 0.113234
vt 0.648756 0.113234
vt 0.708259 0.113234
vt 0.767761 0.113234
vt 0.827263 0.113234
vt 0.886766 0.113234
vn -0.000000 -0.611248 0.791439
vn -0.000000 -1.000000 0.000000
vn -0.000000 -1.000000 0.000000
vn -0.000000 -0.611248 0.791439
vn -0.000000 -0.222693 0.974889
vn -0.000000 -0.222693 0.974889
vn -0.000000 -0.021559 0.999768
vn -0.000000 -0.021559 0.999768
vn 0.000000 0.079321 0.996849
vn 0.000000 0.079321 0.996849
vn 0.000000 0.266573 0.963815
vn 0.000000 0.266573 0.963815
vn 0.000000 0.702136 0.712043
vn 0.000000 0.702136 0.712043
vn 0.000000 0.702136 -0.712043
vn 0.000000 0.702136 -0.712043
vn 0.000000 0.266573 -0.963815
vn 0.000000 0.266573 -0.963815
vn 0.000000 0.079321 -0.996849
vn 0.000000 0.079321 -0.996849
vn -0.000000 -0.021560 -0.999768
vn -0.000000 -0.021560 -0.999768
vn -0.000000 -0.222693 -0.974889
vn -0.000000 -0.222693 -0.974889
vn -0.000000 -0.611248 -0.791439
vn -0.000000 -0.611248 -0.791439
vn -1.000000 0.000000 0.000000
vn -1.000000 0.000000 0.000000
vn -1.000000 0.000000 0.000000
vn -1.000000 0.000000 0.000000
vn -1.000000 0.000000 0.000000
vn -1.000000 0.000000 0.000000
vn -1.000000 0.000000 -0.000000
vn -1.000000 0.000000 -0.000000
vn -1.000000 0.000000 -0.000000
vn -1.000000 0.000000 -0.000000
vn -1.000000 0.000000 0.000000
vn -1.000000 0.000000 0.000000
vn -1.000000 0.000000 0.000000
vn -1.000000 0.000000 0.000000
vn -1.000000 0.000000 -0.000000
vn -1.000000 0.000000 -0.000000
vn -1.000000 0.000000 0.000000
vn -1.000000 0.000000 -0.000000
vn -1.000000 0.000000 0.000000
vn -1.000000 0.000000 0.000000
vn -1.000000 0.000000 0.000000
vn -1.000000 0.000000 -0.000000
vn -1.000000 0.000000 -0.000000
vn -1.000000 0.000000 -0.000000
vn -1.000000 0.000000 0.000000
vn -1.000000 0.000000 0.000000
vn 0.000000 0.712481 -0.701691
vn 0.000000 1.000000 -0.000000
vn 0.000000 1.000000 -0.000000
vn 0.000000 0.712481 -0.701691
vn 0.000000 0.262502 -0.964931
vn 0.000000 0.262502 -0.964931
vn 0.000000 0.037921 -0.999281
vn 0.000000 0.037921 -0.999281
vn -0.000000 -0.126806 -0.991928
vn -0.000000 -0.126806 -0.991928
vn -0.000000 -0.412831 -0.910808
vn -0.000000 -0.412831 -0.910808
vn -0.000000 -0.949180 -0.314734
vn -0.000000 -0.949180 -0.314734
vn -0.000000 -0.949180 0.314735
vn -0.000000 -0.949180 0.314735
vn -0.000000 -0.412831 0.910808
vn -0.000000 -0.412831 0.910808
vn -0.000000 -0.126806 0.991928
vn -0.000000 -0.126806 0.991928
vn 0.000000 0.037921 0.999281
vn 0.000000 0.037921 0.999281
vn 0.000000 0.262503 0.964931
vn 0.000000 0.262503 0.964931
vn 0.000000 0.712481 0.701691
vn 0.000000 0.712481 0.701691
vn 1.000000 -0.000000 0.000000
vn 1.000000 -0.000000 0.000000
vn 1.000000 -0.000000 0.000000
vn 1.000000 -0.000000 0.000000
vn 1.000000 -0.000000 0.000000
vn 1.000000 -0.000000 0.000000
vn 1.000000 -0.000000 -0.000000
vn 1.000000 -0.000000 -0.000000
vn 1.000000 -0.000000 -0.000000
vn 1.000000 -0.000000 -0.000000
vn 1.000000 -0.000000 0.000000
vn 1.000000 -0.000000 -0.000000
vn 1.000000 -0.000000 0.000000
vn 1.000000 -0.000000 0.000000
vn 1.000000 -0.000000 0.000000
vn 1.000000 -0.000000 0.000000
vn 1.000000 -0.000000 0.000000
vn 1.000000 -0.000000 0.000000
vn 1.000000 -0.000000 0.000000
vn 1.000000 -0.000000 0.000000
vn 1.000000 -0.000000 0.000000
vn 1.000000 -0.000000 0.000000
vn 1.000000 -0.000000 0.000000
vn 1.000000 -0.000000 0.000000
vn 1.000000 -0.000000 0.000000
vn 1.000000 -0.000000 0.000000
f 54/72/105 53/71/106 66/85/107 67/86/108
f 55/73/109 54/72/105 67/86/108 68/87/110
f 56/74/111 55/73/109 68/87/110 69/88/112
f 57/75/113 56/74/111 69/88/112 70/89/114
f 58/76/115 57/75/113 70/89/114 71/90/116
f 59/77/117 58/76/115 71/90/116 72/91/118
f 60/78/119 59/77/117 72/91/118 73/92/120
f 61/79/121 60/78/119 73/92/120 74/93/122
f 62/80/123 61/79/121 74/93/122 75/94/124
f 63/81/125 62/80/123 75/94/124 76/95/126
f 64/82/127 63/81/125 76/95/126 77/96/128
f 65/83/129 64/82/127 77/96/128 78/97/130
f 53/84/106 65/83/129 78/97/130 66/98/107
f 67/86/131 66/85/132 79/99/133 80/100/134
f 68/87/135 67/86/131 80/100/134 81/101/136
f 69/88/137 68/87/135 81/101/136 82/102/138
f 70/89/139 69/88/137 82/102/138 83/103/140
f 71/90/141 70/89/139 83/103/140 84/104/142
f 72/91/143 71/90/141 84/104/142 85/105/144
f 73/92/145 72/91/143 85/105/144 86/106/146
f 74/93/147 73/92/145 86/106/146 87/107/148
f 75/94/149 74/93/147 87/107/148 88/108/150
f 76/95/151 75/94/149 88/108/150 89/109/152
f 77/96/153 76/95/151 89/109/152 90/110/154
f 78/97/155 77/96/153 90/110/154 91/111/156
f 66/98/132 78/97/155 91/111/156 79/112/133
f 80/100/157 79/99/158 92/113/159 93/114/160
f 81/101/161 80/100/157 93/114/160 94/115/162
f 82/102/163 81/101/161 94/115/162 95/116/164
f 83/103/165 82/102/163 95/116/164 96/117/166
f 84/104/167 83/103/165 96/117/166 97/118/168
f 85/105/169 84/104/167 97/118/168 98/119/170
f 86/106/171 85/105/169 98/119/170 99/120/172
f 87/107/173 86/106/171 99/120/172 100/121/174
f 88/108/175 87/107/173 100/121/174 101/122/176
f 89/109/177 88/108/175 101/122/176 102/123/178
f 90/110/179 89/109/177 102/123/178 103/124/180
f 91/111/181 90/110/179 103/124/180 104/125/182
f 79/112/158 91/111/181 104/125/182 92/126/159
f 93/114/183 92/113/184 53/127/185 54/128/186
f 94/115/187 93/114/183 54/128/186 55/129/188
f 95/116/189 94/115/187 55/129/188 56/130/190
f 96/117/191 95/116/189 56/130/190 57/131/192
f 97/118/193 96/117/191 57/131/192 58/132/194
f 98/119/195 97/118/193 58/132/194 59/133/196
f 99/120/197 98/119/195 59/133/196 60/134/198
f 100/121/199 99/120/197 60/134/198 61/135/200
f 101/122/201 100/121/199 61/135/200 62/136/202
f 102/123/203 101/122/201 62/136/202 63/137/204
f 103/124/205 102/123/203 63/137/204 64/138/206
f 104/125/207 103/124/205 64/138/206 65/139/208
f 92/126/184 104/125/207 65/139/208 53/140/185
