# This file uses centimeters as units for non-parametric coordinates.

mtllib BookCaseDoorLeft.mtl
g default
v -0.009160 -0.263702 0.336266
v 0.011806 -0.263702 0.336266
v -0.009160 0.268059 0.336266
v 0.011806 0.268059 0.336266
v -0.009160 0.268059 -0.363734
v 0.011806 0.268059 -0.363734
v -0.009160 -0.263702 -0.363734
v 0.011806 -0.263702 -0.363734
v -0.009160 0.268059 -0.293734
v 0.011806 0.268059 -0.293734
v 0.011806 -0.263702 -0.293734
v -0.009160 -0.263702 -0.293734
v -0.009160 -0.210526 0.336266
v 0.011806 -0.210526 0.336266
v 0.011806 -0.210526 -0.293734
v 0.011806 -0.210526 -0.363734
v -0.009160 -0.210526 -0.363734
v -0.009160 -0.210526 -0.293734
v -0.009160 0.268059 0.273266
v 0.011806 0.268059 0.273266
v 0.011806 -0.210526 0.273266
v 0.011806 -0.263702 0.273266
v -0.009160 -0.263702 0.273266
v -0.009160 -0.210526 0.273266
v -0.009160 0.220201 -0.363734
v 0.011806 0.220201 -0.363734
v 0.011806 0.220201 -0.293734
v 0.011806 0.220201 0.273266
v 0.011806 0.220201 0.336266
v -0.009160 0.220201 0.336266
v -0.009160 0.220201 0.273266
v -0.009160 0.220201 -0.293734
v -0.000088 0.220201 -0.293734
v -0.000088 0.220201 0.273266
v -0.000088 -0.210526 0.273266
v -0.000088 -0.210526 -0.293734
v 0.042097 -0.145943 -0.308674
v 0.061631 -0.145943 -0.308674
v 0.042097 0.099536 -0.308674
v 0.061631 0.099536 -0.308674
v 0.042097 0.099536 -0.334691
v 0.061631 0.099536 -0.334691
v 0.042097 -0.145943 -0.334691
v 0.061631 -0.145943 -0.334691
v 0.042097 -0.107669 -0.308674
v 0.061631 -0.107669 -0.308674
v 0.061631 -0.107669 -0.334691
v 0.042097 -0.107669 -0.334691
v 0.042097 -0.090939 -0.334691
v 0.061631 -0.090939 -0.334691
v 0.061631 -0.090939 -0.308674
v 0.042097 -0.090939 -0.308674
v 0.042097 0.052811 -0.334691
v 0.061631 0.052811 -0.334691
v 0.061631 0.052811 -0.308674
v 0.042097 0.052811 -0.308674
v 0.061631 0.033925 -0.308674
v 0.061631 0.033925 -0.334691
v 0.042097 0.033925 -0.334691
v 0.042097 0.033925 -0.308674
v 0.001985 -0.107669 -0.334691
v 0.001985 -0.107669 -0.308674
v 0.001985 -0.090939 -0.308674
v 0.001985 -0.090939 -0.334691
v 0.001985 0.033925 -0.334691
v 0.001985 0.033925 -0.308674
v 0.001985 0.052811 -0.308674
v 0.001985 0.052811 -0.334691
vt 0.428109 0.584221
vt 0.441882 0.584221
vt 0.441882 0.867172
vt 0.428109 0.867172
vt 0.706095 0.713983
vt 0.717944 0.721002
vt 0.694507 0.760566
vt 0.682658 0.753546
vt 0.411131 0.864473
vt 0.397358 0.864473
vt 0.397358 0.581521
vt 0.411131 0.581521
vt 0.659654 0.862853
vt 0.648490 0.854787
vt 0.675420 0.817513
vt 0.686583 0.825578
vt 0.388938 0.070348
vt 0.388938 0.116332
vt 0.105987 0.116332
vt 0.105987 0.070348
vt 0.473292 0.532948
vt 0.473292 0.486964
vt 0.756243 0.486964
vt 0.756243 0.532948
vt 0.895932 0.393520
vt 0.907781 0.400539
vt 0.354006 0.547239
vt 0.354006 0.919710
vt 0.071054 0.919710
vt 0.071054 0.547239
vt 0.893546 0.515593
vt 0.904709 0.523658
vt 0.756243 0.114493
vt 0.473292 0.114493
vt 0.428109 0.549289
vt 0.441882 0.549289
vt 0.105987 0.488803
vt 0.071054 0.488803
vt 0.071054 0.116332
vt 0.071054 0.070348
vt 0.397358 0.546589
vt 0.411131 0.546589
vt 0.438359 0.532948
vt 0.438359 0.486964
vt 0.438359 0.114493
vt 0.917025 0.357913
vt 0.928874 0.364932
vt 0.105987 0.530189
vt 0.388938 0.488803
vt 0.388938 0.530189
vt 0.071054 0.530189
vt 0.917782 0.482046
vt 0.928946 0.490112
vt 0.473292 0.073107
vt 0.438359 0.073107
vt 0.756243 0.073107
vt 0.411131 0.895912
vt 0.397358 0.895912
vt 0.420377 0.116332
vt 0.420377 0.070348
vt 0.420377 0.488803
vt 0.420377 0.530189
vt 0.441882 0.898611
vt 0.428109 0.898611
vt 0.787682 0.114493
vt 0.787682 0.073107
vt 0.787682 0.486964
vt 0.787682 0.532948
vt 0.916705 0.907318
vt 0.920611 0.534868
vt 0.928423 0.534950
vt 0.924517 0.907400
vt 0.486211 0.830202
vt 0.486195 0.549972
vt 0.496711 0.550576
vt 0.496728 0.830806
vt 0.371732 0.918344
vt 0.371732 0.545873
vt 0.379545 0.545873
vt 0.379545 0.918344
vt 0.469378 0.549957
vt 0.469361 0.830203
vt 0.458860 0.830799
vt 0.458877 0.550553
vt 0.572338 0.573339
vt 0.585171 0.573339
vt 0.585171 0.584329
vt 0.572338 0.584329
vt 0.513529 0.735311
vt 0.513529 0.722478
vt 0.530620 0.722478
vt 0.530620 0.735311
vt 0.871453 0.658818
vt 0.858620 0.658818
vt 0.858620 0.647828
vt 0.871453 0.647828
vt 0.530620 0.548387
vt 0.530620 0.561220
vt 0.513529 0.561220
vt 0.513529 0.548387
vt 0.513529 0.586362
vt 0.530620 0.586362
vt 0.530620 0.597352
vt 0.513529 0.597352
vt 0.572338 0.548196
vt 0.585171 0.548196
vt 0.858620 0.622686
vt 0.871453 0.622686
vt 0.604073 0.700966
vt 0.621163 0.700966
vt 0.621163 0.726108
vt 0.604073 0.726108
vt 0.871453 0.753250
vt 0.858620 0.753250
vt 0.858620 0.740843
vt 0.871453 0.740843
vt 0.513529 0.679377
vt 0.530620 0.679377
vt 0.530620 0.691784
vt 0.513529 0.691784
vt 0.572338 0.666354
vt 0.585171 0.666354
vt 0.585171 0.678761
vt 0.572338 0.678761
vt 0.871453 0.783944
vt 0.858620 0.783944
vt 0.585171 0.709455
vt 0.572338 0.709455
vt 0.822744 0.698022
vt 0.839835 0.698022
vt 0.839835 0.728716
vt 0.822744 0.728716
vt 0.604073 0.576134
vt 0.621163 0.576134
vt 0.621163 0.658159
vt 0.604073 0.658159
vt 0.621163 0.752458
vt 0.604073 0.752458
vt 0.545988 0.584329
vt 0.545988 0.573339
vt 0.604073 0.549784
vt 0.621163 0.549784
vt 0.897803 0.647828
vt 0.897803 0.658818
vt 0.621163 0.684509
vt 0.604073 0.684509
vt 0.545988 0.678761
vt 0.545988 0.666354
vt 0.822744 0.671672
vt 0.839835 0.671672
vt 0.897803 0.740843
vt 0.897803 0.753250
vn 0.000000 0.000000 1.000000
vn 0.000000 0.000000 1.000000
vn 0.000000 0.000000 1.000000
vn 0.000000 0.000000 1.000000
vn 0.000000 1.000000 0.000000
vn 0.000000 1.000000 0.000000
vn 0.000000 1.000000 0.000000
vn 0.000000 1.000000 0.000000
vn 0.000000 0.000000 -1.000000
vn 0.000000 0.000000 -1.000000
vn 0.000000 0.000000 -1.000000
vn 0.000000 0.000000 -1.000000
vn 0.000000 -1.000000 0.000000
vn 0.000000 -1.000000 0.000000
vn 0.000000 -1.000000 0.000000
vn 0.000000 -1.000000 0.000000
vn 1.000000 0.000000 0.000000
vn 1.000000 0.000000 0.000000
vn 1.000000 0.000000 0.000000
vn 1.000000 0.000000 0.000000
vn -1.000000 0.000000 0.000000
vn -1.000000 0.000000 0.000000
vn -1.000000 0.000000 0.000000
vn -1.000000 0.000000 0.000000
vn 0.000000 1.000000 0.000000
vn 0.000000 1.000000 0.000000
vn 1.000000 0.000000 0.000000
vn 1.000000 0.000000 0.000000
vn 1.000000 0.000000 0.000000
vn 1.000000 0.000000 0.000000
vn 0.000000 -1.000000 0.000000
vn 0.000000 -1.000000 0.000000
vn -1.000000 0.000000 0.000000
vn -1.000000 0.000000 0.000000
vn 0.000000 0.000000 1.000000
vn 0.000000 0.000000 1.000000
vn 1.000000 0.000000 0.000000
vn 1.000000 0.000000 0.000000
vn 1.000000 0.000000 0.000000
vn 1.000000 0.000000 0.000000
vn 0.000000 0.000000 -1.000000
vn 0.000000 0.000000 -1.000000
vn -1.000000 0.000000 0.000000
vn -1.000000 0.000000 0.000000
vn -1.000000 0.000000 0.000000
vn 0.000000 1.000000 0.000000
vn 0.000000 1.000000 0.000000
vn 1.000000 0.000000 0.000000
vn 1.000000 0.000000 0.000000
vn 1.000000 0.000000 0.000000
vn 1.000000 0.000000 0.000000
vn 0.000000 -1.000000 0.000000
vn 0.000000 -1.000000 0.000000
vn -1.000000 0.000000 0.000000
vn -1.000000 0.000000 0.000000
vn -1.000000 0.000000 0.000000
vn 0.000000 0.000000 -1.000000
vn 0.000000 0.000000 -1.000000
vn 1.000000 0.000000 0.000000
vn 1.000000 0.000000 0.000000
vn 1.000000 0.000000 0.000000
vn 1.000000 0.000000 0.000000
vn 0.000000 0.000000 1.000000
vn 0.000000 0.000000 1.000000
vn -1.000000 0.000000 0.000000
vn -1.000000 0.000000 0.000000
vn -1.000000 0.000000 0.000000
vn -1.000000 0.000000 0.000000
vn 0.000000 -1.000000 0.000000
vn 0.000000 -1.000000 0.000000
vn 0.000000 -1.000000 0.000000
vn 0.000000 -1.000000 0.000000
vn 0.000000 0.000000 -1.000000
vn 0.000000 0.000000 -1.000000
vn 0.000000 0.000000 -1.000000
vn 0.000000 0.000000 -1.000000
vn 0.000000 1.000000 0.000000
vn 0.000000 1.000000 0.000000
vn 0.000000 1.000000 0.000000
vn 0.000000 1.000000 0.000000
vn 0.000000 0.000000 1.000000
vn 0.000000 0.000000 1.000000
vn 0.000000 0.000000 1.000000
vn 0.000000 0.000000 1.000000
vn 0.000000 0.000000 1.000000
vn 0.000000 0.000000 1.000000
vn 0.000000 0.000000 1.000000
vn 0.000000 0.000000 1.000000
vn 0.000000 1.000000 0.000000
vn 0.000000 1.000000 0.000000
vn 0.000000 1.000000 0.000000
vn 0.000000 1.000000 0.000000
vn 0.000000 0.000000 -1.000000
vn 0.000000 0.000000 -1.000000
vn 0.000000 0.000000 -1.000000
vn 0.000000 0.000000 -1.000000
vn 0.000000 -1.000000 0.000000
vn 0.000000 -1.000000 0.000000
vn 0.000000 -1.000000 0.000000
vn 0.000000 -1.000000 0.000000
vn 1.000000 0.000000 0.000000
vn 1.000000 0.000000 0.000000
vn 1.000000 0.000000 0.000000
vn 1.000000 0.000000 0.000000
vn 0.000000 0.000000 1.000000
vn 0.000000 0.000000 1.000000
vn 1.000000 0.000000 0.000000
vn 1.000000 0.000000 0.000000
vn 0.000000 0.000000 -1.000000
vn 0.000000 0.000000 -1.000000
vn -1.000000 0.000000 0.000000
vn -1.000000 0.000000 0.000000
vn -1.000000 0.000000 0.000000
vn -1.000000 0.000000 0.000000
vn 0.000000 0.000000 -1.000000
vn 0.000000 0.000000 -1.000000
vn 0.000000 0.000000 -1.000000
vn 0.000000 0.000000 -1.000000
vn 1.000000 0.000000 0.000000
vn 1.000000 0.000000 0.000000
vn 1.000000 0.000000 0.000000
vn 1.000000 0.000000 0.000000
vn 0.000000 0.000000 1.000000
vn 0.000000 0.000000 1.000000
vn 0.000000 0.000000 1.000000
vn 0.000000 0.000000 1.000000
vn 0.000000 0.000000 -1.000000
vn 0.000000 0.000000 -1.000000
vn 1.000000 0.000000 0.000000
vn 1.000000 0.000000 0.000000
vn 0.000000 0.000000 1.000000
vn 0.000000 0.000000 1.000000
vn -1.000000 0.000000 0.000000
vn -1.000000 0.000000 0.000000
vn -1.000000 0.000000 0.000000
vn -1.000000 0.000000 0.000000
vn -1.000000 0.000000 0.000000
vn -1.000000 0.000000 0.000000
vn -1.000000 0.000000 0.000000
vn -1.000000 0.000000 0.000000
vn 0.000000 -1.000000 0.000000
vn 0.000000 -1.000000 0.000000
vn 0.000000 -1.000000 0.000000
vn 0.000000 -1.000000 0.000000
vn 0.000000 0.000000 1.000000
vn 0.000000 0.000000 1.000000
vn 0.000000 0.000000 1.000000
vn 0.000000 0.000000 1.000000
vn 0.000000 1.000000 0.000000
vn 0.000000 1.000000 0.000000
vn 0.000000 1.000000 0.000000
vn 0.000000 1.000000 0.000000
vn 0.000000 0.000000 -1.000000
vn 0.000000 0.000000 -1.000000
vn 0.000000 0.000000 -1.000000
vn 0.000000 0.000000 -1.000000
vn 0.000000 -1.000000 0.000000
vn 0.000000 -1.000000 0.000000
vn 0.000000 -1.000000 0.000000
vn 0.000000 -1.000000 0.000000
vn 0.000000 0.000000 1.000000
vn 0.000000 0.000000 1.000000
vn 0.000000 0.000000 1.000000
vn 0.000000 0.000000 1.000000
vn 0.000000 1.000000 0.000000
vn 0.000000 1.000000 0.000000
vn 0.000000 1.000000 0.000000
vn 0.000000 1.000000 0.000000
vn 0.000000 0.000000 -1.000000
vn 0.000000 0.000000 -1.000000
vn 0.000000 0.000000 -1.000000
vn 0.000000 0.000000 -1.000000
s 1
g polySurface3
usemtl initialShadingGroup
f 13/1/1 14/2/2 29/3/3 30/4/4
s 2
f 9/5/5 10/6/6 6/7/7 5/8/8
s 3
f 25/9/9 26/10/10 16/11/11 17/12/12
s 4
f 7/13/13 8/14/14 11/15/15 12/16/16
s 5
f 26/17/17 27/18/18 15/19/19 16/20/20
s 6
f 17/21/21 18/22/22 32/23/23 25/24/24
s 2
f 19/25/25 20/26/26 10/6/6 9/5/5
s off
f 33/27/27 34/28/28 35/29/29 36/30/30
s 4
f 12/16/16 11/15/15 22/31/31 23/32/32
s 6
f 31/33/33 32/23/23 18/22/22 24/34/34
s 1
f 1/35/35 2/36/36 14/2/2 13/1/1
s 5
f 21/37/37 22/38/38 11/39/39 15/19/19
f 16/20/20 15/19/19 11/39/39 8/40/40
s 3
f 17/12/12 16/11/11 8/41/41 7/42/42
s 6
f 7/43/43 12/44/44 18/22/22 17/21/21
f 23/45/45 24/34/34 18/22/22 12/44/44
s 2
f 3/46/46 4/47/47 20/26/26 19/25/25
s 5
f 14/48/48 21/37/37 28/49/49 29/50/50
f 2/51/51 22/38/38 21/37/37 14/48/48
s 4
f 23/32/32 22/31/31 2/52/52 1/53/53
s 6
f 13/54/54 24/34/34 23/45/45 1/55/55
f 30/56/56 31/33/33 24/34/34 13/54/54
s 3
f 5/57/57 6/58/58 26/10/10 25/9/9
s 5
f 10/59/59 27/18/18 26/17/17 6/60/60
f 20/61/61 28/49/49 27/18/18 10/59/59
f 29/50/50 28/49/49 20/61/61 4/62/62
s 1
f 30/4/4 29/3/3 4/63/63 3/64/64
s 6
f 19/65/65 31/33/33 30/56/56 3/66/66
f 9/67/67 32/23/23 31/33/33 19/65/65
f 25/24/24 32/23/23 9/67/67 5/68/68
s off
f 27/69/69 28/70/70 34/71/71 33/72/72
f 28/73/73 21/74/74 35/75/75 34/76/76
f 21/77/77 15/78/78 36/79/79 35/80/80
f 15/81/81 27/82/82 33/83/83 36/84/84
s 8
f 45/85/85 46/86/86 51/87/87 52/88/88
s off
f 39/89/89 40/90/90 42/91/91 41/92/92
s 9
f 49/93/93 50/94/94 47/95/95 48/96/96
s off
f 43/97/97 44/98/98 38/99/99 37/100/100
s 10
f 46/101/101 47/102/102 50/103/103 51/104/104
s 8
f 37/105/105 38/106/106 46/86/86 45/85/85
s 10
f 38/99/107 44/98/108 47/102/102 46/101/101
s 9
f 48/96/96 47/95/95 44/107/109 43/108/110
s off
f 43/109/111 37/110/112 45/111/113 48/112/114
s 9
f 53/113/115 54/114/116 58/115/117 59/116/118
s 10
f 57/117/119 58/118/120 54/119/121 55/120/122
s 8
f 60/121/123 57/122/124 55/123/125 56/124/126
s 9
f 41/125/127 42/126/128 54/114/116 53/113/115
s 10
f 55/120/122 54/119/121 42/91/129 40/90/130
s 8
f 56/124/126 55/123/125 40/127/131 39/128/132
s off
f 53/129/133 56/130/134 39/131/135 41/132/136
s 10
f 51/104/104 50/103/103 58/118/120 57/117/119
s 9
f 59/116/118 58/115/117 50/94/94 49/93/93
s off
f 49/133/137 52/134/138 60/135/139 59/136/140
s 8
f 52/88/88 51/87/87 57/122/124 60/121/123
s off
f 48/112/141 45/111/142 62/137/143 61/138/144
f 45/85/145 52/88/146 63/139/147 62/140/148
f 52/134/149 49/133/150 64/141/151 63/142/152
f 49/93/153 48/96/154 61/143/155 64/144/156
f 59/136/157 60/135/158 66/145/159 65/146/160
f 60/121/161 56/124/162 67/147/163 66/148/164
f 56/130/165 53/129/166 68/149/167 67/150/168
f 53/113/169 59/116/170 65/151/171 68/152/172
