# This file uses centimeters as units for non-parametric coordinates.

v -0.001324 -4.242073 -2.743715
v 0.185653 -4.145663 -2.743715
v -0.001324 -3.289237 -2.743715
v 0.296271 -3.289237 -2.743715
v -0.001324 -3.289237 -3.040858
v 0.296271 -3.289237 -3.040858
v -0.001324 -4.242073 -3.040858
v 0.185653 -4.145663 -3.040858
v -0.001324 -3.964398 -2.743715
v 0.296271 -3.964398 -2.743715
v 0.296271 -3.964398 -3.040858
v -0.001324 -3.964398 -3.040858
v -2.119671 -4.145663 -2.743715
v -1.932693 -4.242073 -2.743715
v -2.230289 -3.289237 -2.743715
v -1.932693 -3.289237 -2.743715
v -2.230289 -3.289237 -3.040858
v -1.932693 -3.289237 -3.040858
v -2.119671 -4.145663 -3.040858
v -1.932693 -4.242073 -3.040858
v -2.230289 -3.964398 -2.743715
v -1.932693 -3.964398 -2.743715
v -1.932693 -3.964398 -3.040858
v -2.230289 -3.964398 -3.040858
v -0.971744 -4.242073 -3.122700
v -0.971744 -3.964398 -3.122700
v -0.971744 -3.964398 -2.661872
v -0.971744 -4.242073 -2.661872
v -6.593606 -3.316985 3.541857
v 5.700922 -3.316985 3.541857
v -6.593606 -3.031140 3.541857
v 5.700922 -3.031140 3.541857
v -6.593606 -3.031140 -3.541857
v 5.700922 -3.031140 -3.541857
v -6.593606 -3.316985 -3.541857
v 5.700922 -3.316985 -3.541857
vt 0.782267 0.919790
vt 0.630438 0.920117
vt 0.781941 0.767962
vt 0.630113 0.768288
vt 0.781614 0.616133
vt 0.629786 0.616460
vt 0.781288 0.464305
vt 0.629459 0.464631
vt 0.780962 0.312476
vt 0.629133 0.312803
vt 0.478611 0.920443
vt 0.478284 0.768615
vt 0.933769 0.767635
vt 0.782172 0.875544
vt 0.630343 0.875871
vt 0.629554 0.508877
vt 0.478516 0.876197
vt 0.934000 0.875218
vt 0.781383 0.508551
vt 0.782172 0.875544
vt 0.630343 0.875871
vt 0.630113 0.768288
vt 0.781941 0.767962
vt 0.629786 0.616460
vt 0.781614 0.616133
vt 0.629554 0.508877
vt 0.781383 0.508551
vt 0.781288 0.464305
vt 0.629459 0.464631
vt 0.629133 0.312803
vt 0.780962 0.312476
vt 0.478516 0.876197
vt 0.478284 0.768615
vt 0.934000 0.875218
vt 0.933769 0.767635
vt 0.782267 0.919790
vt 0.630438 0.920117
vt 0.934096 0.919464
vt 0.705001 0.464469
vt 0.705141 0.875710
vt 0.705097 0.508715
vt 0.705886 0.875708
vt 0.704675 0.312640
vt 0.705981 0.919954
vt 0.248993 0.105329
vt 0.402615 0.105329
vt 0.402615 0.258950
vt 0.248993 0.258950
vt 0.402615 0.412572
vt 0.248993 0.412572
vt 0.402615 0.566194
vt 0.248993 0.566194
vt 0.402615 0.719815
vt 0.248993 0.719815
vt 0.556237 0.105329
vt 0.556237 0.258950
vt 0.095372 0.105329
vt 0.095372 0.258950
vn 0.043385 0.000000 0.999058
vn 0.000000 0.000000 1.000000
vn 0.000000 0.000000 1.000000
vn 0.000000 0.000000 1.000000
vn 0.000000 1.000000 0.000000
vn 0.000000 1.000000 0.000000
vn 0.000000 1.000000 0.000000
vn 0.000000 1.000000 0.000000
vn 0.000000 0.000000 -1.000000
vn 0.000000 0.000000 -1.000000
vn 0.000000 0.000000 -1.000000
vn 0.043385 0.000000 -0.999058
vn 0.064527 -0.997916 0.000000
vn 0.458287 -0.888804 0.000000
vn 0.458287 -0.888804 0.000000
vn 0.064527 -0.997916 0.000000
vn 0.991761 -0.128098 0.000000
vn 0.991761 -0.128098 0.000000
vn 1.000000 0.000000 0.000000
vn 1.000000 0.000000 0.000000
vn -1.000000 0.000000 0.000000
vn -1.000000 0.000000 0.000000
vn -1.000000 0.000000 0.000000
vn -1.000000 0.000000 0.000000
vn 0.073978 0.000000 0.997260
vn 0.000000 0.000000 1.000000
vn 0.853606 -0.520920 0.000000
vn 0.853606 -0.520920 0.000000
vn 0.000000 0.000000 -1.000000
vn 0.073978 0.000000 -0.997260
vn 0.000000 0.000000 1.000000
vn -0.043604 0.000000 0.999049
vn 0.000000 0.000000 1.000000
vn 0.000000 0.000000 1.000000
vn 0.000000 1.000000 0.000000
vn 0.000000 1.000000 0.000000
vn 0.000000 1.000000 0.000000
vn 0.000000 1.000000 0.000000
vn 0.000000 0.000000 -1.000000
vn 0.000000 0.000000 -1.000000
vn -0.043604 0.000000 -0.999049
vn 0.000000 0.000000 -1.000000
vn -0.458287 -0.888804 0.000000
vn -0.065052 -0.997882 0.000000
vn -0.065052 -0.997882 0.000000
vn -0.458287 -0.888804 0.000000
vn 1.000000 0.000000 0.000000
vn 1.000000 0.000000 0.000000
vn 1.000000 0.000000 0.000000
vn 1.000000 0.000000 0.000000
vn -0.991761 -0.128099 0.000000
vn -0.991761 -0.128099 0.000000
vn -1.000000 0.000000 0.000000
vn -1.000000 0.000000 0.000000
vn 0.000000 0.000000 1.000000
vn -0.074615 0.000000 0.997212
vn -0.074615 0.000000 -0.997212
vn 0.000000 0.000000 -1.000000
vn -0.853605 -0.520920 0.000000
vn -0.853605 -0.520920 0.000000
vn 0.000000 1.000000 0.000000
vn 0.000000 1.000000 0.000000
vn 0.000000 1.000000 0.000000
vn 0.000000 1.000000 0.000000
vn 0.000000 0.000000 -1.000000
vn 0.000000 0.000000 -1.000000
vn 0.000000 -1.000000 0.000000
vn 0.000000 -1.000000 0.000000
vn 0.000000 0.000000 1.000000
vn 0.000000 0.000000 1.000000
vn 0.000000 1.000000 0.000000
vn 0.000000 1.000000 0.000000
vn 0.000000 0.000000 1.000000
vn 0.000000 0.000000 1.000000
vn 0.000000 0.000000 1.000000
vn 0.000000 0.000000 1.000000
vn 0.000000 1.000000 0.000000
vn 0.000000 1.000000 0.000000
vn 0.000000 1.000000 0.000000
vn 0.000000 1.000000 0.000000
vn 0.000000 0.000000 -1.000000
vn 0.000000 0.000000 -1.000000
vn 0.000000 0.000000 -1.000000
vn 0.000000 0.000000 -1.000000
vn 0.000000 -1.000000 0.000000
vn 0.000000 -1.000000 0.000000
vn 0.000000 -1.000000 0.000000
vn 0.000000 -1.000000 0.000000
vn 1.000000 0.000000 0.000000
vn 1.000000 0.000000 0.000000
vn 1.000000 0.000000 0.000000
vn 1.000000 0.000000 0.000000
vn -1.000000 0.000000 0.000000
vn -1.000000 0.000000 0.000000
vn -1.000000 0.000000 0.000000
vn -1.000000 0.000000 0.000000
f 9/14/1 10/15/2 4/4/3 3/3/4
f 3/3/5 4/4/6 6/6/7 5/5/8
f 5/5/9 6/6/10 11/16/11 12/19/12
f 7/7/13 8/8/14 2/10/15 1/9/16
f 10/15/17 11/17/18 6/12/19 4/4/20
f 12/18/21 9/14/22 3/3/23 5/13/24
f 1/1/25 2/2/26 10/15/2 9/14/1
f 2/2/27 8/11/28 11/17/18 10/15/17
f 12/19/12 11/16/11 8/8/29 7/7/30
f 21/20/31 22/21/32 16/22/33 15/23/34
f 15/23/35 16/22/36 18/24/37 17/25/38
f 17/25/39 18/24/40 23/26/41 24/27/42
f 19/28/43 20/29/44 14/30/45 13/31/46
f 22/21/47 23/32/48 18/33/49 16/22/50
f 24/34/51 21/20/52 15/23/53 17/35/54
f 13/36/55 14/37/56 22/21/32 21/20/31
f 24/27/42 23/26/41 20/29/57 19/28/58
f 19/38/59 13/36/60 21/20/52 24/34/51
f 9/14/61 12/18/62 26/40/63 27/42/64
f 12/19/12 7/7/30 25/39/65 26/41/66
f 7/7/13 1/9/16 28/43/67 25/39/68
f 1/1/25 9/14/1 27/42/69 28/44/70
f 26/41/66 25/39/65 20/29/57 23/26/41
f 27/42/64 26/40/63 23/32/71 22/21/72
f 28/44/70 27/42/69 22/21/32 14/37/56
f 25/39/68 28/43/67 14/30/45 20/29/44
f 29/45/73 30/46/74 32/47/75 31/48/76
f 31/48/77 32/47/78 34/49/79 33/50/80
f 33/50/81 34/49/82 36/51/83 35/52/84
f 35/52/85 36/51/86 30/53/87 29/54/88
f 30/46/89 36/55/90 34/56/91 32/47/92
f 35/57/93 29/45/94 31/48/95 33/58/96
