# This file uses centimeters as units for non-parametric coordinates.

mtllib Drawer.mtl
g default
v -1.938693 -0.820119 9.299765
v -1.672814 -0.820119 9.299765
v 1.658832 -0.820119 9.299765
v 1.924711 -0.820119 9.299765
v -1.938693 0.315176 9.299765
v -1.672814 0.315176 9.299765
v 1.658832 0.315176 9.299765
v 1.924711 0.315176 9.299765
v -1.938693 0.315176 9.048550
v -1.672814 0.315176 9.048550
v 1.658832 0.315176 9.048550
v 1.924711 0.315176 9.048550
v -1.938693 0.315176 5.720641
v -1.672814 0.315176 5.720641
v 1.658832 0.315176 5.720641
v 1.924711 0.315176 5.720641
v -1.938693 0.315176 5.200564
v -1.672814 0.315176 5.200564
v 1.658832 0.315176 5.200564
v 1.924711 0.315176 5.200564
v -1.938693 -0.820119 5.200564
v -1.672814 -0.820119 5.200564
v 1.658832 -0.820119 5.200564
v 1.924711 -0.820119 5.200564
v -1.938693 -0.820119 5.720642
v -1.672814 -0.820119 5.720642
v 1.658832 -0.820119 5.720642
v 1.924711 -0.820119 5.720642
v -1.938693 -0.820119 9.048550
v -1.672814 -0.820119 9.048550
v 1.658832 -0.820119 9.048550
v 1.924711 -0.820119 9.048550
v -1.672814 -0.696834 9.048550
v 1.658832 -0.696834 9.048550
v 1.658832 -0.696834 5.720641
v -1.672814 -0.696834 5.720641
v -1.938693 0.616416 9.299765
v -1.672814 0.616416 9.299765
v -1.672814 0.616416 9.048550
v -1.938693 0.616416 9.048550
v 1.658832 0.616416 9.299765
v 1.658832 0.616416 9.048550
v 1.924711 0.616416 9.299765
v 1.924711 0.616416 9.048550
v 2.153916 -0.780429 9.048550
v 2.153916 -0.780429 9.244219
v 2.153916 0.315176 9.048550
v 2.153916 0.315176 9.244219
v 2.123382 0.515421 9.048550
v 2.123382 0.515421 9.244219
v -2.167898 -0.780429 9.048550
v -2.167898 -0.780429 9.244219
v -2.167898 0.315176 9.244219
v -2.167898 0.315176 9.048550
v -2.137364 0.515421 9.244219
v -2.137364 0.515421 9.048550
v 0.053164 0.092083 9.266903
v -0.053164 0.092083 9.266903
v -0.106328 0.000000 9.266903
v -0.053164 -0.092083 9.266903
v 0.053164 -0.092083 9.266903
v 0.106328 -0.000000 9.266903
v 0.062378 0.108043 9.473867
v -0.062378 0.108043 9.473867
v -0.124757 0.000000 9.473867
v -0.062378 -0.108043 9.473867
v 0.062378 -0.108043 9.473867
v 0.124757 0.000000 9.473867
v 0.106328 0.184166 9.526011
v -0.106328 0.184166 9.526011
v -0.212657 0.000000 9.526011
v -0.106328 -0.184166 9.526011
v 0.106328 -0.184166 9.526011
v 0.212657 0.000000 9.526011
v 0.092083 0.159493 9.632339
v -0.092083 0.159493 9.632339
v -0.184166 0.000000 9.632339
v -0.092083 -0.159493 9.632339
v 0.092083 -0.159493 9.632339
v 0.184166 0.000000 9.632339
v 0.053164 0.092083 9.710176
v -0.053164 0.092083 9.710176
v -0.106328 0.000000 9.710176
v -0.053164 -0.092083 9.710176
v 0.053164 -0.092083 9.710176
v 0.106328 0.000000 9.710176
v 0.000000 0.000000 9.738667
vt 0.073658 0.330350
vt 0.092757 0.330351
vt 0.092754 0.411909
vt 0.073654 0.411909
vt 0.332092 0.330352
vt 0.332095 0.411908
vt 0.351192 0.330351
vt 0.351196 0.411909
vt 0.964527 0.060456
vt 0.964527 0.084433
vt 0.941872 0.084433
vt 0.941872 0.060456
vt 0.964527 0.384887
vt 0.941872 0.384887
vt 0.964527 0.408865
vt 0.941872 0.408865
vt 0.669730 0.689368
vt 0.688829 0.689185
vt 0.691119 0.928240
vt 0.672020 0.928423
vt 0.907547 0.139128
vt 0.904469 0.378442
vt 0.665424 0.375368
vt 0.668502 0.136054
vt 0.928151 0.686893
vt 0.947250 0.686710
vt 0.949540 0.925764
vt 0.930441 0.925947
vt 0.691477 0.965598
vt 0.672378 0.965781
vt 0.930799 0.963305
vt 0.949898 0.963122
vt 0.713041 0.486289
vt 0.693942 0.486289
vt 0.693942 0.404733
vt 0.713041 0.404733
vt 0.454608 0.486289
vt 0.454608 0.404733
vt 0.435508 0.486289
vt 0.435508 0.404733
vt 0.309280 0.317228
vt 0.309280 0.298129
vt 0.346640 0.298129
vt 0.346640 0.317228
vt 0.309280 0.058795
vt 0.346640 0.058795
vt 0.309280 0.039695
vt 0.346640 0.039695
vt 0.585705 0.298129
vt 0.585705 0.317228
vt 0.585705 0.058795
vt 0.585705 0.039695
vt 0.603751 0.298129
vt 0.603751 0.317228
vt 0.603751 0.058795
vt 0.603751 0.039695
vt 0.648103 0.543408
vt 0.685463 0.543408
vt 0.685463 0.624963
vt 0.648103 0.624963
vt 0.409038 0.543408
vt 0.409038 0.624963
vt 0.583004 0.688447
vt 0.597060 0.688447
vt 0.597060 0.767151
vt 0.583004 0.767151
vt 0.025983 0.460691
vt 0.063343 0.460691
vt 0.063343 0.542246
vt 0.025983 0.542246
vt 0.302408 0.460691
vt 0.302408 0.542246
vt 0.601950 0.688447
vt 0.616006 0.688447
vt 0.616006 0.767151
vt 0.601950 0.767151
vt 0.369492 0.649581
vt 0.130158 0.649581
vt 0.130158 0.576882
vt 0.369492 0.576882
vt 0.377467 0.759913
vt 0.138402 0.759913
vt 0.138402 0.687214
vt 0.377467 0.687214
vt 0.507252 0.652746
vt 0.505409 0.969139
vt 0.409303 0.968579
vt 0.411146 0.652186
vt 0.379262 0.881208
vt 0.054370 0.881208
vt 0.054370 0.782409
vt 0.379262 0.782409
vt 0.092755 0.433549
vt 0.073657 0.433551
vt 0.336106 0.923407
vt 0.355206 0.923407
vt 0.355206 0.945047
vt 0.336106 0.945047
vt 0.616006 0.781702
vt 0.601950 0.781702
vt 0.332094 0.433549
vt 0.096773 0.923407
vt 0.096773 0.945047
vt 0.351193 0.433550
vt 0.597060 0.781702
vt 0.583004 0.781702
vt 0.077673 0.923407
vt 0.077673 0.945047
vt 0.585705 0.022985
vt 0.599761 0.022985
vt 0.958663 0.472135
vt 0.958663 0.619795
vt 0.928852 0.619795
vt 0.928852 0.477297
vt 0.368134 0.333201
vt 0.368139 0.411905
vt 0.063401 0.937792
vt 0.061208 0.923407
vt 0.959518 0.428963
vt 0.941872 0.428963
vt 0.366012 0.426299
vt 0.599761 0.333939
vt 0.585705 0.333939
vt 0.056711 0.411906
vt 0.056716 0.333200
vt 0.560900 0.770002
vt 0.560900 0.688447
vt 0.577366 0.691298
vt 0.577366 0.770002
vt 0.058837 0.426299
vt 0.941872 0.040357
vt 0.959518 0.040357
vt 0.371671 0.923407
vt 0.369478 0.937792
vt 0.782038 0.653974
vt 0.775986 0.670423
vt 0.746749 0.656216
vt 0.752376 0.635024
vt 0.847995 0.633852
vt 0.832101 0.629555
vt 0.835053 0.595700
vt 0.855806 0.605386
vt 0.816883 0.629161
vt 0.810932 0.594789
vt 0.803048 0.633539
vt 0.787239 0.601688
vt 0.791672 0.642464
vt 0.766631 0.615364
vt 0.730187 0.662186
vt 0.736296 0.627793
vt 0.841814 0.580518
vt 0.869630 0.597172
vt 0.811281 0.578240
vt 0.781876 0.585961
vt 0.755807 0.602503
vt 0.832158 0.903743
vt 0.783516 0.903743
vt 0.786756 0.878809
vt 0.828918 0.878809
vt 0.759624 0.889949
vt 0.735304 0.847824
vt 0.758517 0.838163
vt 0.779598 0.874676
vt 0.735304 0.820237
vt 0.759624 0.778112
vt 0.779598 0.793385
vt 0.758517 0.829898
vt 0.783516 0.764318
vt 0.832158 0.764318
vt 0.828918 0.789252
vt 0.786756 0.789252
vt 0.856049 0.778112
vt 0.880370 0.820237
vt 0.857156 0.829898
vt 0.836076 0.793385
vt 0.880370 0.847824
vt 0.856049 0.889949
vt 0.836076 0.874676
vt 0.857156 0.838163
vt 0.795564 0.855287
vt 0.820109 0.855287
vt 0.783292 0.834031
vt 0.795564 0.812774
vt 0.820109 0.812774
vt 0.832382 0.834031
vt 0.807837 0.834031
vn -0.115382 -0.202361 0.972490
vn 0.000000 -0.216051 0.976382
vn 0.000000 0.000000 1.000000
vn -0.109246 0.001221 0.994014
vn 0.000000 -0.216051 0.976382
vn 0.000000 0.000000 1.000000
vn 0.115382 -0.202361 0.972490
vn 0.109246 0.001221 0.994014
vn -0.180653 0.654526 0.734140
vn 0.000000 0.640458 0.767994
vn 0.000000 0.640458 -0.767994
vn -0.138386 0.681818 -0.718313
vn 0.000000 0.640458 0.767994
vn 0.000000 0.640458 -0.767994
vn 0.180653 0.654526 0.734140
vn 0.138386 0.681818 -0.718313
vn -0.968809 0.226889 -0.099655
vn 0.595587 0.156475 -0.787904
vn 0.611784 0.500600 0.612471
vn -0.973656 0.228024 0.000000
vn 0.000000 1.000000 0.000000
vn 0.000000 1.000000 0.000000
vn 0.000000 1.000000 0.000000
vn 0.000000 1.000000 0.000000
vn -0.595587 0.156475 -0.787904
vn 0.968809 0.226889 -0.099655
vn 0.973656 0.228024 0.000000
vn -0.611784 0.500600 0.612471
vn 0.000000 0.416478 -0.909146
vn -0.871643 0.204133 -0.445610
vn 0.000000 0.416478 -0.909146
vn 0.871643 0.204133 -0.445610
vn 0.000000 -0.416479 -0.909146
vn -0.871643 -0.204133 -0.445610
vn 0.000000 -0.416479 -0.909146
vn 0.871643 -0.204133 -0.445610
vn 0.000000 -1.000000 0.000000
vn -0.973656 -0.228024 0.000000
vn 0.000000 -1.000000 0.000000
vn 0.973656 -0.228024 0.000000
vn 0.000000 -1.000000 0.000000
vn -0.965052 -0.255551 -0.058040
vn 0.000000 -1.000000 0.000000
vn 0.965052 -0.255552 -0.058040
vn 0.712238 -0.143021 0.687213
vn 0.612431 -0.140497 -0.777938
vn 0.641134 0.015107 -0.767281
vn 0.733948 0.015083 0.679038
vn -0.612432 -0.140497 -0.777938
vn -0.712239 -0.143021 0.687213
vn -0.733949 0.015083 0.679038
vn -0.641134 0.015107 -0.767280
vn 0.000000 0.000000 -1.000000
vn 0.000000 0.000000 -1.000000
vn -1.000000 0.000000 0.000000
vn -1.000000 0.000000 0.000000
vn 0.000000 0.000000 1.000000
vn 0.000000 0.000000 1.000000
vn 1.000000 0.000000 0.000000
vn 1.000000 0.000000 0.000000
vn -0.670231 0.463486 0.579630
vn -0.568549 0.463746 -0.679479
vn 0.568548 0.463746 -0.679479
vn 0.670231 0.463486 0.579630
vn 0.498030 0.862612 -0.088691
vn -0.498030 0.862613 -0.088691
vn -0.426658 0.738993 -0.521394
vn 0.426658 0.738994 -0.521394
vn -0.996059 0.000000 -0.088691
vn -0.853316 0.000000 -0.521395
vn -0.498030 -0.862612 -0.088691
vn -0.426657 -0.738994 -0.521394
vn 0.498030 -0.862613 -0.088691
vn 0.426658 -0.738994 -0.521394
vn 0.996059 -0.000000 -0.088691
vn 0.853316 -0.000000 -0.521394
vn -0.489103 0.847152 -0.207635
vn 0.489103 0.847152 -0.207635
vn -0.978206 0.000000 -0.207635
vn -0.489103 -0.847152 -0.207635
vn 0.489104 -0.847151 -0.207635
vn 0.978206 -0.000000 -0.207635
vn -0.452519 0.783785 0.425333
vn 0.452518 0.783785 0.425333
vn -0.905037 0.000000 0.425332
vn -0.452519 -0.783785 0.425333
vn 0.452519 -0.783785 0.425333
vn 0.905037 -0.000000 0.425332
vn -0.321963 0.557655 0.765089
vn 0.321963 0.557655 0.765089
vn -0.643925 0.000000 0.765089
vn -0.321962 -0.557655 0.765089
vn 0.321961 -0.557655 0.765089
vn 0.643924 -0.000000 0.765089
vn -0.000000 -0.000000 1.000000
s 1
g pCube3
usemtl initialShadingGroup
f 1/1/1 2/2/2 6/3/3 5/4/4
f 2/2/2 3/5/5 7/6/6 6/3/3
f 3/5/5 4/7/7 8/8/8 7/6/6
f 37/9/9 38/10/10 39/11/11 40/12/12
f 38/10/10 41/13/13 42/14/14 39/11/11
f 41/13/13 43/15/15 44/16/16 42/14/14
f 9/17/17 10/18/18 14/19/19 13/20/20
s off
f 33/21/21 34/22/22 35/23/23 36/24/24
s 1
f 11/25/25 12/26/26 16/27/27 15/28/28
f 13/20/20 14/19/19 18/29/29 17/30/30
f 14/19/19 15/28/28 19/31/31 18/29/29
f 15/28/28 16/27/27 20/32/32 19/31/31
f 17/33/30 18/34/29 22/35/33 21/36/34
f 18/34/29 19/37/31 23/38/35 22/35/33
f 19/37/31 20/39/32 24/40/36 23/38/35
f 21/41/34 22/42/33 26/43/37 25/44/38
f 22/42/33 23/45/35 27/46/39 26/43/37
f 23/45/35 24/47/36 28/48/40 27/46/39
f 25/44/38 26/43/37 30/49/41 29/50/42
f 26/43/37 27/46/39 31/51/43 30/49/41
f 27/46/39 28/48/40 32/52/44 31/51/43
f 29/50/42 30/49/41 2/53/2 1/54/1
f 30/49/41 31/51/43 3/55/5 2/53/2
f 31/51/43 32/52/44 4/56/7 3/55/5
f 28/57/40 24/58/36 20/59/32 16/60/27
f 32/61/44 28/57/40 16/60/27 12/62/26
f 46/63/45 45/64/46 47/65/47 48/66/48
f 21/67/34 25/68/38 13/69/20 17/70/30
f 25/68/38 29/71/42 9/72/17 13/69/20
f 51/73/49 52/74/50 53/75/51 54/76/52
f 10/77/18 11/78/25 34/79/53 33/80/54
f 11/81/25 15/82/28 35/83/55 34/84/56
f 15/85/28 14/86/19 36/87/57 35/88/58
f 14/89/19 10/90/18 33/91/59 36/92/60
f 5/4/4 6/3/3 38/93/10 37/94/9
f 10/95/18 9/96/17 40/97/12 39/98/11
f 54/76/52 53/75/51 55/99/61 56/100/62
f 6/3/3 7/6/6 41/101/13 38/93/10
f 11/102/25 10/95/18 39/98/11 42/103/14
f 7/6/6 8/8/8 43/104/15 41/101/13
f 48/66/48 47/65/47 49/105/63 50/106/64
f 12/107/26 11/102/25 42/103/14 44/108/16
f 4/56/7 32/52/44 45/109/46 46/110/45
f 32/111/44 12/112/26 47/113/47 45/114/46
f 8/8/8 4/7/7 46/115/45 48/116/48
f 12/107/26 44/108/16 49/117/63 47/118/47
f 44/16/16 43/15/15 50/119/64 49/120/63
f 43/104/15 8/8/8 48/116/48 50/121/64
f 29/50/42 1/54/1 52/122/50 51/123/49
f 1/1/1 5/4/4 53/124/51 52/125/50
f 9/126/17 29/127/42 51/128/49 54/129/52
f 5/4/4 37/94/9 55/130/61 53/124/51
f 37/9/9 40/12/12 56/131/62 55/132/61
f 40/97/12 9/96/17 54/133/52 56/134/62
s 2
f 57/135/65 58/136/66 64/137/67 63/138/68
f 58/139/66 59/140/69 65/141/70 64/142/67
f 59/140/69 60/143/71 66/144/72 65/141/70
f 60/143/71 61/145/73 67/146/74 66/144/72
f 61/145/73 62/147/75 68/148/76 67/146/74
f 62/147/75 57/135/65 63/138/68 68/148/76
f 63/138/68 64/137/67 70/149/77 69/150/78
f 64/142/67 65/141/70 71/151/79 70/152/77
f 65/141/70 66/144/72 72/153/80 71/151/79
f 66/144/72 67/146/74 73/154/81 72/153/80
f 67/146/74 68/148/76 74/155/82 73/154/81
f 68/148/76 63/138/68 69/150/78 74/155/82
f 69/156/78 70/157/77 76/158/83 75/159/84
f 70/160/77 71/161/79 77/162/85 76/163/83
f 71/164/79 72/165/80 78/166/86 77/167/85
f 72/168/80 73/169/81 79/170/87 78/171/86
f 73/172/81 74/173/82 80/174/88 79/175/87
f 74/176/82 69/177/78 75/178/84 80/179/88
f 75/159/84 76/158/83 82/180/89 81/181/90
f 76/163/83 77/162/85 83/182/91 82/180/89
f 77/167/85 78/166/86 84/183/92 83/182/91
f 78/171/86 79/170/87 85/184/93 84/183/92
f 79/175/87 80/174/88 86/185/94 85/184/93
f 80/179/88 75/178/84 81/181/90 86/185/94
f 81/181/90 82/180/89 87/186/95
f 82/180/89 83/182/91 87/186/95
f 83/182/91 84/183/92 87/186/95
f 84/183/92 85/184/93 87/186/95
f 85/184/93 86/185/94 87/186/95
f 86/185/94 81/181/90 87/186/95
