# This file uses centimeters as units for non-parametric coordinates.

v -0.445326 -0.026718 0.778284
v -0.245083 -0.026718 0.872339
v 0.000000 0.122866 0.872339
v 0.245083 -0.026718 0.872339
v 0.490166 -0.026718 0.872339
v -0.445326 0.753029 0.778284
v -0.245083 0.753029 0.872339
v 0.000000 0.753029 0.872339
v 0.245083 0.753029 0.872339
v 0.490166 0.753029 0.872339
v -0.445326 1.532776 0.778284
v -0.245083 1.532776 0.872339
v 0.000000 1.532776 0.872339
v 0.245083 1.532776 0.872339
v 0.490166 1.532776 0.872339
v -0.445326 2.312523 0.778284
v -0.245083 2.312523 0.872339
v 0.000000 2.312523 0.872339
v 0.245083 2.312523 0.872339
v 0.490166 2.312523 0.872339
v -0.445326 2.881050 0.694465
v -0.245083 2.881050 0.778391
v 0.000000 2.881050 0.778391
v 0.245083 2.881050 0.778391
v 0.490166 2.881050 0.778391
v -0.490166 3.092271 0.436170
v -0.245083 3.092271 0.436170
v 0.000000 3.092271 0.436170
v 0.245083 3.092271 0.436170
v 0.490166 3.092271 0.436170
v -0.490166 3.092271 0.000000
v -0.245083 3.092271 0.000000
v 0.000000 3.092271 0.000000
v 0.245083 3.092271 0.000000
v 0.490166 3.092271 0.000000
v -0.490166 3.092271 -0.436170
v -0.245083 3.092271 -0.436170
v 0.000000 3.092271 -0.436170
v 0.245083 3.092271 -0.436170
v 0.490166 3.092271 -0.436170
v -0.445326 2.881050 -0.694465
v -0.245083 2.881050 -0.778391
v 0.000000 2.881050 -0.778391
v 0.245083 2.881050 -0.778391
v 0.490166 2.881050 -0.778391
v -0.445326 2.312523 -0.778284
v -0.245083 2.312523 -0.872339
v 0.000000 2.312523 -0.872339
v 0.245083 2.312523 -0.872339
v 0.490166 2.312523 -0.872339
v -0.445326 1.532776 -0.778284
v -0.245083 1.532776 -0.872339
v 0.000000 1.532776 -0.872339
v 0.245083 1.532776 -0.872339
v 0.490166 1.532776 -0.872339
v -0.445326 0.753029 -0.778284
v -0.245083 0.753029 -0.872339
v 0.000000 0.753029 -0.872339
v 0.245083 0.753029 -0.872339
v 0.490166 0.753029 -0.872339
v -0.445326 -0.026718 -0.778284
v -0.245083 -0.026718 -0.872339
v 0.000000 0.122866 -0.872339
v 0.245083 -0.026718 -0.872339
v 0.490166 -0.026718 -0.872339
v -0.490166 -0.026718 -0.436170
v -0.245083 -0.026718 -0.436170
v 0.000000 -0.026718 -0.436170
v 0.245083 -0.168565 -0.436170
v 0.490166 -0.168565 -0.436170
v -0.490166 0.122866 0.000000
v -0.245083 -0.026718 0.000000
v 0.000000 -0.026718 0.000000
v 0.245083 -0.089250 0.000000
v 0.490166 -0.089250 0.000000
v -0.490166 -0.026718 0.436170
v -0.245083 -0.026718 0.436170
v 0.000000 -0.026718 0.436170
v 0.245083 -0.168565 0.436170
v 0.490166 -0.168565 0.436170
v 0.490166 0.207146 -0.727598
v 0.490166 0.207146 0.000000
v 0.490166 0.207146 0.727598
v 0.490166 1.532776 -0.727598
v 0.490166 1.532776 0.727598
v 0.490166 2.858407 -0.727598
v 0.490166 2.858407 0.000000
v 0.490166 2.858407 0.727598
v -0.490166 0.753029 -0.436170
v -0.490166 0.753029 0.000000
v -0.490166 0.753029 0.436170
v -0.490166 1.532776 -0.436170
v -0.490166 1.532776 0.000000
v -0.490166 1.532776 0.436170
v -0.490166 2.312523 -0.436170
v -0.490166 2.312523 0.000000
v -0.490166 2.312523 0.436170
v -0.271383 0.128954 -0.674730
v -0.271383 0.128954 -0.000000
v -0.271383 1.532776 -0.674730
v -0.271383 1.532776 -0.000000
v -0.271383 0.128954 0.674729
v -0.271383 1.532776 0.674729
v -0.271383 2.792439 -0.674729
v -0.271383 2.792439 0.000000
v -0.271383 2.792439 0.674729
v -0.445326 -0.261304 -0.890028
v -0.245083 -0.261304 -0.928987
v -0.245083 -0.261304 -0.498794
v -0.490166 -0.261304 -0.498794
v 0.245083 -0.261304 -0.997587
v 0.490166 -0.261304 -0.997587
v 0.490166 -0.261304 -0.498794
v 0.245083 -0.261304 -0.498794
v -0.490166 -0.261304 0.498794
v -0.245083 -0.261304 0.498794
v -0.245083 -0.261304 0.928987
v -0.445326 -0.261304 0.890028
v 0.245083 -0.261304 0.498794
v 0.490166 -0.261304 0.498794
v 0.490166 -0.261304 0.997587
v 0.245083 -0.261304 0.997587
v 0.071461 2.346311 0.759480
v 0.062772 2.367289 0.759480
v 0.071461 2.388266 0.759480
v 0.092439 2.396956 0.759480
v 0.113417 2.388266 0.759480
v 0.122106 2.367289 0.759480
v 0.113417 2.346311 0.759480
v 0.092439 2.337621 0.759480
v 0.071461 2.346311 -0.759480
v 0.062772 2.367289 -0.759480
v 0.071461 2.388266 -0.759480
v 0.092439 2.396956 -0.759480
v 0.113417 2.388266 -0.759480
v 0.122106 2.367289 -0.759480
v 0.113417 2.346311 -0.759480
v 0.092439 2.337621 -0.759480
v 0.092439 2.367289 0.759480
v 0.092439 2.367289 -0.759480
vt 0.375000 0.000000
vt 0.437500 0.000000
vt 0.500000 0.000000
vt 0.562500 0.000000
vt 0.625000 0.000000
vt 0.375000 0.062500
vt 0.437500 0.062500
vt 0.500000 0.062500
vt 0.562500 0.062500
vt 0.625000 0.062500
vt 0.375000 0.125000
vt 0.437500 0.125000
vt 0.500000 0.125000
vt 0.562500 0.125000
vt 0.625000 0.125000
vt 0.375000 0.187500
vt 0.437500 0.187500
vt 0.500000 0.187500
vt 0.562500 0.187500
vt 0.625000 0.187500
vt 0.375000 0.250000
vt 0.437500 0.250000
vt 0.500000 0.250000
vt 0.562500 0.250000
vt 0.625000 0.250000
vt 0.375000 0.312500
vt 0.437500 0.312500
vt 0.500000 0.312500
vt 0.562500 0.312500
vt 0.625000 0.312500
vt 0.375000 0.375000
vt 0.437500 0.375000
vt 0.500000 0.375000
vt 0.562500 0.375000
vt 0.625000 0.375000
vt 0.375000 0.437500
vt 0.437500 0.437500
vt 0.500000 0.437500
vt 0.562500 0.437500
vt 0.625000 0.437500
vt 0.375000 0.500000
vt 0.437500 0.500000
vt 0.500000 0.500000
vt 0.562500 0.500000
vt 0.625000 0.500000
vt 0.375000 0.562500
vt 0.437500 0.562500
vt 0.500000 0.562500
vt 0.562500 0.562500
vt 0.625000 0.562500
vt 0.375000 0.625000
vt 0.437500 0.625000
vt 0.500000 0.625000
vt 0.562500 0.625000
vt 0.625000 0.625000
vt 0.375000 0.687500
vt 0.437500 0.687500
vt 0.500000 0.687500
vt 0.562500 0.687500
vt 0.625000 0.687500
vt 0.375000 0.750000
vt 0.437500 0.750000
vt 0.500000 0.750000
vt 0.562500 0.750000
vt 0.625000 0.750000
vt 0.375000 0.812500
vt 0.437500 0.812500
vt 0.500000 0.812500
vt 0.562500 0.812500
vt 0.625000 0.812500
vt 0.375000 0.875000
vt 0.437500 0.875000
vt 0.500000 0.875000
vt 0.562500 0.875000
vt 0.625000 0.875000
vt 0.375000 0.937500
vt 0.437500 0.937500
vt 0.500000 0.937500
vt 0.562500 0.937500
vt 0.625000 0.937500
vt 0.375000 1.000000
vt 0.437500 1.000000
vt 0.500000 1.000000
vt 0.562500 1.000000
vt 0.625000 1.000000
vt 0.875000 0.000000
vt 0.812500 0.000000
vt 0.750000 0.000000
vt 0.687500 0.000000
vt 0.875000 0.062500
vt 0.812500 0.062500
vt 0.750000 0.062500
vt 0.687500 0.062500
vt 0.875000 0.125000
vt 0.812500 0.125000
vt 0.750000 0.125000
vt 0.687500 0.125000
vt 0.875000 0.187500
vt 0.812500 0.187500
vt 0.750000 0.187500
vt 0.687500 0.187500
vt 0.875000 0.250000
vt 0.812500 0.250000
vt 0.750000 0.250000
vt 0.687500 0.250000
vt 0.125000 0.000000
vt 0.187500 0.000000
vt 0.250000 0.000000
vt 0.312500 0.000000
vt 0.125000 0.062500
vt 0.187500 0.062500
vt 0.250000 0.062500
vt 0.312500 0.062500
vt 0.125000 0.125000
vt 0.187500 0.125000
vt 0.250000 0.125000
vt 0.312500 0.125000
vt 0.125000 0.187500
vt 0.187500 0.187500
vt 0.250000 0.187500
vt 0.312500 0.187500
vt 0.125000 0.250000
vt 0.187500 0.250000
vt 0.250000 0.250000
vt 0.312500 0.250000
vt 0.750000 0.062500
vt 0.812500 0.062500
vt 0.812500 0.125000
vt 0.687500 0.062500
vt 0.687500 0.125000
vt 0.812500 0.187500
vt 0.750000 0.187500
vt 0.687500 0.187500
vt 0.375000 0.750000
vt 0.437500 0.750000
vt 0.437500 0.812500
vt 0.375000 0.812500
vt 0.562500 0.750000
vt 0.625000 0.750000
vt 0.625000 0.812500
vt 0.562500 0.812500
vt 0.375000 0.937500
vt 0.437500 0.937500
vt 0.437500 1.000000
vt 0.375000 1.000000
vt 0.562500 0.937500
vt 0.625000 0.937500
vt 0.625000 1.000000
vt 0.562500 1.000000
vt 0.375000 0.312500
vt 0.406250 0.312500
vt 0.406250 0.688440
vt 0.375000 0.688440
vt 0.437500 0.312500
vt 0.437500 0.688440
vt 0.468750 0.312500
vt 0.468750 0.688440
vt 0.500000 0.312500
vt 0.500000 0.688440
vt 0.531250 0.312500
vt 0.531250 0.688440
vt 0.562500 0.312500
vt 0.562500 0.688440
vt 0.593750 0.312500
vt 0.593750 0.688440
vt 0.625000 0.312500
vt 0.625000 0.688440
vt 0.500000 0.000000
vt 0.610485 0.045765
vt 0.500000 0.150000
vt 0.389515 0.045765
vt 0.343750 0.156250
vt 0.389515 0.266735
vt 0.500000 0.312500
vt 0.610485 0.266735
vt 0.656250 0.156250
vt 0.610485 0.954235
vt 0.500000 1.000000
vt 0.500000 0.837500
vt 0.389515 0.954235
vt 0.343750 0.843750
vt 0.389515 0.733265
vt 0.500000 0.687500
vt 0.610485 0.733265
vt 0.656250 0.843750
vn -0.882846 0.037847 0.468135
vn 0.168677 -0.251638 0.953009
vn -0.212000 0.000000 0.977270
vn -0.871800 0.000000 0.489863
vn -0.050238 -0.347202 0.936444
vn 0.000000 0.000000 1.000000
vn -0.368739 -0.197790 0.908246
vn 0.000000 0.000000 1.000000
vn 0.000000 0.122547 0.992463
vn 0.000000 0.000000 1.000000
vn -0.206646 0.000000 0.978416
vn -0.871800 0.000000 0.489863
vn 0.000000 0.000000 1.000000
vn 0.000000 0.000000 1.000000
vn 0.000000 0.000000 1.000000
vn -0.199826 0.065741 0.977624
vn -0.861405 0.030412 0.507007
vn 0.000000 0.069512 0.997581
vn 0.000000 0.069512 0.997581
vn 0.000000 0.069512 0.997581
vn -0.151354 0.450180 0.880017
vn -0.833646 0.239967 0.497444
vn 0.000000 0.488187 0.872739
vn 0.000000 0.488187 0.872739
vn 0.000000 0.488187 0.872739
vn -0.023518 0.964740 0.262152
vn -0.932303 0.340536 0.121843
vn 0.000000 0.965099 0.261886
vn 0.000000 0.965099 0.261886
vn 0.000000 0.965099 0.261886
vn 0.000000 1.000000 0.000000
vn -0.953987 0.299848 0.000000
vn 0.000000 1.000000 0.000000
vn 0.000000 1.000000 0.000000
vn 0.000000 1.000000 0.000000
vn -0.023518 0.964740 -0.262152
vn -0.932303 0.340536 -0.121843
vn 0.000000 0.965099 -0.261886
vn 0.000000 0.965099 -0.261886
vn 0.000000 0.965099 -0.261886
vn -0.151354 0.450180 -0.880017
vn -0.833646 0.239967 -0.497444
vn 0.000000 0.488187 -0.872739
vn 0.000000 0.488187 -0.872739
vn 0.000000 0.488187 -0.872739
vn -0.199826 0.065741 -0.977624
vn -0.861405 0.030412 -0.507007
vn 0.000000 0.069512 -0.997581
vn 0.000000 0.069512 -0.997581
vn 0.000000 0.069512 -0.997581
vn -0.206646 0.000000 -0.978416
vn -0.871800 0.000000 -0.489863
vn 0.000000 0.000000 -1.000000
vn 0.000000 0.000000 -1.000000
vn 0.000000 0.000000 -1.000000
vn -0.212000 0.000000 -0.977270
vn -0.871800 0.000000 -0.489863
vn 0.000000 0.000000 -1.000000
vn 0.000000 0.000000 -1.000000
vn 0.000000 0.000000 -1.000000
vn 0.168677 -0.251638 -0.953009
vn -0.882846 0.037847 -0.468135
vn -0.050238 -0.347202 -0.936444
vn -0.368739 -0.197790 -0.908246
vn 0.000000 0.122547 -0.992463
vn -0.156560 -0.867923 -0.471380
vn -0.190278 -0.797233 -0.572899
vn 0.000000 -1.000000 -0.000000
vn 0.000000 -1.000000 -0.000000
vn -0.182918 -0.977287 -0.107006
vn 0.241225 -0.956570 0.163659
vn -0.464184 -0.884150 0.053034
vn 0.000000 -1.000000 0.000000
vn 0.000000 -1.000000 0.000000
vn 0.000000 -1.000000 0.000000
vn 0.000000 -1.000000 0.000000
vn -0.980452 -0.189976 0.051209
vn -0.150839 -0.988558 0.000000
vn -0.972912 -0.231176 0.000000
vn -0.204091 -0.978952 0.000000
vn -0.206805 -0.978382 -0.000000
vn 0.945611 -0.307520 0.106076
vn 0.902780 -0.430103 0.000000
vn 0.241225 -0.956570 -0.163659
vn -0.980452 -0.189976 -0.051209
vn -0.182918 -0.977287 0.107006
vn -0.464184 -0.884150 -0.053034
vn 0.945611 -0.307520 -0.106076
vn 0.000000 -1.000000 0.000000
vn 0.000000 -1.000000 0.000000
vn 0.000000 -1.000000 0.000000
vn 0.000000 -1.000000 0.000000
vn 0.000000 -1.000000 0.000000
vn 0.000000 -1.000000 0.000000
vn 0.000000 -1.000000 0.000000
vn 0.000000 -1.000000 0.000000
vn 1.000000 0.000000 0.000000
vn 1.000000 0.000000 0.000000
vn 1.000000 0.000000 0.000000
vn 1.000000 0.000000 0.000000
vn 1.000000 -0.000000 0.000000
vn 1.000000 -0.000000 0.000000
vn 1.000000 -0.000000 0.000000
vn 1.000000 0.000000 0.000000
vn 1.000000 0.000000 0.000000
vn 1.000000 0.000000 0.000000
vn 1.000000 0.000000 0.000000
vn 1.000000 0.000000 0.000000
vn 1.000000 0.000000 0.000000
vn 1.000000 0.000000 0.000000
vn 1.000000 0.000000 0.000000
vn 1.000000 0.000000 0.000000
vn 1.000000 0.000000 0.000000
vn 1.000000 0.000000 0.000000
vn 1.000000 -0.000000 0.000000
vn 1.000000 0.000000 0.000000
vn 1.000000 0.000000 0.000000
vn 1.000000 0.000000 0.000000
vn 1.000000 0.000000 0.000000
vn 1.000000 0.000000 0.000000
vn 1.000000 0.000000 0.000000
vn 1.000000 -0.000000 0.000000
vn 1.000000 -0.000000 0.000000
vn 1.000000 -0.000000 0.000000
vn 1.000000 -0.000000 0.000000
vn 1.000000 0.000001 0.000000
vn -0.998252 0.000000 -0.059102
vn -1.000000 0.000000 0.000000
vn -0.998252 0.000000 0.059102
vn -0.998344 0.000000 -0.057519
vn -1.000000 0.000000 0.000000
vn -0.998344 0.000000 0.057519
vn -0.998382 0.001639 -0.056849
vn -1.000000 0.000000 0.000000
vn -0.998381 0.001639 0.056849
vn -0.102138 0.994770 0.000000
vn 0.020030 0.418759 0.907876
vn 0.009131 0.497538 0.867394
vn -0.102138 0.994770 0.000000
vn 0.069255 -0.000000 0.997599
vn 0.069255 -0.000000 0.997599
vn 0.020031 0.418759 -0.907876
vn 0.009132 0.497538 -0.867394
vn 0.069255 0.000000 -0.997599
vn 0.069255 0.000000 -0.997599
vn 0.101997 -0.478529 0.872128
vn 0.101608 -0.470524 0.876517
vn 0.086301 -0.996269 0.000000
vn 0.086301 -0.996269 0.000000
vn 0.101997 -0.478528 -0.872128
vn 0.101608 -0.470524 -0.876517
vn 1.000000 -0.000000 0.000000
vn 1.000000 -0.000000 0.000000
vn 0.000000 -0.257923 0.966165
vn 0.000000 -0.257923 0.966165
vn -0.991597 0.045067 -0.121262
vn -0.991597 0.045067 -0.121262
vn 0.000000 0.470985 -0.882141
vn 0.000000 0.470985 -0.882141
vn 1.000000 0.000000 0.000000
vn 1.000000 0.000000 0.000000
vn 0.000000 -0.559628 0.828744
vn 0.000000 -0.559628 0.828744
vn -1.000000 0.000000 0.000000
vn -1.000000 0.000000 0.000000
vn 0.000000 -0.257923 -0.966165
vn 0.000000 -0.257923 -0.966165
vn 1.000000 0.000000 0.000000
vn 1.000000 0.000000 0.000000
vn -0.298368 0.322426 0.898342
vn -0.298368 0.322426 0.898342
vn -0.991597 0.045067 0.121262
vn -0.991597 0.045067 0.121262
vn 0.000000 -0.559628 -0.828744
vn 0.000000 -0.559628 -0.828744
vn 1.000000 -0.000000 0.000000
vn 1.000000 -0.000000 0.000000
vn 0.000000 0.470985 0.882141
vn 0.000000 0.470985 0.882141
vn -1.000000 0.000000 0.000000
vn -1.000000 0.000000 0.000000
vn -0.707089 -0.707087 0.007324
vn -0.999973 0.000000 0.007324
vn -0.999973 0.000000 -0.007324
vn -0.707089 -0.707087 -0.007324
vn -0.707089 0.707087 0.007324
vn -0.707089 0.707087 -0.007324
vn 0.000000 0.999973 0.007324
vn 0.000000 0.999973 -0.007324
vn 0.707089 0.707087 0.007324
vn 0.707089 0.707087 -0.007324
vn 0.999973 0.000000 0.007324
vn 0.999973 0.000000 -0.007324
vn 0.707089 -0.707087 0.007324
vn 0.707089 -0.707087 -0.007324
vn 0.000000 -0.999973 0.007324
vn 0.000000 -0.999973 -0.007324
vn 0.000000 0.000000 1.000000
vn 0.000000 0.000000 -1.000000
f 1/1/1 2/2/2 7/7/3 6/6/4
f 2/2/2 3/3/5 8/8/6 7/7/3
f 3/3/5 4/4/7 9/9/8 8/8/6
f 4/4/7 5/5/9 10/10/10 9/9/8
f 6/6/4 7/7/3 12/12/11 11/11/12
f 7/7/3 8/8/6 13/13/13 12/12/11
f 8/8/6 9/9/8 14/14/14 13/13/13
f 9/9/8 10/10/10 15/15/15 14/14/14
f 11/11/12 12/12/11 17/17/16 16/16/17
f 12/12/11 13/13/13 18/18/18 17/17/16
f 13/13/13 14/14/14 19/19/19 18/18/18
f 14/14/14 15/15/15 20/20/20 19/19/19
f 16/16/17 17/17/16 22/22/21 21/21/22
f 17/17/16 18/18/18 23/23/23 22/22/21
f 18/18/18 19/19/19 24/24/24 23/23/23
f 19/19/19 20/20/20 25/25/25 24/24/24
f 21/21/22 22/22/21 27/27/26 26/26/27
f 22/22/21 23/23/23 28/28/28 27/27/26
f 23/23/23 24/24/24 29/29/29 28/28/28
f 24/24/24 25/25/25 30/30/30 29/29/29
f 26/26/27 27/27/26 32/32/31 31/31/32
f 27/27/26 28/28/28 33/33/33 32/32/31
f 28/28/28 29/29/29 34/34/34 33/33/33
f 29/29/29 30/30/30 35/35/35 34/34/34
f 31/31/32 32/32/31 37/37/36 36/36/37
f 32/32/31 33/33/33 38/38/38 37/37/36
f 33/33/33 34/34/34 39/39/39 38/38/38
f 34/34/34 35/35/35 40/40/40 39/39/39
f 36/36/37 37/37/36 42/42/41 41/41/42
f 37/37/36 38/38/38 43/43/43 42/42/41
f 38/38/38 39/39/39 44/44/44 43/43/43
f 39/39/39 40/40/40 45/45/45 44/44/44
f 41/41/42 42/42/41 47/47/46 46/46/47
f 42/42/41 43/43/43 48/48/48 47/47/46
f 43/43/43 44/44/44 49/49/49 48/48/48
f 44/44/44 45/45/45 50/50/50 49/49/49
f 46/46/47 47/47/46 52/52/51 51/51/52
f 47/47/46 48/48/48 53/53/53 52/52/51
f 48/48/48 49/49/49 54/54/54 53/53/53
f 49/49/49 50/50/50 55/55/55 54/54/54
f 51/51/52 52/52/51 57/57/56 56/56/57
f 52/52/51 53/53/53 58/58/58 57/57/56
f 53/53/53 54/54/54 59/59/59 58/58/58
f 54/54/54 55/55/55 60/60/60 59/59/59
f 56/56/57 57/57/56 62/62/61 61/61/62
f 57/57/56 58/58/58 63/63/63 62/62/61
f 58/58/58 59/59/59 64/64/64 63/63/63
f 59/59/59 60/60/60 65/65/65 64/64/64
f 107/134/66 108/135/67 109/136/68 110/137/69
f 62/62/61 63/63/63 68/68/70 67/67/71
f 63/63/63 64/64/64 69/69/72 68/68/70
f 111/138/73 112/139/74 113/140/75 114/141/76
f 66/66/77 67/67/71 72/72/78 71/71/79
f 67/67/71 68/68/70 73/73/80 72/72/78
f 68/68/70 69/69/72 74/74/81 73/73/80
f 69/69/72 70/70/82 75/75/83 74/74/81
f 71/71/79 72/72/78 77/77/84 76/76/85
f 72/72/78 73/73/80 78/78/86 77/77/84
f 73/73/80 74/74/81 79/79/87 78/78/86
f 74/74/81 75/75/83 80/80/88 79/79/87
f 115/142/89 116/143/90 117/144/91 118/145/92
f 77/77/84 78/78/86 3/83/5 2/82/2
f 78/78/86 79/79/87 4/84/7 3/83/5
f 119/146/93 120/147/94 121/148/95 122/149/96
f 70/87/82 65/86/97 60/90/98 81/91/99
f 75/88/83 70/87/82 81/91/99 82/92/100
f 80/89/88 75/88/83 82/92/100 83/93/101
f 5/5/102 80/89/88 83/93/101 10/10/103
f 81/91/99 60/90/98 55/94/104 84/95/105
f 99/126/106 98/127/107 100/128/108 101/96/109
f 102/129/110 99/126/106 101/96/109 103/130/111
f 10/10/103 83/93/101 85/97/112 15/15/113
f 84/95/105 55/94/104 50/98/114 86/99/115
f 101/96/109 100/128/108 104/131/116 105/132/117
f 103/130/111 101/96/109 105/132/117 106/133/118
f 15/15/113 85/97/112 88/101/119 20/20/120
f 86/99/115 50/98/114 45/102/121 40/103/122
f 87/100/123 86/99/115 40/103/122 35/104/124
f 88/101/119 87/100/123 35/104/124 30/105/125
f 20/20/120 88/101/119 30/105/125 25/25/126
f 61/106/62 66/107/77 89/111/127 56/110/57
f 66/107/77 71/108/79 90/112/128 89/111/127
f 71/108/79 76/109/85 91/113/129 90/112/128
f 76/109/85 1/1/1 6/6/4 91/113/129
f 56/110/57 89/111/127 92/115/130 51/114/52
f 89/111/127 90/112/128 93/116/131 92/115/130
f 90/112/128 91/113/129 94/117/132 93/116/131
f 91/113/129 6/6/4 11/11/12 94/117/132
f 51/114/52 92/115/130 95/119/133 46/118/47
f 92/115/130 93/116/131 96/120/134 95/119/133
f 93/116/131 94/117/132 97/121/135 96/120/134
f 94/117/132 11/11/12 16/16/17 97/121/135
f 46/118/47 95/119/133 36/123/37 41/122/42
f 95/119/133 96/120/134 31/124/32 36/123/37
f 96/120/134 97/121/135 26/125/27 31/124/32
f 97/121/135 16/16/17 21/21/22 26/125/27
f 82/92/136 81/91/137 98/127/138 99/126/139
f 81/91/137 84/95/140 100/128/141 98/127/138
f 83/93/142 82/92/136 99/126/139 102/129/143
f 85/97/144 83/93/142 102/129/143 103/130/145
f 84/95/140 86/99/146 104/131/147 100/128/141
f 86/99/146 87/100/148 105/132/149 104/131/147
f 87/100/148 88/101/150 106/133/151 105/132/149
f 88/101/150 85/97/144 103/130/145 106/133/151
f 61/61/62 62/62/61 108/135/67 107/134/66
f 62/62/61 67/67/71 109/136/152 108/135/153
f 67/67/71 66/66/77 110/137/154 109/136/155
f 66/66/77 61/61/62 107/134/156 110/137/157
f 64/64/64 65/65/65 112/139/158 111/138/159
f 65/65/97 70/70/82 113/140/160 112/139/161
f 70/70/82 69/69/72 114/141/162 113/140/163
f 69/69/72 64/64/64 111/138/164 114/141/165
f 76/76/85 77/77/84 116/143/166 115/142/167
f 77/77/84 2/82/2 117/144/168 116/143/169
f 2/82/2 1/81/1 118/145/170 117/144/171
f 1/81/1 76/76/85 115/142/172 118/145/173
f 79/79/87 80/80/88 120/147/174 119/146/175
f 80/80/88 5/85/102 121/148/176 120/147/177
f 5/85/9 4/84/7 122/149/178 121/148/179
f 4/84/7 79/79/87 119/146/180 122/149/181
f 123/150/182 124/151/183 132/152/184 131/153/185
f 124/151/183 125/154/186 133/155/187 132/152/184
f 125/154/186 126/156/188 134/157/189 133/155/187
f 126/156/188 127/158/190 135/159/191 134/157/189
f 127/158/190 128/160/192 136/161/193 135/159/191
f 128/160/192 129/162/194 137/163/195 136/161/193
f 129/162/194 130/164/196 138/165/197 137/163/195
f 130/164/196 123/166/182 131/167/185 138/165/197
f 124/168/183 123/169/182 139/170/198
f 125/171/186 124/168/183 139/170/198
f 126/172/188 125/171/186 139/170/198
f 127/173/190 126/172/188 139/170/198
f 128/174/192 127/173/190 139/170/198
f 129/175/194 128/174/192 139/170/198
f 130/176/196 129/175/194 139/170/198
f 123/169/182 130/176/196 139/170/198
f 131/177/185 132/178/184 140/179/199
f 132/178/184 133/180/187 140/179/199
f 133/180/187 134/181/189 140/179/199
f 134/181/189 135/182/191 140/179/199
f 135/182/191 136/183/193 140/179/199
f 136/183/193 137/184/195 140/179/199
f 137/184/195 138/185/197 140/179/199
f 138/185/197 131/177/185 140/179/199
