# This file uses centimeters as units for non-parametric coordinates.

mtllib JackBoxHandle.mtl
g default
v 0.083083 0.826637 -1.024299
v 0.031735 0.863927 -1.023193
v -0.031735 0.863927 -1.023193
v -0.083083 0.826636 -1.024299
v -0.102696 0.766300 -1.026089
v -0.083083 0.705964 -1.027878
v -0.031735 0.668673 -1.028984
v 0.031735 0.668673 -1.028984
v 0.083083 0.705964 -1.027878
v 0.102696 0.766300 -1.026089
v 0.083083 0.060363 0.720182
v 0.031735 0.097669 0.720182
v -0.031735 0.097669 0.720182
v -0.083083 0.060363 0.720182
v -0.102696 -0.000000 0.720182
v -0.083083 -0.060363 0.720182
v -0.031735 -0.097669 0.720182
v 0.031735 -0.097669 0.720182
v 0.083083 -0.060363 0.720182
v 0.102696 0.000000 0.720182
v -0.000000 0.766300 -1.026089
v 0.000000 0.000000 0.720182
v 0.083083 0.060363 0.097091
v 0.031735 0.097669 0.097091
v -0.031735 0.097669 0.097091
v -0.083083 0.060363 0.097091
v -0.102696 -0.000000 0.097091
v -0.083083 -0.060363 0.097091
v -0.031735 -0.097669 0.097091
v 0.031735 -0.097669 0.097091
v 0.083083 -0.060363 0.097091
v 0.102696 0.000000 0.097091
v 0.083083 0.112494 -0.020543
v 0.031735 0.125704 0.014347
v -0.031735 0.125704 0.014347
v -0.083083 0.112494 -0.020543
v -0.102696 0.091120 -0.076995
v -0.083083 0.069746 -0.133447
v -0.031735 0.056536 -0.168336
v 0.031735 0.056536 -0.168336
v 0.083083 0.069746 -0.133447
v 0.102696 0.091120 -0.076995
v 0.083083 0.208029 -0.047560
v 0.031735 0.208688 -0.010259
v -0.031735 0.208688 -0.010260
v -0.083083 0.208029 -0.047560
v -0.102696 0.206962 -0.107914
v -0.083083 0.205896 -0.168267
v -0.031735 0.205237 -0.205568
v 0.031735 0.205237 -0.205568
v 0.083083 0.205896 -0.168267
v 0.102696 0.206962 -0.107914
v 0.083083 0.079734 0.014408
v 0.102696 0.030722 -0.020826
v 0.083083 -0.018291 -0.056061
v 0.031735 -0.048582 -0.077837
v -0.031735 -0.048582 -0.077837
v -0.083083 -0.018291 -0.056061
v -0.102696 0.030722 -0.020826
v -0.083083 0.079734 0.014408
v -0.031735 0.110025 0.036185
v 0.031735 0.110025 0.036185
v 0.083083 0.161666 -0.046741
v 0.102696 0.160599 -0.107094
v 0.083083 0.159533 -0.167448
v 0.031735 0.158874 -0.204749
v -0.031735 0.158874 -0.204749
v -0.083083 0.159533 -0.167448
v -0.102696 0.160599 -0.107094
v -0.083083 0.161666 -0.046741
v -0.031735 0.162325 -0.009440
v 0.031735 0.162325 -0.009440
v 0.083083 0.539298 -0.050612
v 0.031735 0.539957 -0.013311
v -0.031735 0.539957 -0.013311
v -0.083083 0.539298 -0.050612
v -0.102696 0.538232 -0.110965
v -0.083083 0.537165 -0.171319
v -0.031735 0.536506 -0.208620
v 0.031735 0.536506 -0.208620
v 0.083083 0.537165 -0.171319
v 0.102696 0.538232 -0.110965
v 0.083083 0.696811 -0.089384
v 0.031735 0.718110 -0.058756
v -0.031735 0.718110 -0.058756
v -0.083083 0.696811 -0.089384
v -0.102696 0.662348 -0.138943
v -0.083083 0.627886 -0.188501
v -0.031735 0.606587 -0.219129
v 0.031735 0.606587 -0.219129
v 0.083083 0.627886 -0.188501
v 0.102696 0.662348 -0.138943
v 0.083083 0.784912 -0.205372
v 0.031735 0.818758 -0.189680
v -0.031735 0.818758 -0.189680
v -0.083083 0.784912 -0.205372
v -0.102696 0.730148 -0.230761
v -0.083083 0.675384 -0.256150
v -0.031735 0.641538 -0.271842
v 0.031735 0.641538 -0.271842
v 0.083083 0.675384 -0.256150
v 0.102696 0.730148 -0.230761
v 0.083083 0.798618 -0.289327
v 0.031735 0.835908 -0.288221
v -0.031735 0.835908 -0.288221
v -0.083083 0.798618 -0.289327
v -0.102696 0.738282 -0.291117
v -0.083083 0.677945 -0.292906
v -0.031735 0.640655 -0.294012
v 0.031735 0.640655 -0.294012
v 0.083083 0.677945 -0.292906
v 0.102696 0.738282 -0.291117
vt 0.419519 0.135143
vt 0.324277 0.065946
vt 0.206551 0.065946
vt 0.111309 0.135143
vt 0.074930 0.247107
vt 0.111309 0.359071
vt 0.206551 0.428268
vt 0.324277 0.428268
vt 0.419519 0.359071
vt 0.455898 0.247107
vt 0.489976 0.177246
vt 0.536516 0.177246
vt 0.583056 0.177246
vt 0.629596 0.177246
vt 0.676135 0.177246
vt 0.722675 0.177246
vt 0.769215 0.177246
vt 0.815754 0.177246
vt 0.862294 0.177246
vt 0.908834 0.177246
vt 0.955373 0.177246
vt 0.489976 0.877092
vt 0.536516 0.877092
vt 0.583056 0.877092
vt 0.629596 0.877092
vt 0.676135 0.877092
vt 0.722675 0.877092
vt 0.769215 0.877092
vt 0.815754 0.877092
vt 0.862294 0.877092
vt 0.908834 0.877092
vt 0.955373 0.877092
vt 0.406679 0.593707
vt 0.314574 0.526789
vt 0.200726 0.526789
vt 0.108621 0.593707
vt 0.073440 0.701983
vt 0.108621 0.810259
vt 0.200726 0.877177
vt 0.314574 0.877177
vt 0.406679 0.810259
vt 0.441860 0.701983
vt 0.265414 0.239488
vt 0.257650 0.694615
vt 0.955373 0.574344
vt 0.489976 0.574344
vt 0.536516 0.574344
vt 0.583056 0.574344
vt 0.629596 0.574344
vt 0.676135 0.574344
vt 0.722675 0.574344
vt 0.769215 0.574344
vt 0.815754 0.574344
vt 0.862294 0.574344
vt 0.908834 0.574344
vt 0.955373 0.529616
vt 0.489976 0.529616
vt 0.536516 0.529616
vt 0.583056 0.529616
vt 0.629596 0.529616
vt 0.676135 0.529616
vt 0.722675 0.529616
vt 0.769215 0.529616
vt 0.815754 0.529616
vt 0.862294 0.529616
vt 0.908834 0.529616
vt 0.955373 0.489327
vt 0.489976 0.489327
vt 0.536516 0.489327
vt 0.583056 0.489327
vt 0.629596 0.489327
vt 0.676135 0.489327
vt 0.722675 0.489327
vt 0.769215 0.489327
vt 0.815754 0.489327
vt 0.862294 0.489327
vt 0.908834 0.489327
vt 0.955373 0.552314
vt 0.489976 0.552314
vt 0.908834 0.552314
vt 0.862294 0.552314
vt 0.815754 0.552314
vt 0.769215 0.552314
vt 0.722675 0.552314
vt 0.676135 0.552314
vt 0.629596 0.552314
vt 0.583056 0.552314
vt 0.536516 0.552314
vt 0.955373 0.511858
vt 0.489976 0.511858
vt 0.908834 0.511858
vt 0.862294 0.511858
vt 0.815754 0.511858
vt 0.769215 0.511858
vt 0.722675 0.511858
vt 0.676135 0.511858
vt 0.629596 0.511858
vt 0.583056 0.511858
vt 0.536516 0.511858
vt 0.955373 0.405384
vt 0.489976 0.405384
vt 0.536516 0.405384
vt 0.583056 0.405384
vt 0.629596 0.405384
vt 0.676135 0.405384
vt 0.722675 0.405384
vt 0.769215 0.405384
vt 0.815754 0.405384
vt 0.862294 0.405384
vt 0.908834 0.405384
vt 0.955373 0.392695
vt 0.489976 0.392695
vt 0.536516 0.392695
vt 0.583056 0.392695
vt 0.629596 0.392695
vt 0.676135 0.392695
vt 0.722675 0.392695
vt 0.769215 0.392695
vt 0.815754 0.392695
vt 0.862294 0.392695
vt 0.908834 0.392695
vt 0.955373 0.378940
vt 0.489976 0.378940
vt 0.536516 0.378940
vt 0.583056 0.378940
vt 0.629596 0.378940
vt 0.676135 0.378940
vt 0.722675 0.378940
vt 0.769215 0.378940
vt 0.815754 0.378940
vt 0.862294 0.378940
vt 0.908834 0.378940
vt 0.955373 0.363614
vt 0.489976 0.363614
vt 0.536516 0.363614
vt 0.583056 0.363614
vt 0.629596 0.363614
vt 0.676135 0.363614
vt 0.722675 0.363614
vt 0.769215 0.363614
vt 0.815754 0.363614
vt 0.862294 0.363614
vt 0.908834 0.363614
vn 0.586928 0.809539 0.012733
vn 0.586119 0.809880 0.023614
vn 0.587785 0.809017 -0.000000
vn 0.587785 0.809017 -0.000000
vn -0.000000 0.999837 0.018061
vn -0.000000 0.999837 0.018061
vn -0.000000 1.000000 -0.000000
vn -0.000000 1.000000 -0.000000
vn -0.586120 0.809880 0.023614
vn -0.586928 0.809539 0.012733
vn -0.587785 0.809017 -0.000000
vn -0.587785 0.809017 -0.000000
vn -0.950540 0.310195 0.015893
vn -0.950939 0.309348 0.004362
vn -0.951057 0.309017 -0.000000
vn -0.951057 0.309017 -0.000000
vn -0.950457 -0.310091 -0.021779
vn -0.950936 -0.309329 -0.006036
vn -0.951057 -0.309017 0.000000
vn -0.951057 -0.309017 0.000000
vn -0.585461 -0.808558 -0.058891
vn -0.586743 -0.809109 -0.032801
vn -0.587785 -0.809017 0.000000
vn -0.587785 -0.809017 0.000000
vn 0.000000 -0.998114 -0.061395
vn 0.000000 -0.998114 -0.061395
vn 0.000000 -1.000000 0.000000
vn 0.000000 -1.000000 0.000000
vn 0.586743 -0.809108 -0.032801
vn 0.585462 -0.808558 -0.058891
vn 0.587785 -0.809017 0.000000
vn 0.587785 -0.809017 0.000000
vn 0.950936 -0.309329 -0.006036
vn 0.950457 -0.310091 -0.021779
vn 0.951057 -0.309017 0.000000
vn 0.951057 -0.309017 0.000000
vn 0.950939 0.309348 0.004362
vn 0.950540 0.310194 0.015893
vn 0.951057 0.309017 -0.000000
vn 0.951057 0.309017 -0.000000
vn -0.000001 0.029647 -0.999560
vn -0.000000 0.029648 -0.999560
vn -0.000001 0.029646 -0.999560
vn -0.000001 0.029648 -0.999560
vn -0.000002 0.029648 -0.999560
vn -0.000001 0.029645 -0.999560
vn 0.000000 0.029642 -0.999561
vn -0.000000 0.029643 -0.999561
vn -0.000000 0.029643 -0.999561
vn -0.000000 0.029646 -0.999560
vn -0.000000 0.029649 -0.999560
vn 0.000000 -0.000000 1.000000
vn 0.000000 -0.000000 1.000000
vn 0.000000 -0.000000 1.000000
vn 0.000000 -0.000000 1.000000
vn 0.000000 0.000000 1.000000
vn 0.000000 0.000000 1.000000
vn 0.000000 0.000000 1.000000
vn 0.000000 0.000000 1.000000
vn 0.000000 0.000000 1.000000
vn 0.000000 0.000000 1.000000
vn 0.000000 0.000000 1.000000
vn 0.566601 0.529472 0.631366
vn 0.565736 0.497575 0.657543
vn 0.576496 0.736297 0.354287
vn 0.573791 0.777638 0.256989
vn -0.000000 0.657385 0.753555
vn -0.000000 0.657385 0.753555
vn -0.000000 0.947117 0.320889
vn -0.000000 0.947117 0.320889
vn -0.565735 0.497575 0.657543
vn -0.566601 0.529472 0.631366
vn -0.573791 0.777638 0.256989
vn -0.576496 0.736297 0.354287
vn -0.947542 0.161687 0.275720
vn -0.947376 0.203397 0.247200
vn -0.947522 0.305488 0.094226
vn -0.949343 0.253623 0.185536
vn -0.948772 -0.147339 -0.279504
vn -0.948006 -0.193293 -0.252830
vn -0.947901 -0.301918 -0.101632
vn -0.949675 -0.242105 -0.198753
vn -0.580238 -0.408648 -0.704508
vn -0.578792 -0.447867 -0.681480
vn -0.582364 -0.738064 -0.340755
vn -0.585753 -0.663285 -0.465775
vn 0.000000 -0.521847 -0.853039
vn 0.000000 -0.521847 -0.853039
vn 0.000000 -0.864667 -0.502346
vn 0.000000 -0.864667 -0.502346
vn 0.578793 -0.447867 -0.681480
vn 0.580238 -0.408648 -0.704508
vn 0.585754 -0.663285 -0.465775
vn 0.582364 -0.738064 -0.340755
vn 0.948006 -0.193292 -0.252831
vn 0.948772 -0.147339 -0.279504
vn 0.949675 -0.242105 -0.198753
vn 0.947901 -0.301918 -0.101633
vn 0.947376 0.203397 0.247200
vn 0.947542 0.161687 0.275720
vn 0.949343 0.253623 0.185536
vn 0.947522 0.305488 0.094226
vn 0.587775 0.008304 0.808982
vn 0.587775 0.008281 0.808982
vn 0.586211 0.224047 0.778563
vn 0.586053 0.226216 0.778054
vn -0.000000 0.010250 0.999947
vn -0.000000 0.010250 0.999947
vn -0.000000 0.284282 0.958741
vn -0.000000 0.284282 0.958741
vn -0.587775 0.008281 0.808982
vn -0.587775 0.008304 0.808982
vn -0.586053 0.226216 0.778054
vn -0.586211 0.224047 0.778563
vn -0.951054 0.003150 0.309008
vn -0.951054 0.003185 0.309008
vn -0.950501 0.083610 0.299262
vn -0.950628 0.080686 0.299660
vn -0.951054 -0.003150 -0.309009
vn -0.951054 -0.003186 -0.309008
vn -0.950411 -0.079735 -0.300602
vn -0.950519 -0.077240 -0.300911
vn -0.587775 -0.008281 -0.808982
vn -0.587775 -0.008304 -0.808982
vn -0.584963 -0.199611 -0.786113
vn -0.585067 -0.198161 -0.786403
vn 0.000000 -0.010250 -0.999947
vn 0.000000 -0.010250 -0.999947
vn 0.000000 -0.242881 -0.970056
vn 0.000000 -0.242881 -0.970056
vn 0.587775 -0.008304 -0.808982
vn 0.587775 -0.008281 -0.808982
vn 0.585067 -0.198161 -0.786403
vn 0.584964 -0.199611 -0.786113
vn 0.951054 -0.003186 -0.309008
vn 0.951054 -0.003150 -0.309009
vn 0.950519 -0.077240 -0.300911
vn 0.950411 -0.079735 -0.300602
vn 0.951054 0.003185 0.309008
vn 0.951054 0.003150 0.309008
vn 0.950628 0.080686 0.299660
vn 0.950501 0.083610 0.299262
vn 0.584221 0.072539 0.808346
vn 0.584132 0.073741 0.808302
vn -0.000000 0.094770 0.995499
vn -0.000000 0.094770 0.995499
vn -0.584132 0.073741 0.808302
vn -0.584221 0.072539 0.808347
vn -0.950203 0.024782 0.310645
vn -0.950281 0.023162 0.310530
vn -0.950240 -0.018812 -0.310950
vn -0.950315 -0.017522 -0.310796
vn -0.584490 -0.033577 -0.810706
vn -0.584571 -0.032970 -0.810673
vn 0.000000 -0.033771 -0.999430
vn 0.000000 -0.033771 -0.999430
vn 0.584571 -0.032970 -0.810673
vn 0.584490 -0.033577 -0.810706
vn 0.950315 -0.017522 -0.310796
vn 0.950240 -0.018812 -0.310950
vn 0.950281 0.023162 0.310530
vn 0.950203 0.024782 0.310645
vn 0.591495 0.373098 0.714795
vn 0.593516 0.486310 0.641281
vn -0.000001 0.534609 0.845099
vn -0.000001 0.534609 0.845099
vn -0.593515 0.486311 0.641281
vn -0.591495 0.373098 0.714795
vn -0.950986 0.220775 0.216525
vn -0.950134 0.107598 0.292692
vn -0.951305 -0.222251 -0.213595
vn -0.950368 -0.102036 -0.293920
vn -0.600500 -0.484015 -0.636498
vn -0.597555 -0.347491 -0.722619
vn 0.000000 -0.515713 -0.856762
vn 0.000000 -0.515713 -0.856762
vn 0.597555 -0.347491 -0.722619
vn 0.600500 -0.484015 -0.636498
vn 0.950368 -0.102036 -0.293920
vn 0.951305 -0.222251 -0.213594
vn 0.950134 0.107598 0.292692
vn 0.950986 0.220776 0.216525
vn 0.583492 0.698607 0.414108
vn 0.587993 0.748025 0.307772
vn -0.000001 0.889624 0.456694
vn -0.000001 0.889624 0.456694
vn -0.587992 0.748025 0.307773
vn -0.583491 0.698608 0.414108
vn -0.950650 0.299036 0.082715
vn -0.949355 0.265190 0.168521
vn -0.950700 -0.300341 -0.077230
vn -0.949534 -0.269872 -0.159858
vn -0.587613 -0.756162 -0.287976
vn -0.584035 -0.727109 -0.360854
vn 0.000000 -0.910225 -0.414115
vn 0.000000 -0.910225 -0.414115
vn 0.584035 -0.727109 -0.360854
vn 0.587612 -0.756162 -0.287977
vn 0.949534 -0.269872 -0.159858
vn 0.950700 -0.300340 -0.077230
vn 0.949355 0.265191 0.168521
vn 0.950650 0.299036 0.082715
vn 0.586876 0.808326 0.046746
vn 0.587353 0.808410 0.038607
vn -0.000001 0.998535 0.054112
vn -0.000001 0.998535 0.054112
vn -0.587353 0.808410 0.038607
vn -0.586876 0.808326 0.046746
vn -0.950988 0.308945 0.013187
vn -0.950811 0.309313 0.016845
vn -0.950983 -0.308992 -0.012457
vn -0.950843 -0.309365 -0.013809
vn -0.587311 -0.808783 -0.030601
vn -0.587177 -0.808882 -0.030538
vn 0.000000 -0.999358 -0.035816
vn 0.000000 -0.999358 -0.035816
vn 0.587177 -0.808882 -0.030538
vn 0.587311 -0.808783 -0.030601
vn 0.950843 -0.309365 -0.013809
vn 0.950983 -0.308993 -0.012457
vn 0.950811 0.309313 0.016845
vn 0.950988 0.308945 0.013187
vn 0.587773 0.808439 0.030819
vn 0.587773 0.808439 0.030819
vn -0.000002 0.999274 0.038094
vn -0.000002 0.999274 0.038094
vn -0.587773 0.808439 0.030819
vn -0.587773 0.808439 0.030819
vn -0.951053 0.308802 0.011772
vn -0.951053 0.308802 0.011772
vn -0.951053 -0.308804 -0.011772
vn -0.951053 -0.308804 -0.011772
vn -0.587773 -0.808439 -0.030819
vn -0.587773 -0.808439 -0.030819
vn 0.000000 -0.999274 -0.038094
vn 0.000000 -0.999274 -0.038094
vn 0.587773 -0.808439 -0.030819
vn 0.587773 -0.808438 -0.030819
vn 0.951053 -0.308804 -0.011772
vn 0.951053 -0.308804 -0.011772
vn 0.951054 0.308802 0.011772
vn 0.951054 0.308802 0.011772
s 1
g Handle
usemtl initialShadingGroup
f 23/46/1 24/47/2 12/23/3 11/22/4
s 2
f 24/47/5 25/48/6 13/24/7 12/23/8
s 3
f 25/48/9 26/49/10 14/25/11 13/24/12
s 4
f 26/49/13 27/50/14 15/26/15 14/25/16
s 5
f 27/50/17 28/51/18 16/27/19 15/26/20
s 6
f 28/51/21 29/52/22 17/28/23 16/27/24
s 7
f 29/52/25 30/53/26 18/29/27 17/28/28
s 8
f 30/53/29 31/54/30 19/30/31 18/29/32
s 9
f 31/54/33 32/55/34 20/31/35 19/30/36
s 10
f 32/55/37 23/45/38 11/32/39 20/31/40
s 11
f 3/3/41 2/2/42 21/43/43 4/4/44
f 5/5/45 4/4/44 21/43/43 6/6/46
f 7/7/47 6/6/46 21/43/43 8/8/48
f 9/9/49 8/8/48 21/43/43 10/10/50
f 1/1/51 10/10/50 21/43/43 2/2/42
s 12
f 22/44/52 11/41/53 12/40/54 13/39/55
f 22/44/52 13/39/55 14/38/56 15/37/57
f 22/44/52 15/37/57 16/36/58 17/35/59
f 22/44/52 17/35/59 18/34/60 19/33/61
f 22/44/52 19/33/61 20/42/62 11/41/53
s 1
f 33/57/63 34/58/64 62/88/65 53/79/66
s 2
f 34/58/67 35/59/68 61/87/69 62/88/70
s 3
f 35/59/71 36/60/72 60/86/73 61/87/74
s 4
f 36/60/75 37/61/76 59/85/77 60/86/78
s 5
f 37/61/79 38/62/80 58/84/81 59/85/82
s 6
f 38/62/83 39/63/84 57/83/85 58/84/86
s 7
f 39/63/87 40/64/88 56/82/89 57/83/90
s 8
f 40/64/91 41/65/92 55/81/93 56/82/94
s 9
f 41/65/95 42/66/96 54/80/97 55/81/98
s 10
f 42/66/99 33/56/100 53/78/101 54/80/102
s 1
f 43/68/103 44/69/104 72/99/105 63/90/106
s 2
f 44/69/107 45/70/108 71/98/109 72/99/110
s 3
f 45/70/111 46/71/112 70/97/113 71/98/114
s 4
f 46/71/115 47/72/116 69/96/117 70/97/118
s 5
f 47/72/119 48/73/120 68/95/121 69/96/122
s 6
f 48/73/123 49/74/124 67/94/125 68/95/126
s 7
f 49/74/127 50/75/128 66/93/129 67/94/130
s 8
f 50/75/131 51/76/132 65/92/133 66/93/134
s 9
f 51/76/135 52/77/136 64/91/137 65/92/138
s 10
f 52/77/139 43/67/140 63/89/141 64/91/142
s 1
f 73/101/143 74/102/144 44/69/104 43/68/103
s 2
f 74/102/145 75/103/146 45/70/108 44/69/107
s 3
f 75/103/147 76/104/148 46/71/112 45/70/111
s 4
f 76/104/149 77/105/150 47/72/116 46/71/115
s 5
f 77/105/151 78/106/152 48/73/120 47/72/119
s 6
f 78/106/153 79/107/154 49/74/124 48/73/123
s 7
f 79/107/155 80/108/156 50/75/128 49/74/127
s 8
f 80/108/157 81/109/158 51/76/132 50/75/131
s 9
f 81/109/159 82/110/160 52/77/136 51/76/135
s 10
f 82/110/161 73/100/162 43/67/140 52/77/139
f 54/80/102 53/78/101 23/45/38 32/55/37
s 9
f 55/81/98 54/80/97 32/55/34 31/54/33
s 8
f 56/82/94 55/81/93 31/54/30 30/53/29
s 7
f 57/83/90 56/82/89 30/53/26 29/52/25
s 6
f 58/84/86 57/83/85 29/52/22 28/51/21
s 5
f 59/85/82 58/84/81 28/51/18 27/50/17
s 4
f 60/86/78 59/85/77 27/50/14 26/49/13
s 3
f 61/87/74 60/86/73 26/49/10 25/48/9
s 2
f 62/88/70 61/87/69 25/48/6 24/47/5
s 1
f 53/79/66 62/88/65 24/47/2 23/46/1
s 10
f 64/91/142 63/89/141 33/56/100 42/66/99
s 9
f 65/92/138 64/91/137 42/66/96 41/65/95
s 8
f 66/93/134 65/92/133 41/65/92 40/64/91
s 7
f 67/94/130 66/93/129 40/64/88 39/63/87
s 6
f 68/95/126 67/94/125 39/63/84 38/62/83
s 5
f 69/96/122 68/95/121 38/62/80 37/61/79
s 4
f 70/97/118 69/96/117 37/61/76 36/60/75
s 3
f 71/98/114 70/97/113 36/60/72 35/59/71
s 2
f 72/99/110 71/98/109 35/59/68 34/58/67
s 1
f 63/90/106 72/99/105 34/58/64 33/57/63
f 83/112/163 84/113/164 74/102/144 73/101/143
s 2
f 84/113/165 85/114/166 75/103/146 74/102/145
s 3
f 85/114/167 86/115/168 76/104/148 75/103/147
s 4
f 86/115/169 87/116/170 77/105/150 76/104/149
s 5
f 87/116/171 88/117/172 78/106/152 77/105/151
s 6
f 88/117/173 89/118/174 79/107/154 78/106/153
s 7
f 89/118/175 90/119/176 80/108/156 79/107/155
s 8
f 90/119/177 91/120/178 81/109/158 80/108/157
s 9
f 91/120/179 92/121/180 82/110/160 81/109/159
s 10
f 92/121/181 83/111/182 73/100/162 82/110/161
s 1
f 93/123/183 94/124/184 84/113/164 83/112/163
s 2
f 94/124/185 95/125/186 85/114/166 84/113/165
s 3
f 95/125/187 96/126/188 86/115/168 85/114/167
s 4
f 96/126/189 97/127/190 87/116/170 86/115/169
s 5
f 97/127/191 98/128/192 88/117/172 87/116/171
s 6
f 98/128/193 99/129/194 89/118/174 88/117/173
s 7
f 99/129/195 100/130/196 90/119/176 89/118/175
s 8
f 100/130/197 101/131/198 91/120/178 90/119/177
s 9
f 101/131/199 102/132/200 92/121/180 91/120/179
s 10
f 102/132/201 93/122/202 83/111/182 92/121/181
s 1
f 103/134/203 104/135/204 94/124/184 93/123/183
s 2
f 104/135/205 105/136/206 95/125/186 94/124/185
s 3
f 105/136/207 106/137/208 96/126/188 95/125/187
s 4
f 106/137/209 107/138/210 97/127/190 96/126/189
s 5
f 107/138/211 108/139/212 98/128/192 97/127/191
s 6
f 108/139/213 109/140/214 99/129/194 98/128/193
s 7
f 109/140/215 110/141/216 100/130/196 99/129/195
s 8
f 110/141/217 111/142/218 101/131/198 100/130/197
s 9
f 111/142/219 112/143/220 102/132/200 101/131/199
s 10
f 112/143/221 103/133/222 93/122/202 102/132/201
s 1
f 1/11/223 2/12/224 104/135/204 103/134/203
s 2
f 2/12/225 3/13/226 105/136/206 104/135/205
s 3
f 3/13/227 4/14/228 106/137/208 105/136/207
s 4
f 4/14/229 5/15/230 107/138/210 106/137/209
s 5
f 5/15/231 6/16/232 108/139/212 107/138/211
s 6
f 6/16/233 7/17/234 109/140/214 108/139/213
s 7
f 7/17/235 8/18/236 110/141/216 109/140/215
s 8
f 8/18/237 9/19/238 111/142/218 110/141/217
s 9
f 9/19/239 10/20/240 112/143/220 111/142/219
s 10
f 10/20/241 1/21/242 103/133/222 112/143/221
