# This file uses centimeters as units for non-parametric coordinates.

mtllib Candle.mtl
g default
v -0.094672 0.047918 0.094672
v 0.094672 0.047918 0.094672
v -0.059172 0.805291 0.059172
v 0.059172 0.805291 0.059172
v -0.059172 0.805291 -0.059172
v 0.059172 0.805291 -0.059172
v -0.094672 0.047918 -0.094672
v 0.094672 0.047918 -0.094672
v 0.078190 0.805291 0.000000
v -0.078190 0.805291 0.000000
v -0.125100 0.047918 0.000000
v 0.125100 0.047918 0.000000
v 0.000000 0.805291 -0.078190
v 0.000000 0.047918 -0.125100
v 0.000000 0.047918 0.000000
v 0.000000 0.047918 0.125100
v 0.000000 0.805291 0.078190
v 0.000000 0.805291 0.000000
v 0.078190 0.739805 0.000000
v 0.059172 0.739805 0.059172
v 0.000000 0.739805 0.078190
v -0.059172 0.739805 0.059172
v -0.078190 0.739805 0.000000
v -0.059172 0.739805 -0.059172
v 0.000000 0.739805 -0.078190
v 0.059172 0.739805 -0.059172
v 0.046916 0.683726 0.000000
v 0.035504 0.683726 0.035504
v 0.000000 0.683726 0.046916
v -0.035504 0.683726 0.035504
v -0.046916 0.683726 0.000000
v -0.035504 0.683726 -0.035504
v 0.000000 0.683726 -0.046916
v 0.035504 0.683726 -0.035504
v 0.042887 0.624842 0.000000
v 0.032455 0.624842 0.032455
v 0.000000 0.624842 0.042887
v -0.032455 0.624842 0.032455
v -0.042887 0.624842 0.000000
v -0.032455 0.624842 -0.032455
v 0.000000 0.624842 -0.042887
v 0.032455 0.624842 -0.032455
v 0.033397 0.509878 0.000000
v 0.025273 0.509878 0.025273
v 0.000000 0.509878 0.033397
v -0.025273 0.509878 0.025273
v -0.033397 0.509878 0.000000
v -0.025273 0.509878 -0.025273
v 0.000000 0.509878 -0.033397
v 0.025273 0.509878 -0.025273
v 0.042887 0.307990 0.000000
v 0.032455 0.307990 0.032455
v 0.000000 0.307990 0.042887
v -0.032455 0.307990 0.032455
v -0.042887 0.307990 0.000000
v -0.032455 0.307990 -0.032455
v 0.000000 0.307990 -0.042887
v 0.032455 0.307990 -0.032455
v 0.060109 0.268734 0.000000
v 0.045489 0.268734 0.045489
v 0.000000 0.268734 0.060109
v -0.045489 0.268734 0.045489
v -0.060109 0.268734 0.000000
v -0.045489 0.268734 -0.045489
v 0.000000 0.268734 -0.060109
v 0.045489 0.268734 -0.045489
v 0.042887 0.226674 0.000000
v 0.032455 0.226674 0.032455
v 0.000000 0.226674 0.042887
v -0.032455 0.226674 0.032455
v -0.042887 0.226674 0.000000
v -0.032455 0.226674 -0.032455
v 0.000000 0.226674 -0.042887
v 0.032455 0.226674 -0.032455
v 0.076176 0.131338 0.000000
v 0.057647 0.131338 0.057647
v 0.000000 0.131338 0.076176
v -0.057647 0.131338 0.057647
v -0.076176 0.131338 0.000000
v -0.057647 0.131338 -0.057647
v 0.000000 0.131338 -0.076176
v 0.057647 0.131338 -0.057647
v 0.054789 0.000000 0.054789
v 0.077612 0.000000 0.131796
v 0.131796 0.000000 0.077612
v 0.118617 0.000000 0.118617
v -0.118617 0.000000 -0.118617
v -0.077612 0.000000 -0.131796
v -0.054789 0.000000 -0.054789
v -0.131796 0.000000 -0.077612
v 0.077612 0.000000 -0.131796
v 0.054789 0.000000 -0.054789
v 0.118617 0.000000 -0.118617
v 0.131796 0.000000 -0.077612
v -0.131796 0.000000 0.077612
v -0.054789 0.000000 0.054789
v -0.077612 0.000000 0.131796
v -0.118617 0.000000 0.118617
v 0.062275 0.158226 -0.062275
v 0.000000 0.158226 -0.082290
v -0.062275 0.158226 -0.062275
v -0.082290 0.158226 0.000000
v -0.062275 0.158226 0.062275
v 0.000000 0.158226 0.082290
v 0.062275 0.158226 0.062275
v 0.082290 0.158226 0.000000
v 0.057828 0.669419 0.000000
v 0.043763 0.669419 0.043763
v 0.000000 0.669419 0.057828
v -0.043763 0.669419 0.043763
v -0.057828 0.669419 0.000000
v -0.043763 0.669419 -0.043763
v 0.000000 0.669419 -0.057828
v 0.043763 0.669419 -0.043763
vt 0.221387 0.059504
vt 0.271270 0.059504
vt 0.116860 0.201249
vt 0.162443 0.186598
vt 0.162443 0.246832
vt 0.102209 0.246832
vt 0.271270 0.163095
vt 0.227916 0.163095
vt 0.314625 0.163095
vt 0.271270 0.163095
vt 0.321153 0.059504
vt 0.271270 0.059504
vt 0.271270 0.163095
vt 0.314625 0.163095
vt 0.162443 0.307065
vt 0.271270 0.059504
vt 0.221387 0.059504
vt 0.116860 0.292415
vt 0.227916 0.163095
vt 0.324538 0.209511
vt 0.360389 0.220136
vt 0.271270 0.163095
vt 0.208025 0.201249
vt 0.349764 0.184286
vt 0.330674 0.190421
vt 0.271270 0.059504
vt 0.330674 0.300865
vt 0.222676 0.246832
vt 0.208025 0.292415
vt 0.321153 0.059504
vt 0.321153 0.059504
vt 0.227916 0.163095
vt 0.221387 0.059504
vt 0.314625 0.163095
vt 0.227916 0.163095
vt 0.321153 0.059504
vt 0.314625 0.163095
vt 0.271270 1.000000
vt 0.221387 0.059504
vt 0.315771 0.918681
vt 0.271270 0.918681
vt 0.315771 0.918681
vt 0.315771 1.000000
vt 0.271270 0.918681
vt 0.271270 1.000000
vt 0.226769 0.918681
vt 0.226769 1.000000
vt 0.315771 1.000000
vt 0.315771 1.000000
vt 0.271270 0.918681
vt 0.271270 1.000000
vt 0.271270 0.918681
vt 0.315771 0.918681
vt 0.226769 0.918681
vt 0.226769 1.000000
vt 0.226769 1.000000
vt 0.226769 0.918681
vt 0.271270 0.849042
vt 0.271270 1.000000
vt 0.315771 0.918681
vt 0.297972 0.849042
vt 0.244569 0.849042
vt 0.271270 0.849042
vt 0.315771 1.000000
vt 0.226769 0.918681
vt 0.297972 0.849042
vt 0.244569 0.849042
vt 0.271270 0.831276
vt 0.226769 1.000000
vt 0.297972 0.849042
vt 0.271270 0.775921
vt 0.295679 0.775921
vt 0.304183 0.831276
vt 0.271270 0.849042
vt 0.271270 0.849042
vt 0.246862 0.775921
vt 0.238358 0.831276
vt 0.304183 0.831276
vt 0.244569 0.849042
vt 0.297972 0.849042
vt 0.271270 0.831276
vt 0.271270 0.775921
vt 0.295679 0.775921
vt 0.244569 0.849042
vt 0.295679 0.775921
vt 0.238358 0.831276
vt 0.246862 0.775921
vt 0.271270 0.633160
vt 0.271270 0.775921
vt 0.271270 0.831276
vt 0.290278 0.633160
vt 0.252263 0.633160
vt 0.271270 0.633160
vt 0.304183 0.831276
vt 0.271270 0.775921
vt 0.290278 0.633160
vt 0.252263 0.633160
vt 0.271270 0.382458
vt 0.246862 0.775921
vt 0.238358 0.831276
vt 0.295679 0.382458
vt 0.246862 0.382458
vt 0.271270 0.382458
vt 0.271270 0.831276
vt 0.295679 0.775921
vt 0.295679 0.382458
vt 0.246862 0.382458
vt 0.271270 0.333711
vt 0.304183 0.831276
vt 0.349764 0.307001
vt 0.360389 0.271150
vt 0.324538 0.281776
vt 0.411403 0.271150
vt 0.422029 0.307001
vt 0.441118 0.300865
vt 0.447254 0.281776
vt 0.422029 0.184286
vt 0.411403 0.220136
vt 0.447254 0.209511
vt 0.441118 0.190421
vt 0.385896 0.187403
vt 0.385896 0.245643
vt 0.444137 0.245643
vt 0.385896 0.303884
vt 0.327655 0.245643
vt 0.305481 0.333711
vt 0.238358 0.831276
vt 0.237060 0.333711
vt 0.246862 0.775921
vt 0.271270 0.333711
vt 0.290278 0.633160
vt 0.305481 0.333711
vt 0.237060 0.333711
vt 0.271270 0.281481
vt 0.271270 0.633160
vt 0.271270 0.633160
vt 0.295679 0.281481
vt 0.246862 0.281481
vt 0.271270 0.281481
vt 0.252263 0.633160
vt 0.290278 0.633160
vt 0.295679 0.281481
vt 0.246862 0.281481
vt 0.271270 0.196484
vt 0.252263 0.633160
vt 0.295679 0.382458
vt 0.271270 0.382458
vt 0.271270 0.382458
vt 0.246862 0.382458
vt 0.295679 0.382458
vt 0.246862 0.382458
vt 0.305481 0.333711
vt 0.271270 0.333711
vt 0.271270 0.333711
vt 0.237060 0.333711
vt 0.305481 0.333711
vt 0.237060 0.333711
vt 0.295679 0.281481
vt 0.271270 0.281481
vt 0.271270 0.281481
vt 0.246862 0.281481
vt 0.295679 0.281481
vt 0.246862 0.281481
vt 0.318105 0.196484
vt 0.271270 0.196484
vt 0.271270 0.196484
vt 0.224435 0.196484
vt 0.318105 0.196484
vt 0.224435 0.196484
vt 0.313894 0.000000
vt 0.299160 0.000000
vt 0.313894 0.000000
vt 0.299160 0.000000
vt 0.243381 0.000000
vt 0.228646 0.000000
vt 0.243381 0.000000
vt 0.228646 0.000000
vt 0.318105 0.196484
vt 0.224435 0.196484
vt 0.271270 0.196484
vt 0.318105 0.196484
vt 0.224435 0.196484
vt 0.299160 0.000000
vt 0.313894 0.000000
vt 0.299160 0.000000
vt 0.313894 0.000000
vt 0.228646 0.000000
vt 0.243381 0.000000
vt 0.228646 0.000000
vt 0.243381 0.000000
vt 0.314625 0.163095
vt 0.271270 0.163095
vt 0.271270 0.059504
vt 0.321153 0.059504
vt 0.321153 0.059504
vt 0.271270 0.059504
vt 0.271270 0.163095
vt 0.314625 0.163095
vt 0.227916 0.163095
vt 0.271270 0.163095
vt 0.271270 0.059504
vt 0.221387 0.059504
vt 0.271270 0.163095
vt 0.227916 0.163095
vt 0.221387 0.059504
vt 0.271270 0.059504
vt 0.315771 0.918681
vt 0.271270 0.918681
vt 0.271270 1.000000
vt 0.271270 1.000000
vt 0.271270 0.918681
vt 0.315771 0.918681
vt 0.226769 0.918681
vt 0.271270 0.918681
vt 0.271270 0.918681
vt 0.226769 0.918681
vt 0.297972 0.849042
vt 0.271270 0.849042
vt 0.271270 0.918681
vt 0.271270 0.918681
vt 0.271270 0.849042
vt 0.297972 0.849042
vt 0.244569 0.849042
vt 0.271270 0.849042
vt 0.271270 0.849042
vt 0.244569 0.849042
vt 0.295679 0.775921
vt 0.271270 0.775921
vt 0.271270 0.831276
vt 0.304183 0.831276
vt 0.304183 0.831276
vt 0.271270 0.831276
vt 0.271270 0.775921
vt 0.295679 0.775921
vt 0.271270 0.831276
vt 0.238358 0.831276
vt 0.246862 0.775921
vt 0.271270 0.775921
vt 0.238358 0.831276
vt 0.271270 0.831276
vt 0.271270 0.775921
vt 0.246862 0.775921
vt 0.290278 0.633160
vt 0.271270 0.633160
vt 0.271270 0.775921
vt 0.271270 0.775921
vt 0.271270 0.633160
vt 0.290278 0.633160
vt 0.252263 0.633160
vt 0.271270 0.633160
vt 0.271270 0.633160
vt 0.252263 0.633160
vt 0.295679 0.382458
vt 0.271270 0.382458
vt 0.271270 0.633160
vt 0.271270 0.633160
vt 0.271270 0.382458
vt 0.295679 0.382458
vt 0.246862 0.382458
vt 0.271270 0.382458
vt 0.271270 0.382458
vt 0.246862 0.382458
vt 0.305481 0.333711
vt 0.271270 0.333711
vt 0.271270 0.382458
vt 0.271270 0.382458
vt 0.271270 0.333711
vt 0.305481 0.333711
vt 0.237060 0.333711
vt 0.271270 0.333711
vt 0.271270 0.333711
vt 0.237060 0.333711
vt 0.295679 0.281481
vt 0.271270 0.281481
vt 0.271270 0.333711
vt 0.271270 0.333711
vt 0.271270 0.281481
vt 0.295679 0.281481
vt 0.246862 0.281481
vt 0.271270 0.281481
vt 0.271270 0.281481
vt 0.246862 0.281481
vt 0.318105 0.196484
vt 0.271270 0.196484
vt 0.271270 0.281481
vt 0.271270 0.281481
vt 0.271270 0.196484
vt 0.318105 0.196484
vt 0.224435 0.196484
vt 0.271270 0.196484
vt 0.271270 0.196484
vt 0.224435 0.196484
vt 0.271270 0.059504
vt 0.271270 0.059504
vt 0.271270 0.196484
vt 0.271270 0.163095
vt 0.271270 0.163095
vt 0.271270 0.196484
vt 0.271270 0.831276
vt 0.271270 0.849042
vt 0.271270 0.849042
vt 0.271270 0.831276
vn -0.598905 0.531625 0.598905
vn 0.000000 0.505897 0.862594
vn 0.000000 0.505897 0.862594
vn -0.598905 0.531625 0.598905
vn 0.000000 1.000000 -0.000001
vn 0.000000 1.000000 -0.000000
vn 0.000000 1.000000 0.000000
vn 0.000000 1.000000 0.000000
vn -0.598905 0.531625 -0.598905
vn 0.000000 0.505897 -0.862594
vn 0.000000 0.505897 -0.862594
vn -0.598905 0.531625 -0.598905
vn 0.000000 -1.000000 0.000000
vn 0.000000 -1.000000 0.000000
vn 0.000000 -1.000000 0.000000
vn 0.000000 -1.000000 0.000000
vn 0.598905 0.531625 0.598905
vn 0.862594 0.505897 0.000000
vn 0.862594 0.505897 0.000000
vn 0.598905 0.531625 0.598905
vn -0.862594 0.505897 -0.000000
vn -0.862594 0.505897 -0.000000
vn 0.000000 1.000000 0.000001
vn 0.000000 1.000000 0.000001
vn 0.000000 -1.000000 0.000000
vn 0.000000 -1.000000 0.000000
vn 0.000000 -1.000000 0.000000
vn 0.000000 -1.000000 0.000000
vn 0.598905 0.531625 -0.598905
vn 0.598905 0.531625 -0.598905
vn 0.000000 -1.000000 0.000000
vn 0.000000 -1.000000 0.000000
vn 0.000000 -1.000000 0.000000
vn 0.000000 -1.000000 0.000000
vn 0.000000 -1.000000 0.000000
vn 0.000000 -1.000000 0.000000
vn 0.000000 -1.000000 0.000000
vn 0.000000 -1.000000 0.000000
vn 0.000000 1.000000 0.000000
vn 0.000000 1.000000 0.000000
vn 0.000000 1.000000 0.000001
vn 0.707107 0.000000 0.707107
vn 1.000000 0.000000 0.000000
vn 1.000000 0.000000 0.000000
vn 0.707107 0.000000 0.707107
vn 0.000000 0.000000 1.000000
vn 0.000000 0.000000 1.000000
vn -0.707107 0.000000 0.707107
vn -0.707107 0.000000 0.707107
vn -1.000000 0.000000 0.000000
vn -1.000000 0.000000 0.000000
vn -0.707107 0.000000 -0.707107
vn -0.707107 0.000000 -0.707107
vn 0.000000 0.000000 -1.000000
vn 0.000000 0.000000 -1.000000
vn 0.707107 0.000000 -0.707107
vn 0.707107 0.000000 -0.707107
vn 0.607184 -0.512497 0.607185
vn 0.873371 -0.487055 0.000000
vn 0.873371 -0.487055 0.000000
vn 0.607185 -0.512497 0.607185
vn -0.000000 -0.487055 0.873371
vn -0.000000 -0.487055 0.873371
vn -0.607184 -0.512497 0.607185
vn -0.607184 -0.512497 0.607185
vn -0.873371 -0.487055 0.000000
vn -0.873371 -0.487055 0.000000
vn -0.607185 -0.512497 -0.607185
vn -0.607185 -0.512497 -0.607185
vn -0.000000 -0.487055 -0.873371
vn -0.000000 -0.487055 -0.873371
vn 0.607185 -0.512497 -0.607185
vn 0.607185 -0.512497 -0.607185
vn 0.695022 -0.184093 0.695022
vn 0.985452 -0.169952 -0.000000
vn 0.948156 -0.317806 -0.000000
vn 0.665579 -0.337655 0.665578
vn 0.000000 -0.317806 0.948156
vn 0.000000 -0.169952 0.985452
vn -0.695022 -0.184093 0.695022
vn -0.665578 -0.337654 0.665579
vn -0.985452 -0.169952 -0.000000
vn -0.948156 -0.317806 0.000000
vn -0.695022 -0.184093 -0.695022
vn -0.665578 -0.337655 -0.665579
vn 0.000000 -0.317806 -0.948156
vn 0.000000 -0.169952 -0.985452
vn 0.665578 -0.337654 -0.665579
vn 0.695021 -0.184093 -0.695022
vn 0.707107 -0.000346 0.707107
vn 1.000000 -0.000204 0.000000
vn 0.000000 -0.000204 1.000000
vn -0.707107 -0.000346 0.707107
vn -1.000000 -0.000204 -0.000000
vn -0.707107 -0.000346 -0.707107
vn 0.000000 -0.000204 -1.000000
vn 0.707107 -0.000346 -0.707107
vn 0.699594 0.145385 0.699594
vn 0.991133 0.132874 -0.000000
vn 0.000000 0.132875 0.991133
vn -0.699594 0.145385 0.699594
vn -0.991133 0.132874 0.000000
vn -0.699594 0.145385 -0.699594
vn 0.000000 0.132875 -0.991133
vn 0.699594 0.145385 -0.699594
vn 0.707106 -0.001804 0.707106
vn 0.999999 -0.001027 -0.000000
vn -0.000000 -0.001027 0.999999
vn -0.707106 -0.001804 0.707106
vn -0.999999 -0.001027 0.000000
vn -0.707106 -0.001804 -0.707106
vn 0.000000 -0.001027 -0.999999
vn 0.707106 -0.001804 -0.707106
vn 0.647647 -0.401380 0.647647
vn 0.925423 -0.378936 -0.000000
vn -0.000000 -0.378936 0.925423
vn -0.647647 -0.401380 0.647647
vn -0.925423 -0.378936 0.000000
vn -0.647647 -0.401380 -0.647647
vn 0.000000 -0.378936 -0.925423
vn 0.647647 -0.401380 -0.647647
vn 0.675001 0.297906 0.675001
vn 0.958240 0.285966 0.000000
vn 0.866655 0.498908 0.000000
vn 0.602021 0.524539 0.602021
vn 0.000000 0.498908 0.866655
vn 0.000000 0.285966 0.958240
vn -0.675001 0.297906 0.675001
vn -0.602021 0.524539 0.602021
vn -0.958240 0.285966 0.000000
vn -0.866655 0.498908 0.000000
vn -0.675001 0.297906 -0.675001
vn -0.602021 0.524539 -0.602021
vn 0.000000 0.498908 -0.866655
vn 0.000000 0.285966 -0.958240
vn 0.602021 0.524539 -0.602021
vn 0.675001 0.297906 -0.675001
vn -0.605621 -0.792809 0.068391
vn -0.605621 -0.792809 0.068391
vn -0.605621 -0.792809 0.068391
vn -0.605621 -0.792809 0.068391
vn 0.068391 -0.792809 -0.605621
vn 0.068391 -0.792809 -0.605621
vn 0.068391 -0.792809 -0.605621
vn 0.068391 -0.792809 -0.605621
vn 0.806000 0.532215 0.259059
vn 0.577464 0.577123 0.577464
vn 0.577464 0.577123 0.577464
vn 0.806000 0.532215 0.259059
vn 0.259059 0.532215 0.806000
vn 0.259059 0.532215 0.806000
vn -0.577464 0.577123 -0.577464
vn -0.259058 0.532215 -0.806000
vn -0.259058 0.532215 -0.806000
vn -0.577464 0.577123 -0.577464
vn 0.605621 -0.792809 -0.068391
vn 0.605621 -0.792809 -0.068391
vn 0.605621 -0.792809 -0.068391
vn 0.605621 -0.792809 -0.068391
vn -0.068391 -0.792809 0.605621
vn -0.068391 -0.792809 0.605621
vn -0.068391 -0.792809 0.605621
vn -0.068391 -0.792809 0.605621
vn -0.806000 0.532215 -0.259058
vn -0.806000 0.532215 -0.259058
vn -0.605621 -0.792809 -0.068391
vn -0.605621 -0.792809 -0.068391
vn -0.605621 -0.792809 -0.068391
vn -0.605621 -0.792809 -0.068391
vn 0.259058 0.532215 -0.806000
vn 0.577464 0.577123 -0.577464
vn 0.577464 0.577123 -0.577464
vn 0.259058 0.532215 -0.806000
vn 0.806000 0.532215 -0.259059
vn 0.806000 0.532215 -0.259059
vn 0.068391 -0.792809 0.605621
vn 0.068391 -0.792809 0.605621
vn 0.068391 -0.792809 0.605621
vn 0.068391 -0.792809 0.605621
vn -0.068391 -0.792809 -0.605621
vn -0.068391 -0.792809 -0.605621
vn -0.068391 -0.792809 -0.605621
vn -0.068391 -0.792809 -0.605621
vn 0.605621 -0.792809 0.068391
vn 0.605621 -0.792809 0.068391
vn 0.605621 -0.792809 0.068391
vn 0.605621 -0.792809 0.068391
vn -0.259059 0.532215 0.806000
vn -0.577464 0.577123 0.577464
vn -0.577464 0.577123 0.577464
vn -0.259059 0.532215 0.806000
vn -0.806000 0.532215 0.259058
vn -0.806000 0.532215 0.259058
vn 0.687049 -0.236487 -0.687049
vn 0.000000 -0.221757 -0.975102
vn -0.687049 -0.236487 -0.687049
vn -0.975102 -0.221757 0.000000
vn -0.687049 -0.236487 0.687049
vn 0.000000 -0.221757 0.975102
vn 0.687049 -0.236487 0.687049
vn 0.975102 -0.221757 0.000000
vn 0.547763 0.632387 0.547762
vn 0.795096 0.606483 0.000000
vn 0.795097 0.606483 0.000000
vn 0.547763 0.632387 0.547762
vn -0.000000 0.606483 0.795096
vn -0.000000 0.606483 0.795096
vn -0.547763 0.632387 0.547762
vn -0.547763 0.632387 0.547762
vn -0.795096 0.606483 -0.000000
vn -0.795096 0.606483 -0.000000
vn -0.547762 0.632387 -0.547762
vn -0.547763 0.632387 -0.547762
vn -0.000000 0.606483 -0.795097
vn -0.000000 0.606483 -0.795096
vn 0.547762 0.632387 -0.547762
vn 0.547762 0.632387 -0.547762
s 1
g CandleStick_base
usemtl lambert2SG
f 1/1/1 16/2/2 77/7/3 78/8/4
s 2
f 3/3/5 17/4/6 18/5/7 10/6/8
s 1
f 80/191/9 81/192/10 14/193/11 7/194/12
s off
f 95/20/13 96/21/14 97/24/15 98/25/16
s 1
f 2/195/17 12/196/18 75/197/19 76/198/20
f 11/16/21 1/17/1 78/19/4 79/22/22
s 2
f 10/6/8 18/5/7 13/15/23 5/18/24
s 1
f 7/30/12 11/16/21 79/22/22 80/34/9
s off
f 87/27/25 88/110/26 89/111/27 90/112/28
s 1
f 82/199/29 75/200/19 12/201/18 8/202/30
f 81/203/10 82/204/29 8/205/30 14/206/11
s off
f 92/113/31 91/114/32 93/115/33 94/116/34
f 84/117/35 83/118/36 85/119/37 86/120/38
s 1
f 77/7/3 16/2/2 2/36/17 76/37/20
s 2
f 18/5/7 17/4/6 4/23/39 9/28/40
f 13/15/23 18/5/7 9/28/40 6/29/41
s 5
f 20/207/42 19/208/43 9/209/44 4/49/45
f 17/38/46 21/41/47 20/42/42 4/43/45
f 22/46/48 21/41/47 17/38/46 3/47/49
f 23/50/50 22/54/48 3/55/49 10/59/51
f 24/60/52 23/50/50 10/59/51 5/64/53
f 5/48/53 13/210/54 25/211/55 24/212/52
f 13/51/54 6/56/56 26/213/57 25/214/55
f 9/45/44 19/215/43 26/216/57 6/69/56
s 6
f 28/217/58 27/218/59 19/219/60 20/40/61
f 21/41/62 29/58/63 28/61/58 20/42/61
f 30/62/64 29/58/63 21/41/62 22/46/65
f 31/75/66 30/79/64 22/54/65 23/50/67
f 32/80/68 31/75/66 23/50/67 24/60/69
f 24/53/69 25/220/70 33/221/71 32/222/68
f 25/52/70 26/57/72 34/223/73 33/224/71
f 26/65/72 19/44/60 27/225/59 34/226/73
s 7
f 36/227/74 35/228/75 107/229/76 108/230/77
f 109/68/78 37/71/79 36/72/74 108/73/77
f 38/76/80 37/71/79 109/68/78 110/77/81
f 39/95/82 38/99/80 110/100/81 111/104/83
f 40/105/84 39/95/82 111/104/83 112/109/85
f 112/231/85 113/232/86 41/233/87 40/234/84
f 113/235/86 114/236/88 42/237/89 41/238/87
f 114/239/88 107/240/76 35/241/75 42/242/89
f 44/243/90 43/244/91 35/245/75 36/85/74
f 37/71/79 45/88/92 44/91/90 36/72/74
f 46/92/93 45/88/92 37/71/79 38/76/80
f 47/136/94 46/140/93 38/99/80 39/95/82
f 48/141/95 47/136/94 39/95/82 40/105/84
f 40/83/84 41/246/87 49/247/96 48/248/95
f 41/82/87 42/87/89 50/249/97 49/250/96
f 42/129/89 35/89/75 43/251/91 50/252/97
f 52/253/98 51/254/99 43/255/91 44/131/90
f 45/88/92 53/98/100 52/101/98 44/91/90
f 54/102/101 53/98/100 45/88/92 46/92/93
f 55/148/102 54/149/101 46/140/93 47/136/94
f 56/150/103 55/148/102 47/136/94 48/141/95
f 48/96/95 49/256/96 57/257/104 56/258/103
f 49/93/96 50/97/97 58/259/105 57/260/104
f 50/145/97 43/135/91 51/261/99 58/262/105
f 60/263/106 59/264/107 51/265/99 52/146/98
f 53/98/100 61/108/108 60/126/106 52/101/98
f 62/128/109 61/108/108 53/98/100 54/102/101
f 63/154/110 62/155/109 54/149/101 55/148/102
f 64/156/111 63/154/110 55/148/102 56/150/103
f 56/106/103 57/266/104 65/267/112 64/268/111
f 57/103/104 58/107/105 66/269/113 65/270/112
f 58/151/105 51/147/99 59/271/107 66/272/113
f 68/273/114 67/274/115 59/275/107 60/152/106
f 61/108/108 69/134/116 68/137/114 60/126/106
f 70/138/117 69/134/116 61/108/108 62/128/109
f 71/160/118 70/161/117 62/155/109 63/154/110
f 72/162/119 71/160/118 63/154/110 64/156/111
f 64/132/111 65/276/112 73/277/120 72/278/119
f 65/130/112 66/133/113 74/279/121 73/280/120
f 66/157/113 59/153/107 67/281/115 74/282/121
s 8
f 105/283/122 106/284/123 67/285/124 68/158/125
f 69/134/126 104/144/127 105/178/122 68/137/125
f 103/179/128 104/144/127 69/134/126 70/138/129
f 102/166/130 103/167/128 70/161/129 71/160/131
f 101/168/132 102/166/130 71/160/131 72/162/133
f 72/142/133 73/286/134 100/287/135 101/288/132
f 73/139/134 74/143/136 99/289/137 100/290/135
f 74/163/136 67/159/124 106/291/123 99/292/137
s off
f 16/121/138 15/122/139 83/118/140 84/117/141
f 15/122/142 12/123/143 85/119/144 83/118/145
s 9
f 12/293/146 2/11/147 86/170/148 85/171/149
f 2/36/147 16/2/150 84/183/151 86/184/148
s 10
f 7/31/152 14/294/153 88/185/154 87/186/155
s off
f 14/124/156 15/122/157 89/111/158 88/110/159
f 15/122/160 11/125/161 90/112/162 89/111/163
s 10
f 11/16/164 7/30/152 87/172/155 90/173/165
s off
f 15/122/166 14/124/167 91/114/168 92/113/169
s 11
f 14/26/170 8/33/171 93/187/172 91/188/173
f 8/39/171 12/12/174 94/174/175 93/175/172
s off
f 12/123/176 15/122/177 92/113/178 94/116/179
f 11/125/180 15/122/181 96/21/182 95/20/183
f 15/122/184 16/121/185 97/24/186 96/21/187
s 12
f 16/2/188 1/1/189 98/189/190 97/190/191
f 1/17/189 11/16/192 95/176/193 98/177/190
s 8
f 100/295/135 99/182/137 82/32/194 81/296/195
f 101/181/132 100/180/135 81/10/195 80/9/196
f 80/34/196 79/22/197 102/166/130 101/168/132
f 79/22/197 78/19/198 103/167/128 102/166/130
f 78/8/198 77/7/199 104/144/127 103/179/128
f 105/178/122 104/144/127 77/7/199 76/37/200
f 76/14/200 75/297/201 106/298/123 105/164/122
f 99/169/137 106/165/123 75/13/201 82/35/194
s 13
f 108/94/202 107/299/203 27/300/204 28/70/205
f 29/58/206 109/68/207 108/73/202 28/61/205
f 110/77/208 109/68/207 29/58/206 30/62/209
f 111/104/210 110/100/208 30/79/209 31/75/211
f 112/109/212 111/104/210 31/75/211 32/80/213
f 32/66/213 33/301/214 113/302/215 112/78/212
f 33/63/214 34/67/216 114/86/217 113/81/215
f 34/84/216 27/74/204 107/90/203 114/127/217
g default
v 0.037635 0.804145 -0.037635
v 0.000000 0.804145 -0.053249
v -0.037635 0.804145 -0.037635
v -0.053249 0.804145 0.000000
v -0.037635 0.804145 0.037635
v 0.000000 0.804145 0.053249
v 0.037635 0.804145 0.037635
v 0.053249 0.804145 0.000000
v 0.037635 1.049647 -0.037635
v 0.000000 1.049647 -0.053249
v -0.037635 1.049647 -0.037635
v -0.053249 1.049647 0.000000
v -0.037635 1.049647 0.037635
v 0.000000 1.049647 0.053249
v 0.037635 1.049647 0.037635
v 0.053249 1.049647 0.000000
v 0.000000 1.049647 0.000000
vt 0.569779 0.005781
vt 0.675182 0.005781
vt 0.780586 0.005781
vt 0.885990 0.005781
vt 0.991393 0.005781
vt 0.675343 0.005781
vt 0.778784 0.005781
vt 0.882226 0.005781
vt 0.985668 0.005781
vt 0.569779 0.994219
vt 0.675182 0.994219
vt 0.780586 0.994219
vt 0.885990 0.994219
vt 0.991393 0.994219
vt 0.675343 0.994219
vt 0.778784 0.994219
vt 0.882226 0.994219
vt 0.985668 0.994219
vt 0.960485 0.039515
vt 0.850000 -0.006250
vt 0.739515 0.039515
vt 0.693750 0.150000
vt 0.739515 0.260485
vt 0.850000 0.306250
vt 0.960485 0.260485
vt 1.006250 0.150000
vt 0.850000 0.143750
vt 0.571901 0.005781
vt 0.571901 0.994219
vn 0.707107 0.000000 -0.707107
vn 0.000000 0.000000 -1.000000
vn 0.000000 0.160487 -0.987038
vn 0.697932 0.160564 -0.697932
vn -0.707107 0.000000 -0.707107
vn -0.697932 0.160564 -0.697932
vn -1.000000 0.000000 0.000000
vn -0.987038 0.160487 0.000000
vn -0.707108 0.000000 0.707106
vn -0.697933 0.160564 0.697931
vn 0.000000 0.000000 1.000000
vn 0.000000 0.160487 0.987038
vn 0.707108 0.000000 0.707106
vn 0.697934 0.160564 0.697931
vn 1.000000 0.000000 0.000000
vn 0.987038 0.160487 -0.000000
vn 0.000000 1.000000 0.000000
s 1
g CandleStick_base CandleStick_candle
usemtl lambert2SG
f 115/303/218 116/304/219 124/313/220 123/312/221
f 116/304/219 117/305/222 125/314/223 124/313/220
f 117/305/222 118/306/224 126/315/225 125/314/223
f 118/306/224 119/307/226 127/316/227 126/315/225
f 119/330/226 120/308/228 128/317/229 127/331/227
f 120/308/228 121/309/230 129/318/231 128/317/229
f 121/309/230 122/310/232 130/319/233 129/318/231
f 122/310/232 115/311/218 123/320/221 130/319/233
f 131/329/234 124/326/220 125/325/223 126/324/225
f 131/329/234 126/324/225 127/323/227 128/322/229
f 131/329/234 128/322/229 129/321/231 130/328/233
f 131/329/234 130/328/233 123/327/221 124/326/220
