# This file uses centimeters as units for non-parametric coordinates.

mtllib FlashLight.mtl
g default
v 0.330735 -0.133868 0.899434
v 0.139206 -0.328524 0.899434
v -0.133868 -0.330735 0.899434
v -0.328524 -0.139206 0.899434
v -0.330735 0.133868 0.899434
v -0.139206 0.328524 0.899434
v 0.133868 0.330735 0.899434
v 0.328524 0.139206 0.899434
v 0.239278 -0.096850 -0.899434
v 0.100712 -0.237679 -0.899434
v -0.096850 -0.239278 -0.899434
v -0.237679 -0.100712 -0.899434
v -0.239278 0.096850 -0.899434
v -0.100712 0.237679 -0.899434
v 0.096850 0.239278 -0.899434
v 0.237679 0.100712 -0.899434
v 0.000000 -0.000000 -0.958919
v 0.330735 -0.133868 -0.829253
v 0.328524 0.139206 -0.829253
v 0.133868 0.330735 -0.829253
v -0.139206 0.328524 -0.829253
v -0.330735 0.133868 -0.829253
v -0.328524 -0.139206 -0.829253
v -0.133868 -0.330735 -0.829253
v 0.139206 -0.328524 -0.829253
v 0.386388 -0.156394 0.469111
v 0.162630 -0.383805 0.469111
v -0.156394 -0.386388 0.469111
v -0.383805 -0.162630 0.469111
v -0.386388 0.156394 0.469111
v -0.162630 0.383805 0.469111
v 0.156394 0.386388 0.469111
v 0.383805 0.162630 0.469111
v 0.386388 -0.156394 -0.032004
v 0.383805 0.162630 -0.032004
v 0.156394 0.386388 -0.032004
v -0.162630 0.383805 -0.032004
v -0.386388 0.156394 -0.032004
v -0.383805 -0.162630 -0.032004
v -0.156394 -0.386388 -0.032004
v 0.162630 -0.383805 -0.032004
v 0.386388 -0.156394 0.373904
v 0.162630 -0.383805 0.373904
v -0.156394 -0.386388 0.373904
v -0.383805 -0.162630 0.373904
v -0.386388 0.156394 0.373904
v -0.162630 0.383805 0.373904
v 0.156394 0.386388 0.373904
v 0.383805 0.162630 0.373904
v 0.386388 -0.156394 0.109985
v 0.383805 0.162630 0.109985
v 0.156394 0.386388 0.109985
v -0.162630 0.383805 0.109985
v -0.386388 0.156394 0.109985
v -0.383805 -0.162630 0.109985
v -0.156394 -0.386388 0.109985
v 0.162630 -0.383805 0.109985
v -0.139206 0.412096 0.351528
v 0.133868 0.414307 0.351528
v 0.133868 0.414307 0.125623
v -0.139206 0.412096 0.125623
v -0.139206 0.388075 0.433022
v 0.133868 0.390286 0.433022
v 0.133868 0.390286 0.004085
v -0.139206 0.388075 0.004085
v 0.707107 -0.707107 1.801462
v 0.000000 -1.000000 1.801462
v -0.707107 -0.707107 1.801462
v -1.000000 0.000000 1.801462
v -0.707107 0.707107 1.801462
v 0.000000 1.000000 1.801462
v 0.707107 0.707107 1.801462
v 1.000000 0.000000 1.801462
v 0.612372 -0.612372 1.301462
v 0.000000 -0.866025 1.301462
v -0.612372 -0.612372 1.301462
v -0.866025 0.000000 1.301462
v -0.612372 0.612372 1.301462
v 0.000000 0.866025 1.301462
v 0.612372 0.612372 1.301462
v 0.866025 0.000000 1.301462
v 0.353553 -0.353553 0.935437
v 0.000000 -0.500000 0.935437
v -0.353553 -0.353553 0.935437
v -0.500000 -0.000000 0.935437
v -0.353553 0.353553 0.935437
v 0.000000 0.500000 0.935437
v 0.353553 0.353553 0.935437
v 0.500000 -0.000000 0.935437
v 0.000000 -0.000000 0.801462
v 0.000000 0.000000 1.702849
v 0.000000 -0.792048 1.702849
v 0.750829 0.000000 1.702849
v 0.000000 0.747918 1.702849
v -0.732584 0.000000 1.702849
v 0.546254 -0.556013 1.702849
v 0.535928 0.566382 1.702849
v -0.549154 0.549604 1.702849
v -0.524380 -0.566823 1.702849
v 0.611023 -0.611023 1.974971
v 0.000000 -0.864117 1.974971
v 0.472027 -0.480460 1.910226
v 0.000000 -0.684422 1.910226
v 0.000000 0.864117 1.974971
v 0.000000 0.646289 1.910226
v 0.463105 0.489420 1.910226
v 0.611023 0.611023 1.974971
v -0.611023 0.611023 1.974971
v -0.474533 0.474922 1.910226
v -0.611023 -0.611023 1.974971
v -0.453126 -0.489802 1.910226
v -0.633038 0.000000 1.910226
v -0.864117 0.000000 1.974971
v 0.864117 0.000000 1.974971
v 0.648804 0.000000 1.910226
vt 0.706046 0.842451
vt 0.706202 0.787524
vt 0.751497 0.785581
vt 0.751225 0.840579
vt 0.707177 0.732436
vt 0.752225 0.730243
vt 0.708173 0.676537
vt 0.753251 0.673908
vt 0.707225 0.619450
vt 0.754793 0.616807
vt 0.702505 0.563133
vt 0.757412 0.561061
vt 0.707400 0.557211
vt 0.706160 0.510839
vt 0.746454 0.507240
vt 0.753566 0.555341
vt 0.707969 0.954155
vt 0.706874 0.897880
vt 0.751796 0.896083
vt 0.753774 0.952428
vt 0.851380 0.175931
vt 0.875655 0.235888
vt 0.826778 0.236057
vt 0.791983 0.201809
vt 0.791416 0.152953
vt 0.825627 0.117484
vt 0.876113 0.114937
vt 0.910577 0.151791
vt 0.910318 0.201230
vt 0.939254 0.141783
vt 0.937928 0.213793
vt 0.887323 0.087054
vt 0.812781 0.090326
vt 0.748644 0.267804
vt 0.763319 0.141724
vt 0.763940 0.213325
vt 0.814794 0.263918
vt 0.886614 0.264171
vt 0.613405 0.844641
vt 0.614060 0.791346
vt 0.689802 0.788881
vt 0.689663 0.843538
vt 0.615830 0.738529
vt 0.690902 0.734111
vt 0.618060 0.687531
vt 0.692102 0.678776
vt 0.618233 0.639856
vt 0.691004 0.622117
vt 0.606985 0.599775
vt 0.682315 0.562877
vt 0.582176 0.558721
vt 0.645798 0.518224
vt 0.613565 0.946714
vt 0.613624 0.897007
vt 0.690556 0.898443
vt 0.690852 0.954396
vt 0.775663 0.894590
vt 0.775500 0.839622
vt 0.914891 0.845284
vt 0.914350 0.894992
vt 0.777655 0.951063
vt 0.912584 0.943284
vt 0.787599 0.557983
vt 0.818345 0.509887
vt 0.948801 0.563140
vt 0.931424 0.608280
vt 0.780437 0.616757
vt 0.920060 0.651027
vt 0.777619 0.674017
vt 0.915928 0.697238
vt 0.776458 0.729984
vt 0.914869 0.745577
vt 0.775844 0.785004
vt 0.914865 0.795194
vt 0.690060 0.558640
vt 0.691001 0.510545
vt 0.768158 0.503296
vt 0.779001 0.554307
vt 0.703152 0.504626
vt 0.747264 0.501173
vt 0.684805 0.506997
vt 0.687191 0.506299
vt 0.700981 0.506118
vt 0.749856 0.501643
vt 0.768860 0.500398
vt 0.773286 0.499053
vt 0.522079 0.612616
vt 0.402403 0.610023
vt 0.402539 0.531461
vt 0.511931 0.518956
vt 0.283081 0.612828
vt 0.293318 0.519386
vt 0.160635 0.489963
vt 0.164193 0.371965
vt 0.242535 0.371864
vt 0.254356 0.480619
vt 0.161032 0.253151
vt 0.254850 0.262987
vt 0.276332 0.135583
vt 0.399545 0.133552
vt 0.399671 0.212408
vt 0.293180 0.227513
vt 0.517715 0.128885
vt 0.509400 0.223491
vt 0.640540 0.248962
vt 0.643236 0.371118
vt 0.563667 0.371747
vt 0.548324 0.264937
vt 0.642138 0.493930
vt 0.549306 0.478492
vt 0.402675 0.453138
vt 0.467038 0.434099
vt 0.338426 0.435808
vt 0.320810 0.371970
vt 0.339330 0.308172
vt 0.401181 0.291447
vt 0.466197 0.309558
vt 0.483775 0.371896
vt 0.402548 0.372058
vt 0.125431 0.973314
vt 0.036741 0.890958
vt 0.043423 0.778105
vt 0.181871 0.834327
vt 0.328489 0.893866
vt 0.243734 0.977241
vt 0.121414 0.691357
vt 0.236940 0.698717
vt 0.326215 0.779866
vt 0.402617 0.643888
vt 0.509551 0.649454
vt 0.492259 0.680080
vt 0.402769 0.673080
vt 0.398136 0.100148
vt 0.396804 0.065684
vt 0.483202 0.062429
vt 0.503783 0.092022
vt 0.288653 0.097035
vt 0.306325 0.064823
vt 0.122883 0.477216
vt 0.090534 0.463855
vt 0.092985 0.371213
vt 0.130459 0.372002
vt 0.712668 0.463447
vt 0.680634 0.480677
vt 0.675962 0.370626
vt 0.710680 0.371084
vt 0.316530 0.680531
vt 0.295232 0.650486
vt 0.092408 0.283237
vt 0.124043 0.266084
vt 0.679070 0.261847
vt 0.710471 0.275733
vt 0.495503 0.716895
vt 0.402828 0.712951
vt 0.396498 0.027543
vt 0.489591 0.023942
vt 0.299389 0.026372
vt 0.052284 0.471149
vt 0.054878 0.370734
vt 0.748858 0.370481
vt 0.751155 0.470066
vt 0.314106 0.717278
vt 0.054230 0.275245
vn 0.926947 -0.375191 0.000000
vn 0.390151 -0.920751 0.000000
vn 0.390151 -0.920751 0.000000
vn 0.926947 -0.375191 0.000000
vn -0.375191 -0.926947 0.000000
vn -0.375191 -0.926947 0.000000
vn -0.920751 -0.390151 0.000000
vn -0.920751 -0.390151 0.000000
vn -0.926947 0.375191 -0.000000
vn -0.926947 0.375191 -0.000000
vn -0.712808 0.701359 -0.000000
vn -0.712808 0.701359 -0.000000
vn -0.008071 0.996922 0.077985
vn -0.008071 0.996935 0.077819
vn -0.008077 0.997589 -0.068925
vn -0.008077 0.997583 -0.069014
vn 0.701359 0.712808 -0.000000
vn 0.920751 0.390151 -0.000000
vn 0.920751 0.390151 -0.000000
vn 0.701359 0.712808 -0.000000
vn -0.000000 0.000000 -1.000000
vn 0.142725 -0.336830 -0.930685
vn -0.149164 -0.368524 -0.917573
vn -0.336830 -0.142725 -0.930685
vn -0.368524 0.149164 -0.917573
vn -0.142725 0.336830 -0.930685
vn 0.149164 0.368524 -0.917573
vn 0.336830 0.142725 -0.930685
vn 0.368524 -0.149164 -0.917573
vn 0.911289 0.386141 -0.142998
vn 0.917421 -0.371336 -0.142998
vn 0.371335 0.917421 -0.142998
vn -0.386141 0.911289 -0.142998
vn -0.917421 0.371335 -0.142998
vn -0.911289 -0.386141 -0.142998
vn -0.371335 -0.917421 -0.142998
vn 0.386141 -0.911289 -0.142998
vn 0.918055 -0.371592 0.138183
vn 0.386408 -0.911918 0.138183
vn 0.387730 -0.915039 0.111216
vn 0.921197 -0.372864 0.111216
vn -0.371592 -0.918055 0.138183
vn -0.372864 -0.921197 0.111216
vn -0.911918 -0.386408 0.138183
vn -0.915039 -0.387730 0.111216
vn -0.918055 0.371592 0.138183
vn -0.921197 0.372864 0.111216
vn -0.386408 0.911918 0.138183
vn -0.428303 0.895208 0.123127
vn 0.371592 0.918055 0.138182
vn 0.413752 0.902025 0.123127
vn 0.911918 0.386408 0.138183
vn 0.915039 0.387730 0.111216
vn 0.918930 0.389379 -0.062868
vn 0.925114 -0.374449 -0.062868
vn 0.408144 0.910352 -0.068395
vn -0.422830 0.903624 -0.068395
vn -0.925114 0.374449 -0.062868
vn -0.918930 -0.389379 -0.062868
vn -0.374449 -0.925114 -0.062868
vn 0.389379 -0.918930 -0.062868
vn -0.007766 0.959170 0.282723
vn -0.007766 0.959170 0.282723
vn -0.007942 0.980992 -0.193885
vn -0.007942 0.980992 -0.193885
vn 0.778267 0.627934 -0.000000
vn 0.778267 0.627934 -0.000000
vn 0.778267 0.627934 -0.000000
vn 0.778267 0.627934 -0.000000
vn -0.770248 0.637745 -0.000000
vn -0.770248 0.637745 -0.000000
vn -0.770248 0.637745 -0.000000
vn -0.770248 0.637745 -0.000000
vn -0.008045 0.993636 0.112349
vn -0.008045 0.993636 0.112349
vn -0.008045 0.993636 0.112349
vn -0.008045 0.993636 0.112349
vn 0.464826 0.877333 0.119265
vn 0.464826 0.877333 0.119265
vn 0.464826 0.877333 0.119265
vn 0.464826 0.877333 0.119265
vn -0.461768 0.878917 0.119482
vn -0.461768 0.878917 0.119482
vn -0.461768 0.878917 0.119482
vn -0.461768 0.878917 0.119482
vn 0.513922 0.854296 -0.077870
vn 0.513922 0.854296 -0.077870
vn 0.513922 0.854296 -0.077870
vn 0.513922 0.854296 -0.077870
vn -0.008045 0.993636 -0.112349
vn -0.008045 0.993636 -0.112349
vn -0.008045 0.993636 -0.112349
vn -0.008045 0.993636 -0.112349
vn -0.509383 0.856987 -0.078116
vn -0.509383 0.856987 -0.078116
vn -0.509383 0.856987 -0.078116
vn -0.509383 0.856987 -0.078116
vn 0.707007 -0.707007 -0.016820
vn 0.000000 -0.999859 -0.016820
vn -0.000000 -0.900444 -0.434971
vn 0.636710 -0.636710 -0.434972
vn -0.707007 -0.707007 -0.016820
vn -0.636710 -0.636710 -0.434972
vn -0.999859 -0.000000 -0.016820
vn -0.900444 -0.000000 -0.434972
vn -0.707007 0.707007 -0.016820
vn -0.636710 0.636710 -0.434972
vn -0.000000 0.999859 -0.016820
vn 0.000000 0.900444 -0.434971
vn 0.707007 0.707007 -0.016820
vn 0.636710 0.636710 -0.434972
vn 0.999859 -0.000000 -0.016820
vn 0.900444 -0.000000 -0.434972
vn 0.000000 -0.634647 -0.772802
vn 0.448763 -0.448763 -0.772802
vn -0.448763 -0.448763 -0.772802
vn -0.634647 -0.000000 -0.772802
vn -0.448763 0.448763 -0.772802
vn 0.000000 0.634647 -0.772802
vn 0.448763 0.448763 -0.772802
vn 0.634647 -0.000000 -0.772802
vn 0.000000 0.000000 -1.000000
vn -0.334323 -0.002889 0.942454
vn -0.236821 -0.238399 0.941850
vn 0.004712 -0.326436 0.945207
vn 0.000000 0.000000 1.000000
vn -0.003256 0.327223 0.944942
vn -0.237902 0.227692 0.944224
vn 0.241993 -0.237914 0.940657
vn 0.335001 0.006926 0.942192
vn 0.242683 0.228349 0.942848
vn -0.000558 -0.506751 0.862092
vn 0.348782 -0.352705 0.868303
vn -0.663287 0.630664 0.402880
vn -0.008068 0.929773 0.368045
vn 0.000837 0.492669 0.870216
vn 0.012875 -0.903080 0.429280
vn -0.627209 -0.636593 0.448729
vn 0.343615 0.349283 0.871740
vn -0.344282 0.345124 0.873132
vn 0.629647 -0.616722 0.472439
vn -0.340874 -0.351425 0.871955
vn 0.658014 0.616959 0.431716
vn 0.884402 0.018212 0.466370
vn -0.479091 0.001203 0.877764
vn 0.485775 -0.000510 0.874084
vn -0.901971 -0.007609 0.431730
s 1
g pCylinder2
usemtl initialShadingGroup
f 42/1/1 43/2/2 57/3/3 50/4/4
f 43/2/2 44/5/5 56/6/6 57/3/3
f 44/5/5 45/7/7 55/8/8 56/6/6
f 45/7/7 46/9/9 54/10/10 55/8/8
f 46/9/9 47/11/11 53/12/12 54/10/10
s 2
f 58/13/13 59/14/14 60/15/15 61/16/16
s 1
f 48/17/17 49/18/18 51/19/19 52/20/20
f 49/18/18 42/1/1 50/4/4 51/19/19
f 17/21/21 10/22/22 11/23/23 12/24/24
f 17/21/21 12/24/24 13/25/25 14/26/26
f 17/21/21 14/26/26 15/27/27 16/28/28
f 17/21/21 16/28/28 9/29/29 10/22/22
f 19/30/30 18/31/31 9/29/29 16/28/28
f 20/32/32 19/30/30 16/28/28 15/27/27
f 21/33/33 20/32/32 15/27/27 14/26/26
f 22/35/34 21/33/33 14/26/26 13/25/25
f 23/36/35 22/35/34 13/25/25 12/24/24
f 24/37/36 23/36/35 12/24/24 11/23/23
f 25/38/37 24/37/36 11/23/23 10/22/22
f 18/31/31 25/38/37 10/22/22 9/29/29
f 1/39/38 2/40/39 27/41/40 26/42/41
f 2/40/39 3/43/42 28/44/43 27/41/40
f 3/43/42 4/45/44 29/46/45 28/44/43
f 4/45/44 5/47/46 30/48/47 29/46/45
f 5/47/46 6/49/48 31/50/49 30/48/47
f 6/49/48 7/51/50 32/52/51 31/50/49
f 7/53/50 8/54/52 33/55/53 32/56/51
f 8/54/52 1/39/38 26/42/41 33/55/53
f 35/57/54 34/58/55 18/59/31 19/60/30
f 36/61/56 35/57/54 19/60/30 20/62/32
f 37/63/57 36/64/56 20/65/32 21/66/33
f 38/67/58 37/63/57 21/66/33 22/68/34
f 39/69/59 38/67/58 22/68/34 23/70/35
f 40/71/60 39/69/59 23/70/35 24/72/36
f 41/73/61 40/71/60 24/72/36 25/74/37
f 34/58/55 41/73/61 25/74/37 18/59/31
f 26/42/41 27/41/40 43/2/2 42/1/1
f 27/41/40 28/44/43 44/5/5 43/2/2
f 28/44/43 29/46/45 45/7/7 44/5/5
f 29/46/45 30/48/47 46/9/9 45/7/7
f 30/48/47 31/50/49 47/11/11 46/9/9
s 2
f 62/75/62 63/76/63 59/14/14 58/13/13
s 1
f 32/56/51 33/55/53 49/18/18 48/17/17
f 33/55/53 26/42/41 42/1/1 49/18/18
f 51/19/19 50/4/4 34/58/55 35/57/54
f 52/20/20 51/19/19 35/57/54 36/61/56
s 2
f 61/16/16 60/15/15 64/77/64 65/78/65
s 1
f 54/10/10 53/12/12 37/63/57 38/67/58
f 55/8/8 54/10/10 38/67/58 39/69/59
f 56/6/6 55/8/8 39/69/59 40/71/60
f 57/3/3 56/6/6 40/71/60 41/73/61
f 50/4/4 57/3/3 41/73/61 34/58/55
s off
f 48/79/66 52/80/67 60/15/68 59/14/69
f 53/12/70 47/11/71 58/13/72 61/16/73
f 31/50/74 32/81/75 63/76/76 62/75/77
f 32/82/78 48/83/79 59/14/80 63/76/81
f 47/11/82 31/50/83 62/75/84 58/13/85
f 52/84/86 36/85/87 64/77/88 60/15/89
f 36/86/90 37/63/91 65/78/92 64/77/93
f 37/63/94 53/12/95 61/16/96 65/78/97
s 6
f 66/87/98 67/88/99 75/89/100 74/90/101
f 67/88/99 68/91/102 76/92/103 75/89/100
f 68/93/102 69/94/104 77/95/105 76/96/103
f 69/94/104 70/97/106 78/98/107 77/95/105
f 70/99/106 71/100/108 79/101/109 78/102/107
f 71/100/108 72/103/110 80/104/111 79/101/109
f 72/105/110 73/106/112 81/107/113 80/108/111
f 73/106/112 66/109/98 74/110/101 81/107/113
f 74/90/101 75/89/100 83/111/114 82/112/115
f 75/89/100 76/92/103 84/113/116 83/111/114
f 76/96/103 77/95/105 85/114/117 84/113/116
f 77/95/105 78/98/107 86/115/118 85/114/117
f 78/102/107 79/101/109 87/116/119 86/115/118
f 79/101/109 80/104/111 88/117/120 87/116/119
f 80/108/111 81/107/113 89/118/121 88/117/120
f 81/107/113 74/110/101 82/112/115 89/118/121
f 82/112/115 83/111/114 90/119/122
f 83/111/114 84/113/116 90/119/122
f 84/113/116 85/114/117 90/119/122
f 85/114/117 86/115/118 90/119/122
f 86/115/118 87/116/119 90/119/122
f 87/116/119 88/117/120 90/119/122
f 88/117/120 89/118/121 90/119/122
f 89/118/121 82/112/115 90/119/122
f 93/120/123 97/121/124 94/122/125 91/123/126
f 92/124/127 96/125/128 93/120/123 91/123/126
f 94/122/125 98/126/129 95/127/130 91/123/126
f 95/127/130 99/128/131 92/124/127 91/123/126
f 101/129/132 100/130/133 102/131/134 103/132/135
f 104/133/136 105/134/137 106/135/138 107/136/139
f 108/137/140 109/138/141 105/134/137 104/133/136
f 110/139/142 111/140/143 112/141/144 113/142/145
f 102/143/134 100/144/133 114/145/146 115/146/147
f 101/129/132 103/132/135 111/147/143 110/148/142
f 113/142/145 112/141/144 109/149/141 108/150/140
f 107/151/139 106/152/138 115/146/147 114/145/146
f 67/88/99 66/87/98 100/130/133 101/129/132
f 96/153/128 92/154/127 103/132/135 102/131/134
f 94/155/125 97/156/124 106/135/138 105/134/137
f 72/103/110 71/100/108 104/133/136 107/136/139
f 98/157/129 94/155/125 105/134/137 109/138/141
f 71/100/108 70/99/106 108/137/140 104/133/136
f 99/158/131 95/159/130 112/141/144 111/140/143
f 69/94/104 68/93/102 110/139/142 113/142/145
f 66/109/98 73/106/112 114/145/146 100/144/133
f 93/160/123 96/161/128 102/143/134 115/146/147
f 92/154/127 99/162/131 111/147/143 103/132/135
f 68/91/102 67/88/99 101/129/132 110/148/142
f 95/159/130 98/163/129 109/149/141 112/141/144
f 70/97/106 69/94/104 113/142/145 108/150/140
f 97/34/124 93/160/123 115/146/147 106/152/138
f 73/106/112 72/105/110 107/151/139 114/145/146
