# This file uses centimeters as units for non-parametric coordinates.

mtllib Book.mtl
g default
v 0.212862 -0.500000 0.500000
v 0.212862 -0.500000 -0.465028
v 0.212862 0.500000 0.500000
v 0.212862 0.500000 -0.465028
v 0.182391 0.516715 0.518855
v 0.182391 0.488946 -0.500000
v 0.147023 0.500000 0.500000
v 0.147023 0.500000 -0.530697
v -0.147023 0.500000 0.500000
v -0.147023 0.500000 -0.530697
v -0.182391 0.516715 0.518855
v -0.182391 0.500000 -0.500000
v -0.212862 0.500000 0.500000
v -0.212862 0.500000 -0.465028
v -0.212862 -0.500000 0.500000
v -0.212862 -0.500000 -0.465028
v -0.182391 -0.514483 0.518855
v -0.182391 -0.500000 -0.500000
v -0.147023 -0.500000 0.500000
v -0.147023 -0.500000 -0.530697
v 0.147023 -0.500000 0.500000
v 0.147023 -0.500000 -0.530697
v 0.182391 -0.514483 0.518855
v 0.182391 -0.500000 -0.500000
v 0.212862 -0.500000 -0.422458
v 0.182391 -0.514483 -0.455888
v 0.147023 -0.500000 -0.485231
v -0.147023 -0.500000 -0.485231
v -0.182391 -0.514483 -0.455888
v -0.212862 -0.500000 -0.422458
v -0.212862 0.500000 -0.422458
v -0.182391 0.516715 -0.455888
v -0.147023 0.500000 -0.485231
v 0.147023 0.500000 -0.485231
v 0.182391 0.516715 -0.455888
v 0.212862 0.500000 -0.422458
v -0.141055 -0.468856 0.467900
v 0.141055 -0.468856 0.467900
v 0.141055 0.468856 0.467900
v -0.141055 0.468856 0.467900
v -0.141055 -0.468856 -0.478015
v 0.141055 -0.468856 -0.478015
v 0.141055 0.468856 -0.478015
v -0.141055 0.468856 -0.478015
v 0.212862 -0.500000 -0.444507
v 0.212862 0.500000 -0.444507
v 0.182391 0.518173 -0.478735
v 0.147023 0.514588 -0.508779
v -0.147023 0.514588 -0.508779
v -0.182391 0.518173 -0.478735
v -0.212862 0.500000 -0.444507
v -0.212862 -0.500000 -0.444507
v -0.182391 -0.506982 -0.478735
v -0.147023 -0.500000 -0.508779
v 0.147023 -0.500000 -0.508779
v 0.182391 -0.506982 -0.478735
vt 0.839624 0.508166
vt 0.846245 0.247742
vt 0.851891 0.248994
vt 0.845297 0.508739
vt 0.845965 0.527438
vt 0.851796 0.529302
vt 0.170409 0.068216
vt 0.150327 0.064063
vt 0.152489 0.059785
vt 0.171071 0.062032
vt 0.328351 0.067406
vt 0.327681 0.061264
vt 0.348425 0.063207
vt 0.346255 0.058935
vt 0.137545 0.510311
vt 0.130848 0.529980
vt 0.124972 0.530763
vt 0.131459 0.510368
vt 0.139095 0.248323
vt 0.132718 0.248722
vt 0.129609 0.229696
vt 0.123651 0.230707
vt 0.647150 0.065954
vt 0.626109 0.063156
vt 0.628337 0.058477
vt 0.647829 0.060533
vt 0.811357 0.064941
vt 0.810675 0.059557
vt 0.832395 0.062100
vt 0.830155 0.057425
vt 0.859867 0.230967
vt 0.865547 0.233008
vt 0.105908 0.251284
vt 0.126895 0.248455
vt 0.127752 0.505777
vt 0.107588 0.505526
vt 0.940259 0.701152
vt 0.962455 0.699546
vt 0.963581 0.955510
vt 0.941113 0.954417
vt 0.765993 0.701857
vt 0.765830 0.954022
vt 0.743792 0.700313
vt 0.743361 0.952527
vt 0.857216 0.249896
vt 0.877867 0.253321
vt 0.870904 0.504921
vt 0.850374 0.507458
vt 0.378428 0.248481
vt 0.397066 0.245497
vt 0.398910 0.510673
vt 0.379321 0.509293
vt 0.474014 0.343481
vt 0.495785 0.347182
vt 0.495785 0.602740
vt 0.474014 0.607011
vt 0.282204 0.951576
vt 0.280810 0.805302
vt 0.487797 0.803330
vt 0.489191 0.949603
vt 0.112269 0.674580
vt 0.109740 0.652642
vt 0.372892 0.666778
vt 0.367458 0.688288
vt 0.587110 0.244069
vt 0.605935 0.245658
vt 0.600432 0.505138
vt 0.581166 0.506168
vt 0.603417 0.227108
vt 0.850954 0.228899
vt 0.932165 0.260112
vt 0.950933 0.253208
vt 0.073405 0.953566
vt 0.072011 0.807292
vt 0.508018 0.254512
vt 0.526800 0.261376
vt 0.131856 0.229892
vt 0.381031 0.229314
vt 0.383375 0.527861
vt 0.455643 0.248718
vt 0.473447 0.241013
vt 0.696596 0.801340
vt 0.697990 0.947614
vt 0.025757 0.242163
vt 0.043579 0.249826
vt 0.597836 0.523891
vt 0.359031 0.696800
vt 0.119736 0.683946
vt 0.504736 0.355141
vt 0.504736 0.594781
vt 0.651938 0.072818
vt 0.537246 0.259434
vt 0.806644 0.071804
vt 0.921714 0.258191
vt 0.174817 0.074941
vt 0.053793 0.248493
vt 0.324006 0.074130
vt 0.445425 0.247409
vt 0.868356 0.514720
vt 0.765301 0.960635
vt 0.742262 0.961707
vt 0.941542 0.961017
vt 0.964748 0.962505
vt 0.121072 0.522868
vt 0.113974 0.521953
vt 0.117779 0.231092
vt 0.940666 0.695649
vt 0.963699 0.694053
vt 0.765543 0.696376
vt 0.742525 0.694824
vt 0.871355 0.234141
vn 0.999255 0.038583 0.000017
vn 0.999250 -0.038735 -0.000086
vn 0.999510 -0.030879 -0.005160
vn 0.999506 0.030675 -0.006759
vn -0.126187 0.991999 0.003907
vn 0.303289 0.919526 -0.249974
vn -0.675327 0.712169 0.191698
vn 0.033449 0.998370 -0.046243
vn 0.675327 0.712169 0.191698
vn -0.010513 0.999475 -0.030657
vn 0.126187 0.991999 0.003907
vn -0.212528 0.966537 -0.143661
vn -0.999255 0.038583 0.000017
vn -0.999520 0.030714 -0.003961
vn -0.999250 -0.038735 -0.000086
vn -0.999510 -0.030879 -0.005160
vn 0.106214 -0.994336 -0.003711
vn -0.125782 -0.978961 -0.160666
vn 0.663319 -0.739550 0.114345
vn 0.004678 -0.999845 -0.017005
vn -0.663319 -0.739550 0.114345
vn -0.004678 -0.999844 -0.017005
vn -0.106214 -0.994336 -0.003711
vn 0.125781 -0.978962 -0.160666
vn -0.705853 -0.014890 -0.708201
vn -0.876480 -0.012906 -0.481266
vn -0.876481 0.012814 -0.481266
vn -0.706326 0.014763 -0.707733
vn -0.092807 -0.021257 -0.995457
vn -0.092556 0.021050 -0.995485
vn 0.092353 -0.021271 -0.995499
vn 0.086427 0.021345 -0.996030
vn 0.705851 -0.014972 -0.708202
vn 0.706699 0.012736 -0.707400
vn 0.876894 -0.012957 -0.480510
vn 0.882601 0.013640 -0.469924
vn -0.998736 -0.034911 0.036159
vn 0.012220 -0.674234 0.738417
vn 0.014135 0.681738 0.731460
vn -0.998723 0.034780 0.036643
vn 0.755953 -0.460887 0.464886
vn 0.766419 0.449043 0.459306
vn -0.000000 -0.710180 0.704021
vn -0.000000 -0.710180 0.704021
vn -0.000000 0.710180 0.704021
vn -0.000000 0.710180 0.704021
vn -0.755953 -0.460887 0.464886
vn -0.012220 -0.674234 0.738417
vn -0.014136 0.681738 0.731460
vn -0.766419 0.449043 0.459306
vn 0.998736 -0.034911 0.036159
vn 0.998723 0.034780 0.036643
vn 0.000000 -1.000000 0.000000
vn 0.000000 -1.000000 0.000000
vn 0.000000 1.000000 0.000000
vn 0.000000 1.000000 0.000000
vn -0.991212 0.093936 0.093136
vn -0.991212 -0.093936 0.093136
vn 0.991212 -0.093936 0.093136
vn 0.991212 0.093936 0.093136
vn 0.919441 -0.247054 0.305930
vn -0.919441 -0.247054 0.305930
vn -0.919441 0.247054 0.305930
vn 0.919441 0.247054 0.305930
s 1
g pCube1
usemtl initialShadingGroup
f 36/1/1 25/2/2 45/3/3 46/4/4
f 35/5/5 36/1/1 46/4/4 47/6/6
f 34/7/7 35/8/5 47/9/6 48/10/8
f 33/11/9 34/7/7 48/10/8 49/12/10
f 32/13/11 33/11/9 49/12/10 50/14/12
f 31/15/13 32/16/11 50/17/12 51/18/14
f 30/19/15 31/15/13 51/18/14 52/20/16
f 29/21/17 30/19/15 52/20/16 53/22/18
f 28/23/19 29/24/17 53/25/18 54/26/20
f 27/27/21 28/23/19 54/26/20 55/28/22
f 26/29/23 27/27/21 55/28/22 56/30/24
f 25/2/2 26/31/23 56/32/24 45/3/3
f 18/33/25 16/34/26 14/35/27 12/36/28
f 20/37/29 18/38/25 12/39/28 10/40/30
f 22/41/31 20/37/29 10/40/30 8/42/32
f 24/43/33 22/41/31 8/42/32 6/44/34
f 2/45/35 24/46/33 6/47/34 4/48/36
f 15/49/37 17/50/38 11/51/39 13/52/40
f 17/53/38 19/54/41 9/55/42 11/56/39
s 2
f 37/57/43 38/58/44 39/59/45 40/60/46
s 1
f 21/61/47 23/62/48 5/63/49 7/64/50
f 23/65/48 1/66/51 3/67/52 5/68/49
f 23/69/48 26/70/23 25/2/2 1/66/51
f 21/71/47 27/27/21 26/29/23 23/72/48
s 2
f 37/57/43 41/73/53 42/74/54 38/58/44
s 1
f 17/75/38 29/24/17 28/23/19 19/76/41
f 15/49/37 30/19/15 29/77/17 17/78/38
f 13/52/40 31/15/13 30/19/15 15/49/37
f 11/79/39 32/16/11 31/15/13 13/52/40
f 9/80/42 33/11/9 32/13/11 11/81/39
s 2
f 39/59/45 43/82/55 44/83/56 40/60/46
s 1
f 5/84/49 35/8/5 34/7/7 7/85/50
f 3/67/52 36/1/1 35/5/5 5/86/49
f 1/66/51 25/2/2 36/1/1 3/67/52
f 21/61/47 7/64/50 39/87/57 38/88/58
f 9/55/42 19/54/41 37/89/59 40/90/60
f 19/76/41 28/23/19 41/91/61 37/92/59
f 28/23/19 27/27/21 42/93/62 41/91/61
f 27/27/21 21/71/47 38/94/58 42/93/62
f 7/85/50 34/7/7 43/95/63 39/96/57
f 34/7/7 33/11/9 44/97/64 43/95/63
f 33/11/9 9/80/42 40/98/60 44/97/64
f 46/4/4 45/3/3 2/45/35 4/48/36
f 47/99/6 46/4/4 4/48/36 6/47/34
f 48/100/8 47/101/6 6/44/34 8/42/32
f 49/102/10 48/100/8 8/42/32 10/40/30
f 50/103/12 49/102/10 10/40/30 12/39/28
f 51/18/14 50/104/12 12/105/28 14/35/27
f 52/20/16 51/18/14 14/35/27 16/34/26
f 53/22/18 52/20/16 16/34/26 18/106/25
f 54/107/20 53/108/18 18/38/25 20/37/29
f 55/109/22 54/107/20 20/37/29 22/41/31
f 56/110/24 55/109/22 22/41/31 24/43/33
f 45/3/3 56/32/24 24/111/33 2/45/35
