# This file uses meters as units for non-parametric coordinates.

mtllib DoorKnob.mtl
g default
v 215.036379 412.025099 85.167402
v 208.116263 412.025099 82.300996
v 201.196148 412.025099 85.167402
v 198.329742 412.025099 92.087517
v 201.196148 412.025099 99.007633
v 208.116263 412.025099 101.874038
v 215.036379 412.025099 99.007633
v 217.902785 412.025099 92.087517
v 220.585881 418.283815 79.617900
v 208.116263 418.283815 74.452815
v 195.646646 418.283815 79.617900
v 190.481561 418.283815 92.087517
v 195.646646 418.283815 104.557135
v 208.116263 418.283815 109.722219
v 220.585882 418.283815 104.557136
v 225.750967 418.283815 92.087517
v 215.056136 430.106937 85.147647
v 208.116264 430.106937 82.273050
v 201.176394 430.106937 85.147647
v 198.301796 430.106937 92.087518
v 201.176394 430.106937 99.027389
v 208.116264 430.106937 101.901986
v 215.056137 430.106937 99.027390
v 217.930734 430.106937 92.087518
v 215.056136 463.276219 85.147647
v 208.116264 463.276219 82.273050
v 201.176394 463.276219 85.147647
v 198.301796 463.276219 92.087518
v 201.176394 463.276219 99.027389
v 208.116264 463.276219 101.901986
v 215.056137 463.276219 99.027390
v 217.930734 463.276219 92.087518
v 220.585881 475.099337 79.617900
v 208.116263 475.099337 74.452815
v 195.646646 475.099337 79.617900
v 190.481561 475.099337 92.087517
v 195.646646 475.099337 104.557135
v 208.116263 475.099337 109.722219
v 220.585882 475.099337 104.557136
v 225.750967 475.099337 92.087517
v 215.036379 481.358053 85.167402
v 208.116263 481.358053 82.300996
v 201.196148 481.358053 85.167402
v 198.329742 481.358053 92.087517
v 201.196148 481.358053 99.007633
v 208.116263 481.358053 101.874038
v 215.036379 481.358053 99.007633
v 217.902785 481.358053 92.087517
v 208.116263 409.791391 92.087517
v 208.116263 483.591762 92.087517
vt 0.000000 0.142857
vt 0.125000 0.142857
vt 0.250000 0.142857
vt 0.375000 0.142857
vt 0.500000 0.142857
vt 0.625000 0.142857
vt 0.750000 0.142857
vt 0.875000 0.142857
vt 1.000000 0.142857
vt 0.000000 0.285714
vt 0.125000 0.285714
vt 0.250000 0.285714
vt 0.375000 0.285714
vt 0.500000 0.285714
vt 0.625000 0.285714
vt 0.750000 0.285714
vt 0.875000 0.285714
vt 1.000000 0.285714
vt 0.000000 0.428571
vt 0.125000 0.428571
vt 0.250000 0.428571
vt 0.375000 0.428571
vt 0.500000 0.428571
vt 0.625000 0.428571
vt 0.750000 0.428571
vt 0.875000 0.428571
vt 1.000000 0.428571
vt 0.000000 0.571429
vt 0.125000 0.571429
vt 0.250000 0.571429
vt 0.375000 0.571429
vt 0.500000 0.571429
vt 0.625000 0.571429
vt 0.750000 0.571429
vt 0.875000 0.571429
vt 1.000000 0.571429
vt 0.000000 0.714286
vt 0.125000 0.714286
vt 0.250000 0.714286
vt 0.375000 0.714286
vt 0.500000 0.714286
vt 0.625000 0.714286
vt 0.750000 0.714286
vt 0.875000 0.714286
vt 1.000000 0.714286
vt 0.000000 0.857143
vt 0.125000 0.857143
vt 0.250000 0.857143
vt 0.375000 0.857143
vt 0.500000 0.857143
vt 0.625000 0.857143
vt 0.750000 0.857143
vt 0.875000 0.857143
vt 1.000000 0.857143
vt 0.062500 0.000000
vt 0.187500 0.000000
vt 0.312500 0.000000
vt 0.437500 0.000000
vt 0.562500 0.000000
vt 0.687500 0.000000
vt 0.812500 0.000000
vt 0.937500 0.000000
vt 0.062500 1.000000
vt 0.187500 1.000000
vt 0.312500 1.000000
vt 0.437500 1.000000
vt 0.562500 1.000000
vt 0.687500 1.000000
vt 0.812500 1.000000
vt 0.937500 1.000000
vn 0.394482 -0.829920 -0.394482
vn 0.000000 -0.829920 -0.557882
vn -0.000000 0.028655 -0.999589
vn 0.706816 0.028655 -0.706817
vn -0.394482 -0.829920 -0.394482
vn -0.706816 0.028655 -0.706816
vn -0.557882 -0.829920 0.000000
vn -0.999589 0.028655 0.000000
vn -0.394482 -0.829920 0.394482
vn -0.706816 0.028655 0.706816
vn -0.000000 -0.829920 0.557882
vn -0.000000 0.028655 0.999589
vn 0.394482 -0.829920 0.394482
vn 0.706816 0.028655 0.706816
vn 0.557882 -0.829920 -0.000000
vn 0.999589 0.028655 -0.000000
vn 0.000000 0.232501 -0.972596
vn 0.687729 0.232501 -0.687729
vn -0.687729 0.232501 -0.687729
vn -0.972596 0.232501 0.000000
vn -0.687729 0.232501 0.687729
vn -0.000000 0.232501 0.972596
vn 0.687729 0.232501 0.687729
vn 0.972596 0.232501 -0.000000
vn 0.000000 -0.232501 -0.972596
vn 0.687729 -0.232501 -0.687729
vn -0.687729 -0.232501 -0.687729
vn -0.972596 -0.232501 0.000000
vn -0.687729 -0.232501 0.687729
vn -0.000000 -0.232501 0.972596
vn 0.687729 -0.232501 0.687729
vn 0.972596 -0.232501 -0.000000
vn 0.000000 -0.028655 -0.999589
vn 0.706816 -0.028655 -0.706816
vn -0.706816 -0.028655 -0.706816
vn -0.999589 -0.028655 0.000000
vn -0.706816 -0.028655 0.706816
vn -0.000000 -0.028655 0.999589
vn 0.706816 -0.028655 0.706816
vn 0.999589 -0.028655 -0.000000
vn 0.000000 0.829920 -0.557882
vn 0.394482 0.829920 -0.394482
vn -0.394482 0.829920 -0.394482
vn -0.557882 0.829920 0.000000
vn -0.394482 0.829920 0.394482
vn -0.000000 0.829920 0.557882
vn 0.394482 0.829920 0.394482
vn 0.557882 0.829920 -0.000000
vn 0.000000 -1.000000 0.000000
vn 0.000000 1.000000 -0.000000
s 1
g pSphere1
usemtl initialShadingGroup
f 1/1/1 2/2/2 10/11/3 9/10/4
f 2/2/2 3/3/5 11/12/6 10/11/3
f 3/3/5 4/4/7 12/13/8 11/12/6
f 4/4/7 5/5/9 13/14/10 12/13/8
f 5/5/9 6/6/11 14/15/12 13/14/10
f 6/6/11 7/7/13 15/16/14 14/15/12
f 7/7/13 8/8/15 16/17/16 15/16/14
f 8/8/15 1/9/1 9/18/4 16/17/16
f 9/10/4 10/11/3 18/20/17 17/19/18
f 10/11/3 11/12/6 19/21/19 18/20/17
f 11/12/6 12/13/8 20/22/20 19/21/19
f 12/13/8 13/14/10 21/23/21 20/22/20
f 13/14/10 14/15/12 22/24/22 21/23/21
f 14/15/12 15/16/14 23/25/23 22/24/22
f 15/16/14 16/17/16 24/26/24 23/25/23
f 16/17/16 9/18/4 17/27/18 24/26/24
f 17/19/18 18/20/17 26/29/25 25/28/26
f 18/20/17 19/21/19 27/30/27 26/29/25
f 19/21/19 20/22/20 28/31/28 27/30/27
f 20/22/20 21/23/21 29/32/29 28/31/28
f 21/23/21 22/24/22 30/33/30 29/32/29
f 22/24/22 23/25/23 31/34/31 30/33/30
f 23/25/23 24/26/24 32/35/32 31/34/31
f 24/26/24 17/27/18 25/36/26 32/35/32
f 25/28/26 26/29/25 34/38/33 33/37/34
f 26/29/25 27/30/27 35/39/35 34/38/33
f 27/30/27 28/31/28 36/40/36 35/39/35
f 28/31/28 29/32/29 37/41/37 36/40/36
f 29/32/29 30/33/30 38/42/38 37/41/37
f 30/33/30 31/34/31 39/43/39 38/42/38
f 31/34/31 32/35/32 40/44/40 39/43/39
f 32/35/32 25/36/26 33/45/34 40/44/40
f 33/37/34 34/38/33 42/47/41 41/46/42
f 34/38/33 35/39/35 43/48/43 42/47/41
f 35/39/35 36/40/36 44/49/44 43/48/43
f 36/40/36 37/41/37 45/50/45 44/49/44
f 37/41/37 38/42/38 46/51/46 45/50/45
f 38/42/38 39/43/39 47/52/47 46/51/46
f 39/43/39 40/44/40 48/53/48 47/52/47
f 40/44/40 33/45/34 41/54/42 48/53/48
f 2/2/2 1/1/1 49/55/49
f 3/3/5 2/2/2 49/56/49
f 4/4/7 3/3/5 49/57/49
f 5/5/9 4/4/7 49/58/49
f 6/6/11 5/5/9 49/59/49
f 7/7/13 6/6/11 49/60/49
f 8/8/15 7/7/13 49/61/49
f 1/9/1 8/8/15 49/62/49
f 41/46/42 42/47/41 50/63/50
f 42/47/41 43/48/43 50/64/50
f 43/48/43 44/49/44 50/65/50
f 44/49/44 45/50/45 50/66/50
f 45/50/45 46/51/46 50/67/50
f 46/51/46 47/52/47 50/68/50
f 47/52/47 48/53/48 50/69/50
f 48/53/48 41/54/42 50/70/50
g default
v 215.036379 412.025099 85.167402
v 208.116263 412.025099 82.300996
v 201.196148 412.025099 85.167402
v 198.329742 412.025099 92.087517
v 201.196148 412.025099 99.007633
v 208.116263 412.025099 101.874038
v 215.036379 412.025099 99.007633
v 217.902785 412.025099 92.087517
v 220.585881 418.283815 79.617900
v 208.116263 418.283815 74.452815
v 195.646646 418.283815 79.617900
v 190.481561 418.283815 92.087517
v 195.646646 418.283815 104.557135
v 208.116263 418.283815 109.722219
v 220.585882 418.283815 104.557136
v 225.750967 418.283815 92.087517
v 215.056136 430.106937 85.147647
v 208.116264 430.106937 82.273050
v 201.176394 430.106937 85.147647
v 198.301796 430.106937 92.087518
v 201.176394 430.106937 99.027389
v 208.116264 430.106937 101.901986
v 215.056137 430.106937 99.027390
v 217.930734 430.106937 92.087518
v 215.056136 463.276219 85.147647
v 208.116264 463.276219 82.273050
v 201.176394 463.276219 85.147647
v 198.301796 463.276219 92.087518
v 201.176394 463.276219 99.027389
v 208.116264 463.276219 101.901986
v 215.056137 463.276219 99.027390
v 217.930734 463.276219 92.087518
v 220.585881 475.099337 79.617900
v 208.116263 475.099337 74.452815
v 195.646646 475.099337 79.617900
v 190.481561 475.099337 92.087517
v 195.646646 475.099337 104.557135
v 208.116263 475.099337 109.722219
v 220.585882 475.099337 104.557136
v 225.750967 475.099337 92.087517
v 215.036379 481.358053 85.167402
v 208.116263 481.358053 82.300996
v 201.196148 481.358053 85.167402
v 198.329742 481.358053 92.087517
v 201.196148 481.358053 99.007633
v 208.116263 481.358053 101.874038
v 215.036379 481.358053 99.007633
v 217.902785 481.358053 92.087517
v 208.116263 409.791391 92.087517
v 208.116263 483.591762 92.087517
vt 0.000000 0.142857
vt 0.125000 0.142857
vt 0.250000 0.142857
vt 0.375000 0.142857
vt 0.500000 0.142857
vt 0.625000 0.142857
vt 0.750000 0.142857
vt 0.875000 0.142857
vt 1.000000 0.142857
vt 0.000000 0.285714
vt 0.125000 0.285714
vt 0.250000 0.285714
vt 0.375000 0.285714
vt 0.500000 0.285714
vt 0.625000 0.285714
vt 0.750000 0.285714
vt 0.875000 0.285714
vt 1.000000 0.285714
vt 0.000000 0.428571
vt 0.125000 0.428571
vt 0.250000 0.428571
vt 0.375000 0.428571
vt 0.500000 0.428571
vt 0.625000 0.428571
vt 0.750000 0.428571
vt 0.875000 0.428571
vt 1.000000 0.428571
vt 0.000000 0.571429
vt 0.125000 0.571429
vt 0.250000 0.571429
vt 0.375000 0.571429
vt 0.500000 0.571429
vt 0.625000 0.571429
vt 0.750000 0.571429
vt 0.875000 0.571429
vt 1.000000 0.571429
vt 0.000000 0.714286
vt 0.125000 0.714286
vt 0.250000 0.714286
vt 0.375000 0.714286
vt 0.500000 0.714286
vt 0.625000 0.714286
vt 0.750000 0.714286
vt 0.875000 0.714286
vt 1.000000 0.714286
vt 0.000000 0.857143
vt 0.125000 0.857143
vt 0.250000 0.857143
vt 0.375000 0.857143
vt 0.500000 0.857143
vt 0.625000 0.857143
vt 0.750000 0.857143
vt 0.875000 0.857143
vt 1.000000 0.857143
vt 0.062500 0.000000
vt 0.187500 0.000000
vt 0.312500 0.000000
vt 0.437500 0.000000
vt 0.562500 0.000000
vt 0.687500 0.000000
vt 0.812500 0.000000
vt 0.937500 0.000000
vt 0.062500 1.000000
vt 0.187500 1.000000
vt 0.312500 1.000000
vt 0.437500 1.000000
vt 0.562500 1.000000
vt 0.687500 1.000000
vt 0.812500 1.000000
vt 0.937500 1.000000
vn 0.394482 -0.829920 -0.394482
vn 0.000000 -0.829920 -0.557882
vn -0.000000 0.028655 -0.999589
vn 0.706816 0.028655 -0.706817
vn -0.394482 -0.829920 -0.394482
vn -0.706816 0.028655 -0.706816
vn -0.557882 -0.829920 0.000000
vn -0.999589 0.028655 0.000000
vn -0.394482 -0.829920 0.394482
vn -0.706816 0.028655 0.706816
vn -0.000000 -0.829920 0.557882
vn -0.000000 0.028655 0.999589
vn 0.394482 -0.829920 0.394482
vn 0.706816 0.028655 0.706816
vn 0.557882 -0.829920 -0.000000
vn 0.999589 0.028655 -0.000000
vn 0.000000 0.232501 -0.972596
vn 0.687729 0.232501 -0.687729
vn -0.687729 0.232501 -0.687729
vn -0.972596 0.232501 0.000000
vn -0.687729 0.232501 0.687729
vn -0.000000 0.232501 0.972596
vn 0.687729 0.232501 0.687729
vn 0.972596 0.232501 -0.000000
vn 0.000000 -0.232501 -0.972596
vn 0.687729 -0.232501 -0.687729
vn -0.687729 -0.232501 -0.687729
vn -0.972596 -0.232501 0.000000
vn -0.687729 -0.232501 0.687729
vn -0.000000 -0.232501 0.972596
vn 0.687729 -0.232501 0.687729
vn 0.972596 -0.232501 -0.000000
vn 0.000000 -0.028655 -0.999589
vn 0.706816 -0.028655 -0.706816
vn -0.706816 -0.028655 -0.706816
vn -0.999589 -0.028655 0.000000
vn -0.706816 -0.028655 0.706816
vn -0.000000 -0.028655 0.999589
vn 0.706816 -0.028655 0.706816
vn 0.999589 -0.028655 -0.000000
vn 0.000000 0.829920 -0.557882
vn 0.394482 0.829920 -0.394482
vn -0.394482 0.829920 -0.394482
vn -0.557882 0.829920 0.000000
vn -0.394482 0.829920 0.394482
vn -0.000000 0.829920 0.557882
vn 0.394482 0.829920 0.394482
vn 0.557882 0.829920 -0.000000
vn 0.000000 -1.000000 0.000000
vn 0.000000 1.000000 -0.000000
s 1
g pSphere1
f 51/71/51 52/72/52 60/81/53 59/80/54
f 52/72/52 53/73/55 61/82/56 60/81/53
f 53/73/55 54/74/57 62/83/58 61/82/56
f 54/74/57 55/75/59 63/84/60 62/83/58
f 55/75/59 56/76/61 64/85/62 63/84/60
f 56/76/61 57/77/63 65/86/64 64/85/62
f 57/77/63 58/78/65 66/87/66 65/86/64
f 58/78/65 51/79/51 59/88/54 66/87/66
f 59/80/54 60/81/53 68/90/67 67/89/68
f 60/81/53 61/82/56 69/91/69 68/90/67
f 61/82/56 62/83/58 70/92/70 69/91/69
f 62/83/58 63/84/60 71/93/71 70/92/70
f 63/84/60 64/85/62 72/94/72 71/93/71
f 64/85/62 65/86/64 73/95/73 72/94/72
f 65/86/64 66/87/66 74/96/74 73/95/73
f 66/87/66 59/88/54 67/97/68 74/96/74
f 67/89/68 68/90/67 76/99/75 75/98/76
f 68/90/67 69/91/69 77/100/77 76/99/75
f 69/91/69 70/92/70 78/101/78 77/100/77
f 70/92/70 71/93/71 79/102/79 78/101/78
f 71/93/71 72/94/72 80/103/80 79/102/79
f 72/94/72 73/95/73 81/104/81 80/103/80
f 73/95/73 74/96/74 82/105/82 81/104/81
f 74/96/74 67/97/68 75/106/76 82/105/82
f 75/98/76 76/99/75 84/108/83 83/107/84
f 76/99/75 77/100/77 85/109/85 84/108/83
f 77/100/77 78/101/78 86/110/86 85/109/85
f 78/101/78 79/102/79 87/111/87 86/110/86
f 79/102/79 80/103/80 88/112/88 87/111/87
f 80/103/80 81/104/81 89/113/89 88/112/88
f 81/104/81 82/105/82 90/114/90 89/113/89
f 82/105/82 75/106/76 83/115/84 90/114/90
f 83/107/84 84/108/83 92/117/91 91/116/92
f 84/108/83 85/109/85 93/118/93 92/117/91
f 85/109/85 86/110/86 94/119/94 93/118/93
f 86/110/86 87/111/87 95/120/95 94/119/94
f 87/111/87 88/112/88 96/121/96 95/120/95
f 88/112/88 89/113/89 97/122/97 96/121/96
f 89/113/89 90/114/90 98/123/98 97/122/97
f 90/114/90 83/115/84 91/124/92 98/123/98
f 52/72/52 51/71/51 99/125/99
f 53/73/55 52/72/52 99/126/99
f 54/74/57 53/73/55 99/127/99
f 55/75/59 54/74/57 99/128/99
f 56/76/61 55/75/59 99/129/99
f 57/77/63 56/76/61 99/130/99
f 58/78/65 57/77/63 99/131/99
f 51/79/51 58/78/65 99/132/99
f 91/116/92 92/117/91 100/133/100
f 92/117/91 93/118/93 100/134/100
f 93/118/93 94/119/94 100/135/100
f 94/119/94 95/120/95 100/136/100
f 95/120/95 96/121/96 100/137/100
f 96/121/96 97/122/97 100/138/100
f 97/122/97 98/123/98 100/139/100
f 98/123/98 91/124/92 100/140/100
